<svg width="44" height="47" fill="none" xmlns="http://www.w3.org/2000/svg"><path d="M10.07 11.535a.916.916 0 100 1.832.916.916 0 000-1.832zM18.31 28.655h-2.747v-2.747a.916.916 0 00-1.83 0v2.747h-2.747a.916.916 0 000 1.83h2.746v2.747a.916.916 0 001.831 0v-2.746h2.747a.916.916 0 000-1.831z" fill="#009C93"/><path d="M43.019 29.479a7.32 7.32 0 00-10.005-2.681l-3.719 2.147v-7.95a4.61 4.61 0 00-.915-2.747l-4.577-6.103V9.547a2.75 2.75 0 001.83-2.59v-4.21A2.75 2.75 0 0022.888 0H6.408a2.75 2.75 0 00-2.746 2.746v4.212c0 1.193.765 2.21 1.83 2.589v2.598L.916 18.25A4.61 4.61 0 000 20.995v17.73a4.583 4.583 0 004.577 4.577H19.29a7.316 7.316 0 009.948 2.59l11.1-6.41c3.475-2.006 4.714-6.48 2.68-10.003zM5.492 2.745c0-.504.41-.915.915-.915h16.479c.505 0 .915.41.915.915v4.212c0 .504-.41.915-.915.915H6.408a.916.916 0 01-.915-.915V2.746zm-3.113 16.6L7.14 13a.915.915 0 00.184-.55V9.704H21.97v1.831h-8.239a.916.916 0 000 1.831h8.697l4.486 5.98c.293.392.475.86.53 1.344H1.85c.055-.484.237-.952.53-1.343zm2.197 22.125a2.75 2.75 0 01-2.746-2.746V37.8h16.633a7.336 7.336 0 00.044 3.671H4.578zm14.605-5.493H1.83V22.521h25.633V30l-5.55 3.205a7.269 7.269 0 00-2.732 2.772zm9.141 8.328a5.49 5.49 0 01-7.503-2.01 5.492 5.492 0 012.01-7.504l4.97-2.87 5.492 9.514-4.969 2.87zm11.1-6.409l-4.545 2.624-5.493-9.514 4.545-2.623a5.49 5.49 0 017.503 2.01 5.497 5.497 0 01-2.01 7.503z" fill="#009C93"/></svg>