<svg width="50" height="40" fill="none" xmlns="http://www.w3.org/2000/svg"><path fill-rule="evenodd" clip-rule="evenodd" d="M41.22 29.221H17.97l-1.04-1.059V13.037c.439.29.95.445 1.472.45a2.743 2.743 0 001.636-.555.97.97 0 011.144 0c.97.741 2.304.741 3.273 0a.97.97 0 011.144 0 2.698 2.698 0 003.45-.143 1.1 1.1 0 00.385-.87C29.174 5.295 23.386 0 16.194 0 8.284 0 3.182 5.294 2.952 11.918c-.008.335.134.656.387.872a2.774 2.774 0 001.814.697 2.743 2.743 0 001.636-.555.97.97 0 011.144 0c.969.741 2.303.741 3.272 0a.97.97 0 011.144 0c.91.701 2.155.744 3.109.105v13.63l-5.369-5.465a.727.727 0 00-1.04 0L6.84 23.45a.759.759 0 000 1.06l8.833 8.99c.139.14.326.218.52.217H41.22a.743.743 0 00.737-.75v-2.996c0-.414-.33-.75-.736-.75zM14.756 11.72c-.222.17-.491.264-.77.268a1.296 1.296 0 01-.77-.268 2.423 2.423 0 00-2.876 0 1.237 1.237 0 01-1.54 0 2.423 2.423 0 00-2.876 0c-.223.17-.492.264-.77.268a1.274 1.274 0 01-.72-.233C4.751 5.705 9.557 1.5 16.193 1.5c6.288 0 11.41 4.488 11.759 10.258-.211.148-.46.228-.717.231a1.296 1.296 0 01-.77-.268 2.423 2.423 0 00-2.877 0 1.237 1.237 0 01-1.54 0 2.423 2.423 0 00-2.876 0 1.237 1.237 0 01-1.54 0 2.423 2.423 0 00-2.877 0zm25.73 20.498H16.498l-8.097-8.241 1.167-1.189 6.104 6.213 1.472 1.499a.73.73 0 00.521.22h22.818v1.498zm2.944 2.248H15.026l-10.09-10.27a.727.727 0 00-1.04-.018.759.759 0 000 1.078l3.545 3.608-4.129 5.602H.736a.743.743 0 00-.736.75c0 .413.33.749.736.749H6.037L4.388 38.59a.765.765 0 00.23 1.044.736.736 0 001.028-.226l2.161-3.444h30.71l2.161 3.444c.22.35.68.452 1.028.226a.765.765 0 00.23-1.044l-1.648-2.626h3.14a.743.743 0 00.737-.75c0-.413-.33-.749-.736-.749zm-38.276 0l3.34-4.532 4.452 4.532H5.153zM41.7 5.833c0-.46.367-.833.819-.833.452 0 .819.373.819.833v1.481c0 .46-.367.833-.82.833a.826.826 0 01-.818-.833v-1.48zm-2.204 2.413l-1.03-1.049a.809.809 0 00-1.157.02.844.844 0 000 1.159l1.03 1.048c.325.32.843.31 1.157-.02a.844.844 0 000-1.158zm-.71 4.254c.002-2.096 1.67-3.795 3.73-3.797 2.06 0 3.73 1.7 3.73 3.797 0 2.097-1.67 3.796-3.73 3.796s-3.73-1.7-3.73-3.796zm1.637 0c0 1.176.937 2.13 2.092 2.13 1.156 0 2.093-.954 2.093-2.13 0-1.177-.937-2.13-2.093-2.13-1.155.001-2.09.954-2.092 2.13zm-4.454-.833h1.455c.452 0 .819.373.819.833 0 .46-.367.833-.819.833H35.97a.826.826 0 01-.818-.833c0-.46.366-.833.818-.833zm11.76-4.47a.809.809 0 00-1.158 0l-1.03 1.048a.844.844 0 00-.02 1.179.808.808 0 001.178 0l1.03-1.049a.844.844 0 000-1.178zm-.117 4.47h1.455c.452 0 .819.373.819.833 0 .46-.367.833-.819.833h-1.455a.826.826 0 01-.818-.833c0-.46.366-.833.818-.833zm.116 4.958l-1.03-1.049a.809.809 0 00-1.158 0 .844.844 0 000 1.179l1.03 1.048c.325.32.843.31 1.158-.02a.844.844 0 000-1.158zm-6.028 1.06c0-.46.367-.832.819-.832.452 0 .819.373.819.833v1.48c0 .46-.367.834-.82.834a.826.826 0 01-.818-.833v-1.481zm-2.223-2.108a.808.808 0 00-1.137 0l-1.03 1.048a.844.844 0 00-.02 1.178.808.808 0 001.178 0l1.03-1.048a.844.844 0 00-.02-1.178z" fill="#009C93"/></svg>