<svg width="43" height="48" fill="none" xmlns="http://www.w3.org/2000/svg"><path d="M40.537 8.059a8.42 8.42 0 00-11.899 0 .932.932 0 000 1.32l.613.61c-2.818-.427-6.136-.657-9.62-.657-.6 0-1.207.01-1.811.023L15.76 3.19A4.669 4.669 0 0011.327 0H.935a.934.934 0 100 1.866h10.392c1.209 0 2.278.77 2.66 1.914l1.885 5.644c-3.531.177-6.751.603-9.17 1.22-3.252.828-4.832 1.925-4.832 3.353 0 3.22 1.21 5.786 3.6 7.627 1.86 1.434 4.058 2.102 5.575 2.41.37.075.65.372.715.756l.418 2.501a7.463 7.463 0 004.648 5.74v8.21c0 .267-.112.536-.3.72a.728.728 0 01-.524.219 4.652 4.652 0 00-3.377 1.327 4.627 4.627 0 00-1.408 3.338c0 .515.42.933.935.933H27.11a.934.934 0 00.935-.933c0-1.267-.5-2.452-1.408-3.338a4.64 4.64 0 00-3.377-1.327.738.738 0 01-.524-.22 1.022 1.022 0 01-.3-.718V33.03a7.463 7.463 0 004.648-5.74l.403-2.411a.924.924 0 01.8-.752c3.971-.55 7.192-2.71 8.508-6.609l2.42 2.417a.936.936 0 001.323 0c3.3-3.295 3.268-8.613 0-11.877zm-6.884-.527v4.213l-2.985-2.98a6.48 6.48 0 012.985-1.233zM19.63 11.198c4.528 0 8.746.395 11.878 1.113l.017.003.07.016 2.555 2.551c-2.306.967-7.138 1.857-13.848 1.913l-1.865-5.586c.399-.007.797-.01 1.193-.01zm-15.888 2.8c.094-.227.936-.951 3.742-1.625 2.382-.572 5.556-.962 9.001-1.11l1.844 5.523c-3.763-.065-7.291-.409-10.048-.986-3.422-.715-4.433-1.543-4.539-1.803zM28.03 22.28c-1.226.17-2.186 1.09-2.387 2.293l-.403 2.412c-.357 2.144-1.891 3.863-4.004 4.487a.933.933 0 00-.67.895v8.875c0 .77.315 1.518.864 2.053.513.5 1.177.766 1.874.75a2.788 2.788 0 012.027.797c.313.305.545.67.686 1.07h-12.77c.14-.4.373-.765.685-1.07a2.784 2.784 0 012.028-.796 2.58 2.58 0 001.873-.75 2.883 2.883 0 00.864-2.054v-8.875a.933.933 0 00-.67-.895c-2.112-.624-3.646-2.343-4.004-4.487l-.418-2.503a2.767 2.767 0 00-2.186-2.276c-2.413-.49-6.2-1.87-7.342-5.74.882.406 2.031.766 3.454 1.082 3.24.719 7.535 1.115 12.093 1.115h.015c6.742 0 12.575-.84 15.523-2.188-1.164 4.112-4.468 5.435-7.132 5.805zm7.493-10.311V7.532a6.485 6.485 0 013.373 1.55l-3.373 2.887zm4.59-1.47a6.524 6.524 0 011.016 3.374l-4.328-.54 3.313-2.834zm-.284 7.41l-2.653-2.648 3.723.464a6.564 6.564 0 01-1.07 2.184z" fill="#009C93"/><path d="M20.394 29.25a.851.851 0 00-1.058-.575 1.734 1.734 0 01-.988 0 1.757 1.757 0 01-1.18-1.096.852.852 0 00-1.605.569 3.489 3.489 0 004.256 2.16.852.852 0 00.575-1.059z" fill="#009C93"/></svg>