<svg width="19" height="19" fill="none" xmlns="http://www.w3.org/2000/svg"><path fill-rule="evenodd" clip-rule="evenodd" d="M16.5 9.5c0 4.17-3.274 7.5-7.25 7.5S2 13.67 2 9.5 5.274 2 9.25 2c2.362 0 4.476 1.175 5.803 3.003l-4.589 5.84L6.737 6.62a.5.5 0 10-.75.662l4.125 4.675a.5.5 0 00.768-.022l4.735-6.028A7.665 7.665 0 0116.5 9.5zm-.217-4.444A8.652 8.652 0 0117.5 9.5c0 4.694-3.693 8.5-8.25 8.5C4.694 18 1 14.194 1 9.5S4.694 1 9.25 1c2.606 0 4.93 1.245 6.442 3.19l1.414-1.8a.5.5 0 01.786.619l-1.609 2.047z" fill="#009C93"/><path d="M15.053 5.003l.393.31a.5.5 0 00.012-.603l-.405.293zm-4.589 5.84l-.375.332a.5.5 0 00.769-.022l-.394-.31zM6.737 6.62l.375-.33-.375.33zm-.75.662l-.375.33.375-.33zm4.125 4.675l.375-.331-.375.33zm.768-.022l-.393-.31.393.31zm4.735-6.028l.442-.233a.5.5 0 00-.835-.076l.393.31zm.668-.85l-.393-.309a.5.5 0 00-.036.565l.43-.256zm-.591-.866l-.395.307a.5.5 0 00.788.002l-.393-.309zm1.414-1.8l.393.31-.393-.31zm.702-.083l.309-.394-.31.394zm.084.702l-.393-.31.393.31zM9.25 17.5c4.265 0 7.75-3.567 7.75-8h-1c0 3.908-3.064 7-6.75 7v1zm-7.75-8c0 4.433 3.484 8 7.75 8v-1c-3.687 0-6.75-3.092-6.75-7h-1zm7.75-8c-4.266 0-7.75 3.567-7.75 8h1c0-3.908 3.063-7 6.75-7v-1zm6.208 3.21C14.043 2.76 11.782 1.5 9.25 1.5v1c2.191 0 4.159 1.09 5.398 2.797l.81-.587zm-4.6 6.443l4.588-5.84-.786-.618-4.589 5.84.787.618zM6.362 6.95l3.727 4.224.75-.661-3.727-4.225-.75.662zm0 0l.75-.662A1 1 0 005.7 6.2l.662.75zm0 0L5.7 6.2a1 1 0 00-.088 1.411l.75-.661zm4.125 4.675L6.362 6.95l-.75.661 4.125 4.675.75-.661zm0 0l-.75.661a1 1 0 00.778.338l-.028-1zm0 0l.028 1a1 1 0 00.758-.383l-.786-.617zm4.735-6.028l-4.735 6.028.786.617 4.736-6.027-.787-.618zM17 9.5a8.164 8.164 0 00-.942-3.827l-.884.467C15.7 7.134 16 8.277 16 9.5h1zm1 0c0-1.72-.47-3.331-1.286-4.7l-.859.512A8.152 8.152 0 0116.999 9.5h1zm-8.75 9c4.847 0 8.75-4.044 8.75-9h-1c0 4.432-3.483 8-7.75 8v1zM.5 9.5c0 4.956 3.903 9 8.75 9v-1c-4.266 0-7.75-3.568-7.75-8h-1zm8.75-9C4.403.5.5 4.544.5 9.5h1c0-4.432 3.484-8 7.75-8v-1zm6.837 3.383C14.487 1.825 12.02.5 9.25.5v1c2.442 0 4.624 1.166 6.047 2.997l.79-.614zm-.002.616L17.5 2.7l-.786-.617-1.414 1.8.786.617zM17.5 2.7l.618-.786a1 1 0 00-1.404.169l.786.618zm0 0l.786.619a1 1 0 00-.168-1.405l-.618.787zm0 0L15.89 4.748l.787.618 1.608-2.047L17.5 2.7z" fill="#009C93"/></svg>