<svg width="56" height="35" fill="none" xmlns="http://www.w3.org/2000/svg"><path d="M43.901 11.885a2.137 2.137 0 000-4.275 2.139 2.139 0 000 4.275zm0-2.632c.271 0 .491.222.491.495a.5.5 0 01-.49.495.496.496 0 010-.99zM43.901 14.366c-1.177 0-2.134.959-2.134 2.137 0 1.179.957 2.138 2.134 2.138a2.137 2.137 0 000-4.275zm0 2.632a.495.495 0 010-.99.5.5 0 01.491.495c0 .273-.22.495-.49.495zM42.66 13.125a2.139 2.139 0 00-2.135-2.138 2.138 2.138 0 000 4.276c1.177 0 2.135-.96 2.135-2.138zm-2.135.495a.495.495 0 11.002-.99.495.495 0 01-.002.99zM47.275 10.987a2.139 2.139 0 000 4.276 2.139 2.139 0 000-4.276zm0 2.633a.496.496 0 11.001-.991.496.496 0 01-.001.991zM20.352 16.269a3.893 3.893 0 00-3.886 3.891 3.893 3.893 0 003.886 3.892 3.893 3.893 0 003.886-3.892 3.893 3.893 0 00-3.886-3.891zm0 6.14a2.25 2.25 0 010-4.498 2.25 2.25 0 010 4.499z" fill="#009C93"/><path d="M55.624 25.73l-3.95-16.328c-.568-2.349-1.696-4.139-3.354-5.32a7.653 7.653 0 00-1.084-.646V3.1A3.1 3.1 0 0044.144 0h-1.839a3.101 3.101 0 00-3.096 3.1v.475c-.662.36-1.184.8-1.498 1.287h-7.91a.82.82 0 000 1.643h7.61v1.678a1.68 1.68 0 01-1.676 1.681h-15.47a1.682 1.682 0 01-1.679-1.681V6.505h7.427a.82.82 0 000-1.643h-7.727c-.313-.485-.834-.925-1.495-1.286V3.1c0-1.71-1.389-3.1-3.096-3.1H11.86a3.101 3.101 0 00-3.096 3.1v.336c-.379.186-.74.4-1.082.643-1.658 1.182-2.788 2.973-3.356 5.323L.376 25.729c-.582 2.402-.488 4.434.278 6.04.684 1.436 1.872 2.45 3.435 2.93 3.348 1.032 7.268-.689 8.39-3.682l1.897-5.06c.244-.652.437-.734.44-.735.022-.005.17.014.452.22 2.657 2.416 7.009 2.312 9.875-.192h5.714a7.914 7.914 0 004.78 1.94c1.932.105 3.739-.516 5.094-1.748.318-.233.45-.221.452-.22.002 0 .195.083.44.734l1.895 5.061c.9 2.401 3.602 3.983 6.364 3.983a6.89 6.89 0 002.03-.3c1.563-.482 2.75-1.496 3.434-2.932.766-1.605.86-3.637.278-6.039zM42.304 1.641h1.84c.711 0 1.304.518 1.427 1.198a9.155 9.155 0 00-2.134-.256h-.033c-.889 0-1.756.122-2.543.338.088-.72.702-1.28 1.444-1.28zm-30.444 0h1.835c.742 0 1.356.56 1.444 1.28a9.695 9.695 0 00-2.543-.338h-.028c-.74.002-1.457.09-2.14.256a1.458 1.458 0 011.432-1.198zM51.43 33.13c-2.27.7-5.48-.302-6.376-2.69l-1.895-5.062c-.369-.977-.865-1.543-1.52-1.733-.598-.175-1.245-.003-1.923.507a.91.91 0 00-.062.052c-2.11 1.943-5.66 1.777-7.914-.37a.819.819 0 00-.565-.226h-6.35c-.21 0-.413.081-.565.226-2.255 2.149-5.805 2.315-7.914.37a.823.823 0 00-.062-.052c-.679-.511-1.327-.682-1.927-.507-.655.191-1.15.759-1.517 1.734l-1.897 5.061c-.894 2.388-4.102 3.39-6.372 2.69-2.543-.783-3.491-3.34-2.601-7.014L5.92 9.79c.713-2.948 2.297-4.367 3.874-5.026a.801.801 0 00.188-.076 7.388 7.388 0 012.59-.46c1.225-.002 2.281.26 3.052.598l.04.018c.702.313 1.159.685 1.281.97v2.37a3.325 3.325 0 003.32 3.323h15.47a3.324 3.324 0 003.316-3.323v-2.37c.121-.28.568-.648 1.253-.959a.827.827 0 00.116-.05c.762-.326 1.79-.577 2.981-.577h.03a7.383 7.383 0 012.587.46c.058.033.12.058.186.075 1.577.66 3.162 2.078 3.876 5.026l3.95 16.328c.89 3.674-.058 6.23-2.6 7.014z" fill="#009C93"/><path d="M36.29 16.269a3.893 3.893 0 00-3.886 3.891 3.893 3.893 0 003.886 3.892 3.894 3.894 0 003.887-3.892 3.893 3.893 0 00-3.886-3.891zm0 6.14a2.25 2.25 0 010-4.498 2.25 2.25 0 010 4.499zM14.684 10.985h-.25v-.25a2.52 2.52 0 00-2.516-2.52 2.52 2.52 0 00-2.516 2.52v.25h-.25a2.52 2.52 0 000 5.039h.25v.25a2.52 2.52 0 002.516 2.519 2.52 2.52 0 002.516-2.52v-.25h.25a2.52 2.52 0 000-5.038zm0 3.396h-1.07a.82.82 0 00-.82.821v1.071a.877.877 0 01-.876.878.877.877 0 01-.875-.878v-1.07a.82.82 0 00-.82-.822h-1.07a.878.878 0 010-1.754h1.07c.452 0 .82-.368.82-.821v-1.071c0-.484.392-.877.875-.877s.876.393.876.877v1.07c0 .454.367.822.82.822h1.07a.878.878 0 010 1.754zM25.849 14.024h-1.191a.82.82 0 000 1.642h1.19a.82.82 0 000-1.642zM31.343 14.024H30.15a.821.821 0 000 1.642h1.194a.82.82 0 000-1.642zM28.912 18.327h-1.19a.82.82 0 000 1.642h1.19a.82.82 0 000-1.642z" fill="#009C93"/></svg>