<svg width="72" height="69" fill="none" xmlns="http://www.w3.org/2000/svg"><path fill-rule="evenodd" clip-rule="evenodd" d="M17.977 5.377C11.1 5.377 5.393 11.12 5.393 18.37S11.1 31.364 17.977 31.364v5.376C7.975 36.74 0 28.442 0 18.37 0 8.3 7.975 0 17.977 0v5.377zm17.29 36.314c.34-.336.524-.83.553-1.484H34.66c-.016.388-.082.657-.198.807-.116.147-.326.22-.632.22-.31 0-.53-.106-.66-.318-.126-.213-.189-.604-.189-1.174V38.66c.008-.496.076-.852.205-1.067.13-.218.35-.327.66-.327.306 0 .515.078.628.233.116.152.18.43.19.834h1.165c-.045-.653-.23-1.155-.557-1.504-.324-.349-.8-.524-1.426-.524-.637 0-1.135.214-1.493.642-.358.426-.537 1.032-.537 1.82v.964c0 .79.172 1.4.517 1.828.348.425.847.638 1.497.638.62 0 1.098-.168 1.438-.505zm4.102-5.308l-.774 2.548-.858-2.548h-1.244l1.643 4.107-.055.21c-.055.227-.121.375-.197.44-.074.066-.185.099-.332.099-.145 0-.23-.006-.257-.016l.02.96.276.017h.127c.29-.008.537-.098.742-.268.208-.17.402-.485.581-.942l1.576-4.607h-1.248zm6.12 0v5.734h-1.161v-2.162a4.03 4.03 0 01-.87.102c-.626 0-1.104-.157-1.433-.472-.33-.315-.5-.77-.514-1.363v-1.839h1.166v1.776c0 .336.056.576.17.72.115.145.32.217.612.217.282 0 .571-.034.869-.102v-2.61h1.161zm2.407 4.56h1.584l.308 1.174h1.24l-1.808-5.734h-1.063l-1.797 5.734h1.228l.308-1.174zm1.328-.965h-1.075l.537-2.043.538 2.043zm6.4.229c-.029.654-.213 1.148-.553 1.484-.34.337-.819.505-1.438.505-.65 0-1.149-.213-1.497-.638-.345-.428-.517-1.037-.517-1.828v-.964c0-.788.179-1.394.537-1.82.358-.428.856-.642 1.493-.642.627 0 1.102.175 1.426.524.327.35.512.85.557 1.504h-1.165c-.01-.404-.074-.682-.19-.834-.113-.155-.322-.233-.628-.233-.31 0-.53.11-.66.327-.128.215-.197.571-.205 1.067v1.083c0 .57.063.961.19 1.174.129.212.349.319.66.319.305 0 .516-.074.631-.22.116-.15.182-.42.198-.808h1.161zm3.833 1.91h1.158v-5.734h-1.158v2.32h-1.714v-2.32h-1.161v5.734h1.161v-2.453h1.714v2.453zm3.55 0h-1.162v-5.734h1.161v5.734zM36.44 45.63c-.374-.447-.867-.67-1.481-.67v-.748h-1.114v.748c-.621 0-1.12.224-1.497.673-.377.447-.565 1.02-.565 1.721 0 .452.086.856.257 1.213.171.355.41.63.715.827.308.194.671.292 1.09.292v.732h1.114v-.732c.616 0 1.111-.22 1.485-.658.374-.438.561-.999.561-1.682 0-.7-.188-1.273-.565-1.716zm-3.322.692c.164-.249.386-.374.668-.374h.06v2.745h-.052a.773.773 0 01-.676-.362c-.16-.242-.24-.567-.24-.977 0-.438.08-.782.24-1.032zm1.841 2.371v-2.745h.047c.285 0 .506.125.664.374.16.25.24.591.24 1.024 0 .413-.08.74-.24.985-.16.241-.378.362-.652.362h-.059zm4.272 1.489h-1.162v-5.734h1.162v5.734zm4.093 0h1.158v-5.734h-1.157v2.32H41.61v-2.32H40.45v5.734h1.161v-2.454h1.715v2.454zm5.153-1.174h-1.584l-.308 1.174h-1.229l1.798-5.734h1.062l1.81 5.734h-1.24l-.309-1.174zm-1.331-.965h1.074L47.683 46l-.537 2.043zm6.539 2.139h1.157v-5.734h-1.157v2.32H51.97v-2.32h-1.16v5.734h1.16v-2.454h1.715v2.454zm6.234-1.91c-.028.654-.213 1.148-.552 1.484-.34.337-.82.505-1.438.505-.65 0-1.15-.213-1.497-.639-.345-.427-.518-1.036-.518-1.827v-.965c0-.787.18-1.393.538-1.819.358-.428.855-.642 1.493-.642.626 0 1.102.175 1.425.524.327.35.513.85.557 1.504h-1.165c-.01-.404-.074-.682-.19-.834-.113-.155-.322-.233-.627-.233-.311 0-.531.11-.66.327-.13.215-.198.571-.205 1.067v1.083c0 .57.063.961.19 1.174.128.212.348.319.659.319.305 0 .516-.074.632-.22.116-.15.181-.42.197-.808h1.161zm4.458 1.35c.366-.425.549-1.022.549-1.791v-.98c-.005-.786-.192-1.395-.561-1.828-.369-.436-.873-.654-1.513-.654-.65 0-1.158.222-1.524.666-.367.44-.55 1.055-.55 1.843v.98c.006.76.193 1.35.561 1.772.369.42.876.63 1.521.63.648 0 1.153-.212 1.517-.637zm-.838-3.906c.148.252.222.637.222 1.154v.996c-.003.489-.078.85-.226 1.083-.147.231-.372.347-.675.347-.313 0-.545-.118-.695-.355-.15-.239-.225-.609-.225-1.11v-1.02c.005-.496.081-.865.229-1.107.147-.244.375-.366.683-.366.31 0 .54.126.687.378zm2.463 4.466v-5.734h1.778c.6 0 1.055.134 1.366.402.314.265.47.655.47 1.17 0 .29-.064.541-.193.752a1.14 1.14 0 01-.53.46c.258.074.457.222.597.445.14.22.21.494.21.82 0 .556-.155.976-.463 1.26-.305.283-.75.425-1.331.425h-1.904zm1.161-2.493v1.532h.743c.208 0 .366-.064.474-.193.108-.129.162-.311.162-.547 0-.515-.187-.779-.561-.792h-.818zm0-.843h.605c.455 0 .683-.235.683-.705 0-.26-.053-.446-.158-.559-.105-.113-.277-.17-.514-.17h-.616v1.434zm3.675 3.336H72v-5.734h-1.162v5.734zM33.083 56.23v2.017h-1.161v-5.734h1.959c.568 0 1.021.176 1.358.528.34.352.51.808.51 1.37s-.167 1.006-.502 1.331c-.334.326-.798.488-1.39.488h-.774zm0-.964h.798c.22 0 .392-.073.513-.217.121-.144.182-.354.182-.63 0-.286-.062-.513-.186-.681a.594.594 0 00-.498-.26h-.81v1.788zm3.738 2.98h1.161v-5.733h-1.16v5.734zm3.545-5.733v4.773h1.17v-4.773h1.16v4.773h1.154v-4.773h1.161v5.734h-5.81v-5.734h1.165zm6.977 3.253h1.81v-.933h-1.81v-1.355h2.133v-.965h-3.294v5.734h3.302v-.961h-2.14v-1.52zm7.088 2.48h-1.157v-2.453H51.56v2.454h-1.162v-5.734h1.162v2.32h1.714v-2.32h1.157v5.734zm4.055 0h1.157v-5.733h-1.157v2.32H56.77v-2.32h-1.16v5.734h1.16v-2.454h1.715v2.454zm4.48 0v-2.063h-.608l-.849 2.064h-1.252l1.02-2.481c-.475-.328-.712-.822-.712-1.48 0-.568.16-1.005.478-1.312.321-.307.776-.461 1.363-.461h1.726v5.734h-1.165zm-1.236-3.87c0 .317.057.548.17.693.113.142.29.212.53.212h.537v-1.803h-.577c-.44 0-.66.3-.66.898zM25.167 36.72v21.527h5.393v2.688h-2.696v1.792h2.696v3.585h-5.393V69h-5.393V0h5.393v.02c9.943.456 17.977 8.431 17.977 18.35 0 9.92-8.034 17.894-17.977 18.35zm0-5.385c7.09-.447 12.584-6.145 12.584-12.965S32.257 5.852 25.167 5.405v25.93z" fill="#fff"/></svg>