<svg width="89" height="85" fill="none" xmlns="http://www.w3.org/2000/svg"><path d="M43.935 49.53c-.035.806-.261 1.416-.678 1.83-.417.413-1.005.62-1.764.62-.797 0-1.41-.262-1.836-.785-.423-.528-.634-1.278-.634-2.251v-1.189c0-.97.22-1.717.658-2.241.44-.527 1.05-.79 1.832-.79.769 0 1.352.214 1.749.644.4.43.628 1.048.683 1.853h-1.43c-.012-.498-.09-.84-.232-1.028-.139-.19-.395-.286-.77-.286-.381 0-.65.134-.81.403-.158.265-.241.703-.251 1.314v1.334c0 .702.077 1.184.232 1.446.159.262.428.393.81.393.374 0 .633-.09.775-.272.142-.184.223-.516.242-.994h1.424zM47.339 47.959l.95-3.139h1.53l-1.933 5.676c-.22.563-.457.95-.712 1.16a1.44 1.44 0 01-.911.33h-.155l-.34-.02-.023-1.184c.032.013.137.02.315.02.18 0 .316-.04.407-.122.093-.08.174-.262.242-.543l.067-.257-2.015-5.06h1.526l1.052 3.139zM55.795 44.82v7.063H54.37V49.22a4.917 4.917 0 01-1.065.126c-.769 0-1.355-.194-1.759-.582-.404-.388-.614-.948-.63-1.678V44.82h1.43v2.188c0 .414.069.71.208.888.142.178.392.267.75.267.346 0 .702-.042 1.066-.127V44.82h1.425zM60.69 50.438h-1.942l-.378 1.445h-1.507l2.204-7.063h1.304l2.218 7.063h-1.52l-.379-1.445zm-1.632-1.189h1.317l-.658-2.518-.66 2.518zM68.226 49.53c-.035.806-.261 1.416-.678 1.83-.417.413-1.005.62-1.764.62-.797 0-1.41-.262-1.836-.785-.423-.528-.635-1.278-.635-2.251v-1.189c0-.97.22-1.717.66-2.241.439-.527 1.05-.79 1.83-.79.77 0 1.353.214 1.75.644.4.43.628 1.048.683 1.853h-1.43c-.012-.498-.09-.84-.232-1.028-.139-.19-.395-.286-.77-.286-.381 0-.651.134-.81.403-.158.265-.242.703-.251 1.314v1.334c0 .702.077 1.184.232 1.446.159.262.428.393.81.393.374 0 .633-.09.775-.272.142-.184.222-.516.242-.994h1.424zM74.347 51.883h-1.42v-3.022h-2.102v3.022h-1.424V44.82h1.424v2.858h2.103V44.82h1.42v7.063zM77.28 51.883h-1.424V44.82h1.425v7.063zM42.88 55.386c.752 0 1.357.275 1.816.825.462.546.693 1.251.693 2.115 0 .84-.23 1.531-.688 2.071-.459.54-1.066.81-1.822.81v.902h-1.366v-.902c-.514 0-.96-.12-1.337-.359a2.441 2.441 0 01-.877-1.018 3.427 3.427 0 01-.315-1.495c0-.863.23-1.57.693-2.12.462-.553 1.074-.83 1.836-.83v-.92h1.366v.92zm-1.44 1.217c-.345 0-.618.154-.819.461-.197.308-.295.731-.295 1.271 0 .505.098.906.295 1.203.2.298.477.447.829.447h.063v-3.382h-.073zm1.44 0v3.382h.072c.336 0 .602-.149.8-.447.196-.3.295-.705.295-1.212 0-.534-.099-.954-.296-1.262-.194-.307-.465-.46-.814-.46h-.058zM48.119 61.818h-1.425v-7.063h1.425v7.063zM54.56 61.818h-1.42v-3.022h-2.103v3.022h-1.424v-7.063h1.424v2.857h2.103v-2.857h1.42v7.063zM59.46 60.373h-1.943l-.378 1.445h-1.507l2.205-7.063h1.303l2.219 7.063h-1.521l-.378-1.445zm-1.633-1.189h1.318l-.66-2.517-.658 2.517zM67.267 61.818h-1.42v-3.022h-2.102v3.022H62.32v-7.063h1.425v2.857h2.102v-2.857h1.42v7.063zM73.495 59.466c-.036.805-.262 1.415-.679 1.828-.416.415-1.004.622-1.763.622-.798 0-1.41-.262-1.836-.786-.423-.528-.635-1.278-.635-2.251V57.69c0-.97.22-1.717.659-2.241.44-.527 1.05-.79 1.831-.79.769 0 1.352.214 1.75.644.4.43.627 1.048.682 1.854h-1.429c-.013-.498-.09-.841-.232-1.029-.14-.19-.396-.286-.77-.286-.382 0-.652.134-.81.403-.158.265-.242.703-.252 1.314v1.334c0 .702.078 1.184.233 1.446.158.262.428.393.809.393.375 0 .633-.09.775-.272.142-.184.223-.516.242-.994h1.425zM79.635 58.922c0 .948-.224 1.684-.673 2.208-.446.523-1.066.785-1.86.785-.792 0-1.414-.258-1.866-.776-.452-.52-.681-1.248-.688-2.183v-1.208c0-.97.225-1.727.674-2.27.449-.547 1.072-.82 1.87-.82.785 0 1.403.269 1.855.806.453.533.682 1.283.688 2.25v1.208zm-1.429-1.183c0-.637-.09-1.111-.271-1.422-.181-.31-.462-.465-.843-.465-.378 0-.658.15-.838.45-.181.298-.275.753-.282 1.364v1.256c0 .618.093 1.074.277 1.368.184.291.468.437.852.437.372 0 .648-.142.829-.427.18-.288.273-.732.276-1.334v-1.227zM80.955 61.818v-7.063h2.18c.737 0 1.295.165 1.677.495.384.327.576.807.576 1.44 0 .36-.079.669-.237.927a1.402 1.402 0 01-.65.568c.317.09.561.273.732.548.171.272.257.608.257 1.01 0 .685-.189 1.202-.567 1.551-.375.35-.919.524-1.633.524h-2.335zm1.425-3.07v1.887h.91c.256 0 .45-.08.582-.238.132-.158.198-.383.198-.674 0-.634-.229-.96-.688-.975H82.38zm0-1.038h.74c.56 0 .839-.29.839-.869 0-.32-.065-.55-.194-.689-.129-.139-.339-.208-.63-.208h-.755v1.766zM88.312 61.818h-1.425v-7.063h1.425v7.063zM40.578 69.27v2.484h-1.425V64.69h2.404c.697 0 1.253.217 1.666.65.417.434.625.996.625 1.688 0 .693-.205 1.24-.615 1.64-.41.401-.979.602-1.706.602h-.95zm0-1.189h.978c.272 0 .482-.089.63-.267.149-.177.223-.436.223-.776 0-.352-.076-.632-.227-.839a.728.728 0 00-.611-.32h-.993v2.202zM46.588 71.754h-1.425V64.69h1.425v7.064zM49.511 64.69v5.88h1.434v-5.88h1.425v5.88h1.414v-5.88h1.425v7.064h-7.127V64.69h1.43zM60.288 68.697H58.07v1.873h2.626v1.184h-4.05V64.69h4.04v1.189H58.07v1.669h2.22v1.15zM66.763 71.754h-1.42V68.73h-2.102v3.023h-1.425V64.69h1.425v2.858h2.103V64.69h1.42v7.064zM73.156 71.754h-1.42V68.73h-2.103v3.023H68.21V64.69h1.424v2.858h2.103V64.69h1.42v7.064zM77.232 71.754V69.21h-.746l-1.041 2.543h-1.536l1.25-3.057c-.582-.404-.873-1.012-.873-1.824 0-.698.196-1.237.587-1.615.394-.379.951-.568 1.671-.568h2.117v7.064h-1.429zm-1.516-4.77c0 .392.07.677.208.855.139.174.355.262.65.262h.658v-2.222h-.707c-.54 0-.81.368-.81 1.106z" fill="#221E1F"/><path fill-rule="evenodd" clip-rule="evenodd" d="M22.05 6.623c-8.435 0-15.435 7.076-15.435 16.007 0 8.931 7 16.006 15.434 16.006v6.624C9.782 45.26 0 35.037 0 22.63 0 10.223 9.782 0 22.05 0v6.623z" fill="#221E1F"/><path fill-rule="evenodd" clip-rule="evenodd" d="M30.87 71.753V45.234c12.195-.56 22.05-10.385 22.05-22.604C52.92 10.41 43.064.587 30.87.025V0H24.255v85h6.615v-3.312h6.614v-4.415h-3.307v-2.208h3.307v-3.312H30.87zM46.304 22.63c0 8.4-6.739 15.42-15.434 15.972V6.658c8.695.551 15.434 7.57 15.434 15.972z" fill="#009C93"/></svg>