<svg width="30" height="39" fill="none" xmlns="http://www.w3.org/2000/svg"><mask id="a" fill="#fff"><path fill-rule="evenodd" clip-rule="evenodd" d="M2.75 2.118c-.69 0-1.25.56-1.25 1.25v8.917a.75.75 0 01-1.5 0V3.368A2.75 2.75 0 012.75.618h24.371a2.75 2.75 0 012.75 2.75v32.26a2.75 2.75 0 01-2.75 2.75H2.75A2.75 2.75 0 010 35.627V16.962a.75.75 0 011.5 0v18.664c0 .69.56 1.25 1.25 1.25h24.371c.69 0 1.25-.56 1.25-1.25V3.367c0-.69-.56-1.25-1.25-1.25H2.75zm3.056 4.948h6.7c.471 0 .853-.348.853-.777 0-.43-.382-.777-.852-.777h-6.7c-.472 0-.854.348-.854.777 0 .429.382.777.853.777zm18.365 3.626H5.701c-.413 0-.748-.348-.748-.777 0-.43.335-.777.747-.777h18.471c.413 0 .747.348.747.777 0 .429-.334.777-.747.777zm-18.47 3.626h18.47c.413 0 .747-.348.747-.777 0-.43-.334-.777-.747-.777H5.701c-.413 0-.748.348-.748.777 0 .43.335.777.747.777zm18.47 3.625H5.701c-.413 0-.748-.347-.748-.776 0-.43.335-.778.747-.778h18.471c.413 0 .747.349.747.778 0 .429-.334.776-.747.776zM5.701 21.57h18.47c.413 0 .747-.347.747-.776 0-.43-.334-.778-.747-.778H5.701c-.413 0-.748.348-.748.778 0 .429.335.776.747.776zm14.098 2.61h3.243c.37 0 .67.295.67.66v7.342c0 .364-.3.66-.67.66H6.825a.664.664 0 01-.669-.66v-2.31c0-.363.3-.659.669-.659H9.4v-.702c0-.364.299-.66.669-.66h2.574v-.643c0-.364.3-.66.669-.66h2.575V26.2c0-.364.299-.659.668-.659h2.575v-.703c0-.364.3-.66.669-.66zm-10.4 6.352H7.495v.99H9.4v-.99zm1.338-1.362V31.522h1.906v-2.353h-1.906zm3.243-1.303v3.656h1.907v-3.656H13.98zm3.244-1.006V31.522h1.906V26.86h-1.906zm3.244 4.662h1.905v-6.024h-1.905v6.024z"/></mask><path fill-rule="evenodd" clip-rule="evenodd" d="M2.75 2.118c-.69 0-1.25.56-1.25 1.25v8.917a.75.75 0 01-1.5 0V3.368A2.75 2.75 0 012.75.618h24.371a2.75 2.75 0 012.75 2.75v32.26a2.75 2.75 0 01-2.75 2.75H2.75A2.75 2.75 0 010 35.627V16.962a.75.75 0 011.5 0v18.664c0 .69.56 1.25 1.25 1.25h24.371c.69 0 1.25-.56 1.25-1.25V3.367c0-.69-.56-1.25-1.25-1.25H2.75zm3.056 4.948h6.7c.471 0 .853-.348.853-.777 0-.43-.382-.777-.852-.777h-6.7c-.472 0-.854.348-.854.777 0 .429.382.777.853.777zm18.365 3.626H5.701c-.413 0-.748-.348-.748-.777 0-.43.335-.777.747-.777h18.471c.413 0 .747.348.747.777 0 .429-.334.777-.747.777zm-18.47 3.626h18.47c.413 0 .747-.348.747-.777 0-.43-.334-.777-.747-.777H5.701c-.413 0-.748.348-.748.777 0 .43.335.777.747.777zm18.47 3.625H5.701c-.413 0-.748-.347-.748-.776 0-.43.335-.778.747-.778h18.471c.413 0 .747.349.747.778 0 .429-.334.776-.747.776zM5.701 21.57h18.47c.413 0 .747-.347.747-.776 0-.43-.334-.778-.747-.778H5.701c-.413 0-.748.348-.748.778 0 .429.335.776.747.776zm14.098 2.61h3.243c.37 0 .67.295.67.66v7.342c0 .364-.3.66-.67.66H6.825a.664.664 0 01-.669-.66v-2.31c0-.363.3-.659.669-.659H9.4v-.702c0-.364.299-.66.669-.66h2.574v-.643c0-.364.3-.66.669-.66h2.575V26.2c0-.364.299-.659.668-.659h2.575v-.703c0-.364.3-.66.669-.66zm-10.4 6.352H7.495v.99H9.4v-.99zm1.338-1.362V31.522h1.906v-2.353h-1.906zm3.243-1.303v3.656h1.907v-3.656H13.98zm3.244-1.006V31.522h1.906V26.86h-1.906zm3.244 4.662h1.905v-6.024h-1.905v6.024z" fill="#485055"/><path d="M9.4 29.212v1h1v-1h-1zm3.243-1.361v1h1v-1h-1zm3.244-1.303v1h1v-1h-1zm3.243-1.007v1h1v-1h-1zm-11.636 4.99v-1h-1v1h1zm1.906 0h1v-1h-1v1zm-1.906.99h-1v1h1v-1zm1.906 0v1h1v-1h-1zm1.337-2.352v-1h-1v1h1zm0 2.353h-1v1h1v-1zm1.906 0v1h1v-1h-1zm0-2.353h1v-1h-1v1zm1.337-1.303v-1h-1v1h1zm0 3.656h-1v1h1v-1zm1.907 0v1h1v-1h-1zm0-3.656h1v-1h-1v1zm1.337-1.006v-1h-1v1h1zm0 4.662h-1v1h1v-1zm1.906 0v1h1v-1h-1zm0-4.662h1v-1h-1v1zm3.244 4.662v1h1v-1h-1zm-1.906 0h-1v1h1v-1zm1.905-6.024h1v-1h-1v1zm-1.905 0v-1h-1v1h1zM2.5 3.368a.25.25 0 01.25-.25v-2A2.25 2.25 0 00.5 3.368h2zm0 8.917V3.368h-2v8.917h2zm-1.75 1.75a1.75 1.75 0 001.75-1.75h-2a.25.25 0 01.25-.25v2zM-1 12.285c0 .966.784 1.75 1.75 1.75v-2a.25.25 0 01.25.25h-2zm0-8.917v8.917h2V3.368h-2zm3.75-3.75A3.75 3.75 0 00-1 3.368h2c0-.967.784-1.75 1.75-1.75v-2zm24.371 0H2.75v2h24.371v-2zm3.75 3.75a3.75 3.75 0 00-3.75-3.75v2c.967 0 1.75.783 1.75 1.75h2zm0 32.26V3.367h-2v32.26h2zm-3.75 3.75a3.75 3.75 0 003.75-3.75h-2a1.75 1.75 0 01-1.75 1.75v2zm-24.371 0h24.371v-2H2.75v2zM-1 35.627a3.75 3.75 0 003.75 3.75v-2A1.75 1.75 0 011 35.627h-2zm0-18.665v18.664h2V16.963h-2zm1.75-1.75A1.75 1.75 0 00-1 16.963h2a.25.25 0 01-.25.25v-2zm1.75 1.75a1.75 1.75 0 00-1.75-1.75v2a.25.25 0 01-.25-.25h2zm0 18.664V16.963h-2v18.664h2zm.25.25a.25.25 0 01-.25-.25h-2a2.25 2.25 0 002.25 2.25v-2zm24.371 0H2.75v2h24.371v-2zm.25-.25a.25.25 0 01-.25.25v2a2.25 2.25 0 002.25-2.25h-2zm0-32.26v32.26h2V3.367h-2zm-.25-.25a.25.25 0 01.25.25h2a2.25 2.25 0 00-2.25-2.25v2zm-24.371 0h24.371v-2H2.75v2zm9.757 2.949h-6.7v2h6.7v-2zm-.148.223a.26.26 0 01.077-.19c.032-.029.06-.033.07-.033v2c.934 0 1.853-.71 1.853-1.777h-2zm.148.223c-.012 0-.04-.005-.07-.033a.26.26 0 01-.078-.19h2c0-1.067-.92-1.777-1.852-1.777v2zm-6.7 0h6.7v-2h-6.7v2zm.146-.223a.26.26 0 01-.077.19c-.031.028-.059.033-.07.033v-2c-.933 0-1.853.71-1.853 1.777h2zm-.147-.223c.011 0 .039.004.07.033a.26.26 0 01.077.19h-2c0 1.067.92 1.777 1.853 1.777v-2zM5.7 11.692h18.471v-2H5.701v2zM3.953 9.915c0 .944.746 1.777 1.747 1.777v-2c.176 0 .253.137.253.223h-2zM5.7 8.138c-1.002 0-1.747.833-1.747 1.777h2c0 .085-.076.223-.253.223v-2zm18.471 0H5.701v2h18.47v-2zm1.747 1.777c0-.944-.744-1.777-1.747-1.777v2c-.177 0-.253-.138-.253-.223h2zm-1.747 1.777c1.002 0 1.747-.833 1.747-1.777h-2c0-.086.077-.223.253-.223v2zm0 1.626H5.701v2h18.47v-2zm-.253.223c0-.086.077-.223.253-.223v2c1.002 0 1.747-.833 1.747-1.777h-2zm.253.223c-.177 0-.253-.138-.253-.223h2c0-.943-.744-1.777-1.747-1.777v2zm-18.47 0h18.47v-2H5.701v2zm.252-.223c0 .085-.076.223-.253.223v-2c-1.002 0-1.747.833-1.747 1.777h2zm-.253-.223c.176 0 .253.137.253.223h-2c0 .944.746 1.777 1.747 1.777v-2zm0 5.625h18.471v-2H5.701v2zm-1.747-1.776c0 .944.746 1.776 1.747 1.776v-2c.176 0 .253.138.253.224h-2zM5.7 15.389c-1.002 0-1.747.834-1.747 1.778h2c0 .085-.076.222-.253.222v-2zm18.471 0H5.701v2h18.47v-2zm1.747 1.778c0-.944-.744-1.778-1.747-1.778v2c-.177 0-.253-.137-.253-.222h2zm-1.747 1.776c1.002 0 1.747-.832 1.747-1.776h-2c0-.086.077-.224.253-.224v2zm0 1.626H5.701v2h18.47v-2zm-.253.224c0-.086.077-.224.253-.224v2c1.002 0 1.747-.832 1.747-1.776h-2zm.253.222c-.177 0-.253-.137-.253-.222h2c0-.944-.744-1.778-1.747-1.778v2zm-18.47 0h18.47v-2H5.701v2zm.252-.222c0 .085-.076.222-.253.222v-2c-1.002 0-1.747.834-1.747 1.778h2zm-.253-.224c.176 0 .253.138.253.224h-2c0 .944.746 1.776 1.747 1.776v-2zm17.342 2.61H19.8v2h3.243v-2zm1.67 1.66c0-.93-.761-1.66-1.67-1.66v2a.336.336 0 01-.33-.34h2zm0 7.342v-7.343h-2v7.343h2zm-1.67 1.66c.909 0 1.67-.73 1.67-1.66h-2c0-.201.16-.34.33-.34v2zm-16.217 0h16.217v-2H6.825v2zm-1.669-1.66c0 .93.76 1.66 1.669 1.66v-2c.17 0 .331.14.331.34h-2zm0-2.31v2.31h2v-2.31h-2zm1.669-1.659c-.909 0-1.669.73-1.669 1.66h2c0 .2-.161.34-.331.34v-2zm2.575 0H6.825v2H9.4v-2zm-1 .298v.702h2v-.702h-2zm1.669-1.66c-.91 0-1.67.73-1.67 1.66h2c0 .201-.16.34-.33.34v-2zm2.574 0H10.07v2h2.574v-2zm-1 .357v.643h2v-.643h-2zm1.669-1.66c-.91 0-1.669.731-1.669 1.66h2c0 .2-.161.34-.331.34v-2zm2.575 0h-2.575v2h2.575v-2zm-1 .653v.348h2V26.2h-2zm1.668-1.659c-.908 0-1.668.729-1.668 1.66h2c0 .2-.163.34-.332.34v-2zm2.575 0h-2.575v2h2.575v-2zm-1 .297v.703h2v-.703h-2zm1.669-1.66c-.908 0-1.669.73-1.669 1.66h2c0 .202-.162.34-.331.34v-2zM7.494 31.532H9.4v-2H7.494v2zm1-.01v-.99h-2v.99h2zm.906-1H7.494v2H9.4v-2zm-1 .01v.99h2v-.99h-2zm3.337-.66v-.702h-2v.703h2zm0 1.65v-1.65h-2v1.65h2zm.906-1h-1.906v2h1.906v-2zm-1-1.352v2.353h2v-2.353h-2zm-.906 1h1.906v-2h-1.906v2zm4.243-1.66v-.643h-2v.644h2zm0 3.013V28.51h-2v3.012h2zm.907-1H13.98v2h1.907v-2zm-1-2.656v3.656h2v-3.656h-2zm-.907 1h1.907v-2H13.98v2zm4.244-1.659v-.348h-2v.348h2zm0 4.315v-4.315h-2v4.315h2zm.906-1h-1.906v2h1.906v-2zm-1-3.662v4.662h2V26.86h-2zm-.906 1h1.906v-2h-1.906v2zm5.15 2.662h-1.906v2h1.905v-2zm-1-5.024v6.024h2v-6.024h-2zm-.906 1h1.905v-2h-1.905v2zm1 5.024v-6.024h-2v6.024h2z" fill="#485055" mask="url(#a)"/></svg>