<svg width="79" height="79" fill="none" xmlns="http://www.w3.org/2000/svg"><g opacity=".2" filter="url(#filter0_b)"><circle r="39.5" transform="matrix(-1 0 0 1 39.5 39.5)" fill="#E6E6E6"/></g><path fill-rule="evenodd" clip-rule="evenodd" d="M51.325 21.613c.69 0 1.25.56 1.25 1.25v8.917a.75.75 0 001.5 0v-8.917a2.75 2.75 0 00-2.75-2.75H26.954a2.75 2.75 0 00-2.75 2.75v32.26a2.75 2.75 0 002.75 2.75h24.371a2.75 2.75 0 002.75-2.75V36.457a.75.75 0 00-1.5 0v18.664c0 .69-.56 1.25-1.25 1.25H26.954c-.69 0-1.25-.56-1.25-1.25v-32.26c0-.69.56-1.25 1.25-1.25h24.371zM48.27 26.56h-6.7c-.471 0-.853-.348-.853-.777 0-.43.382-.777.853-.777h6.7c.471 0 .853.348.853.777 0 .429-.382.777-.853.777zm-18.365 3.626h18.471c.413 0 .747-.348.747-.777 0-.43-.334-.777-.747-.777H29.904c-.413 0-.747.348-.747.777 0 .43.334.777.747.777zm18.471 3.626H29.904c-.413 0-.747-.348-.747-.777 0-.43.334-.777.747-.777h18.471c.413 0 .747.348.747.777 0 .43-.334.777-.747.777zm-18.471 3.625h18.471c.413 0 .747-.347.747-.776 0-.43-.334-.777-.747-.777H29.904c-.413 0-.747.348-.747.777 0 .429.334.776.747.776zm18.471 3.627H29.904c-.413 0-.747-.348-.747-.777 0-.43.334-.777.747-.777h18.471c.413 0 .747.348.747.777 0 .429-.334.777-.747.777zm-14.099 2.609h-3.243a.664.664 0 00-.669.66v7.342c0 .365.3.66.669.66H47.25c.37 0 .669-.295.669-.66v-2.31c0-.363-.3-.658-.669-.658h-2.575v-.703c0-.364-.299-.66-.668-.66h-2.575v-.643c0-.364-.3-.66-.669-.66h-2.575v-.347c0-.364-.299-.659-.668-.659h-2.575v-.703c0-.364-.3-.66-.669-.66zm10.4 6.352h1.905v.991h-1.906v-.991zm-1.338-1.362V51.017h-1.906v-2.353h1.906zm-3.243-1.303v3.656h-1.907v-3.656h1.907zm-3.244-1.006V51.017h-1.906v-4.662h1.906zm-3.244 4.662h-1.905v-6.024h1.905v6.024z" fill="#fff"/><defs><filter id="filter0_b" x="-5" y="-5" width="89" height="89" filterUnits="userSpaceOnUse" color-interpolation-filters="sRGB"><feFlood flood-opacity="0" result="BackgroundImageFix"/><feGaussianBlur in="BackgroundImage" stdDeviation="2.5"/><feComposite in2="SourceAlpha" operator="in" result="effect1_backgroundBlur"/><feBlend in="SourceGraphic" in2="effect1_backgroundBlur" result="shape"/></filter></defs></svg>