<svg width="39" height="39" fill="none" xmlns="http://www.w3.org/2000/svg"><path d="M37.08 22.632h-.577v-5.12c0-.81-.409-1.527-1.034-1.963v-.697c0-1.011-.834-1.834-1.86-1.834h-.43l1.647-2.382a1.74 1.74 0 00-.468-2.435L23.184.693A1.785 1.785 0 0021.852.42c-.467.088-.87.349-1.138.735l-9.645 13.954H8.385l.648-6.463a.192.192 0 01.122-.16 4.161 4.161 0 002.036-1.631.194.194 0 01.182-.085l4.21.41a.547.547 0 00.6-.485.543.543 0 00-.493-.592l-4.21-.41a1.29 1.29 0 00-1.216.58c-.351.546-.883.972-1.496 1.2-.462.171-.779.58-.828 1.067l-.658 6.569h-.7L7.606 4.887a.678.678 0 01.744-.602l8.507.829a.547.547 0 00.6-.486.543.543 0 00-.493-.591l-8.506-.829c-.976-.095-1.848.61-1.944 1.572l-.826 8.238H4.283c-1.026 0-1.86.823-1.86 1.834v.475A2.406 2.406 0 001 17.513v18.446c0 1.326 1.094 2.405 2.44 2.405h30.624c1.345 0 2.44-1.079 2.44-2.405V30.84h.576c.68 0 1.233-.546 1.233-1.216v-5.776c0-.67-.553-1.216-1.233-1.216zM33.61 14.1c.42 0 .762.337.762.751v.276a2.483 2.483 0 00-.308-.02h-2.33l.697-1.007h1.179zM21.62 1.764a.677.677 0 01.564-.293c.135 0 .267.04.382.116L33.74 9.095c.31.208.39.626.179.931l-3.512 5.082h-.843l1.722-2.492a1.25 1.25 0 00.06-1.341 2.989 2.989 0 01-.368-1.867 1.259 1.259 0 00-.555-1.215L24.63 4.301a1.3 1.3 0 00-1.35-.065 3.106 3.106 0 01-1.896.346 1.307 1.307 0 00-1.245.545l-6.899 9.98h-.843l9.224-13.343zm.243 9.189c-2.39 0-4.353 1.838-4.512 4.155h-2.782l6.477-9.371a.197.197 0 01.185-.084 4.224 4.224 0 002.58-.47.196.196 0 01.2.013l5.794 3.892a.19.19 0 01.084.18 4.064 4.064 0 00.5 2.538.19.19 0 01-.01.201l-2.143 3.1h-1.861c-.16-2.316-2.122-4.154-4.512-4.154zm3.411 4.155h-6.823c.157-1.72 1.627-3.073 3.412-3.073 1.784 0 3.254 1.353 3.411 3.073zm-21.753-.256c0-.414.341-.751.762-.751H5.58l-.1 1.007H3.52v-.256zm-1.423 2.66c0-.729.602-1.322 1.342-1.322h30.624c.74 0 1.342.593 1.342 1.323v1.501H2.098v-1.501zM35.405 35.96c0 .73-.601 1.323-1.341 1.323H3.44c-.74 0-1.342-.594-1.342-1.323v-1.502h2.96a.545.545 0 00.548-.54.545.545 0 00-.549-.542h-2.96V20.097h33.309v2.535h-5.219a4.173 4.173 0 00-3.745 2.313l-.007.013-.016.036c-.08.168-.15.343-.207.523v.001a4.037 4.037 0 00-.188 1.218c0 2.263 1.867 4.104 4.163 4.104h5.218v2.535H8.572a.545.545 0 00-.549.541c0 .3.246.542.549.542h26.834v1.501zm1.81-6.335a.135.135 0 01-.135.134h-6.893a3.074 3.074 0 01-2.879-1.984 2.968 2.968 0 010-2.076 3.01 3.01 0 01.184-.401 3.074 3.074 0 012.695-1.583h6.893c.075 0 .136.06.136.134v5.776z" fill="#485055" stroke="#485055" stroke-width=".3"/></svg>