<svg width="79" height="79" fill="none" xmlns="http://www.w3.org/2000/svg"><g opacity=".2" filter="url(#filter0_b)"><circle cx="39.5" cy="39.5" r="39.5" fill="#E6E6E6"/></g><mask id="a" fill="#fff"><path fill-rule="evenodd" clip-rule="evenodd" d="M56.875 42.127h.577c.68 0 1.234.545 1.233 1.216v5.776c0 .67-.553 1.216-1.233 1.216h-.577v5.119c0 1.326-1.094 2.405-2.44 2.405H23.813c-1.346 0-2.44-1.079-2.44-2.405V37.008c0-.969.584-1.805 1.423-2.186v-.475c0-1.011.834-1.834 1.86-1.834h1.405l.826-8.238c.096-.961.969-1.666 1.944-1.572l8.507.829c.301.03.521.294.492.591a.547.547 0 01-.6.486l-8.507-.829a.678.678 0 00-.744.602l-1.024 10.22h.7l.658-6.568c.05-.487.366-.896.828-1.067a3.06 3.06 0 001.497-1.2 1.29 1.29 0 011.216-.58l4.21.41c.301.03.521.295.492.592a.547.547 0 01-.6.485l-4.21-.41a.194.194 0 00-.182.085 4.161 4.161 0 01-2.036 1.63.192.192 0 00-.122.161l-.648 6.463h2.684l9.645-13.954a1.768 1.768 0 011.138-.735c.467-.087.94.01 1.332.274l11.174 7.508a1.74 1.74 0 01.468 2.435l-1.647 2.382h.43c1.026 0 1.86.823 1.86 1.834v.697a2.394 2.394 0 011.034 1.964v5.119zm-2.131-7.78a.757.757 0 00-.762-.751h-1.179l-.696 1.007h2.329c.104 0 .207.007.308.02v-.276zm-12.316-13.37a.677.677 0 00-.435.282l-9.224 13.344h.843l6.899-9.98a1.307 1.307 0 011.245-.547c.65.09 1.323-.032 1.896-.345a1.299 1.299 0 011.35.066l5.793 3.891c.405.273.618.738.555 1.215-.085.64.045 1.304.368 1.867.242.423.22.938-.06 1.341l-1.722 2.492h.843l3.512-5.082a.665.665 0 00-.18-.931l-11.173-7.508a.682.682 0 00-.51-.104zm-4.706 13.626c.16-2.318 2.122-4.155 4.513-4.155 2.39 0 4.352 1.837 4.512 4.155h1.86l2.144-3.101a.19.19 0 00.01-.2 4.065 4.065 0 01-.5-2.54.19.19 0 00-.084-.18l-5.793-3.891a.196.196 0 00-.201-.012 4.224 4.224 0 01-2.605.468.197.197 0 00-.16.085l-6.477 9.37h2.781zm1.101 0h6.823c-.157-1.72-1.627-3.073-3.411-3.073-1.785 0-3.255 1.353-3.412 3.073zm-14.168-1.007a.757.757 0 00-.762.75v.257h1.958l.101-1.007h-1.297zm-.843 2.089c-.74 0-1.342.593-1.342 1.323v1.501h33.308v-1.501c0-.73-.602-1.323-1.342-1.323H23.812zm30.624 21.092c.74 0 1.342-.594 1.342-1.323v-1.502H28.944a.545.545 0 01-.549-.54c0-.3.246-.542.549-.542h26.834v-2.535h-5.22c-2.294 0-4.162-1.841-4.162-4.104 0-.424.066-.833.187-1.218v-.001c.058-.18.128-.355.208-.523l.01-.024.006-.012.008-.013a4.173 4.173 0 013.744-2.313h5.219v-2.535H22.47V52.87h2.96c.303 0 .548.242.548.541a.545.545 0 01-.549.541h-2.96v1.502c0 .73.603 1.323 1.343 1.323h30.624zm3.016-7.524c.075 0 .136-.06.136-.134v-5.776a.135.135 0 00-.136-.134h-6.893a3.074 3.074 0 00-2.879 1.984 2.972 2.972 0 00.184 2.477 3.074 3.074 0 002.695 1.583h6.893zM48.46 46.23c0-1.21.999-2.195 2.227-2.195 1.228 0 2.227.985 2.227 2.195 0 1.211-1 2.196-2.227 2.196-1.228 0-2.227-.985-2.227-2.196zm1.098 0c0 .614.506 1.114 1.129 1.114.622 0 1.129-.5 1.129-1.114 0-.613-.507-1.113-1.13-1.113-.622 0-1.128.5-1.128 1.113z"/></mask><path fill-rule="evenodd" clip-rule="evenodd" d="M56.875 42.127h.577c.68 0 1.234.545 1.233 1.216v5.776c0 .67-.553 1.216-1.233 1.216h-.577v5.119c0 1.326-1.094 2.405-2.44 2.405H23.813c-1.346 0-2.44-1.079-2.44-2.405V37.008c0-.969.584-1.805 1.423-2.186v-.475c0-1.011.834-1.834 1.86-1.834h1.405l.826-8.238c.096-.961.969-1.666 1.944-1.572l8.507.829c.301.03.521.294.492.591a.547.547 0 01-.6.486l-8.507-.829a.678.678 0 00-.744.602l-1.024 10.22h.7l.658-6.568c.05-.487.366-.896.828-1.067a3.06 3.06 0 001.497-1.2 1.29 1.29 0 011.216-.58l4.21.41c.301.03.521.295.492.592a.547.547 0 01-.6.485l-4.21-.41a.194.194 0 00-.182.085 4.161 4.161 0 01-2.036 1.63.192.192 0 00-.122.161l-.648 6.463h2.684l9.645-13.954a1.768 1.768 0 011.138-.735c.467-.087.94.01 1.332.274l11.174 7.508a1.74 1.74 0 01.468 2.435l-1.647 2.382h.43c1.026 0 1.86.823 1.86 1.834v.697a2.394 2.394 0 011.034 1.964v5.119zm-2.131-7.78a.757.757 0 00-.762-.751h-1.179l-.696 1.007h2.329c.104 0 .207.007.308.02v-.276zm-12.316-13.37a.677.677 0 00-.435.282l-9.224 13.344h.843l6.899-9.98a1.307 1.307 0 011.245-.547c.65.09 1.323-.032 1.896-.345a1.299 1.299 0 011.35.066l5.793 3.891c.405.273.618.738.555 1.215-.085.64.045 1.304.368 1.867.242.423.22.938-.06 1.341l-1.722 2.492h.843l3.512-5.082a.665.665 0 00-.18-.931l-11.173-7.508a.682.682 0 00-.51-.104zm-4.706 13.626c.16-2.318 2.122-4.155 4.513-4.155 2.39 0 4.352 1.837 4.512 4.155h1.86l2.144-3.101a.19.19 0 00.01-.2 4.065 4.065 0 01-.5-2.54.19.19 0 00-.084-.18l-5.793-3.891a.196.196 0 00-.201-.012 4.224 4.224 0 01-2.605.468.197.197 0 00-.16.085l-6.477 9.37h2.781zm1.101 0h6.823c-.157-1.72-1.627-3.073-3.411-3.073-1.785 0-3.255 1.353-3.412 3.073zm-14.168-1.007a.757.757 0 00-.762.75v.257h1.958l.101-1.007h-1.297zm-.843 2.089c-.74 0-1.342.593-1.342 1.323v1.501h33.308v-1.501c0-.73-.602-1.323-1.342-1.323H23.812zm30.624 21.092c.74 0 1.342-.594 1.342-1.323v-1.502H28.944a.545.545 0 01-.549-.54c0-.3.246-.542.549-.542h26.834v-2.535h-5.22c-2.294 0-4.162-1.841-4.162-4.104 0-.424.066-.833.187-1.218v-.001c.058-.18.128-.355.208-.523l.01-.024.006-.012.008-.013a4.173 4.173 0 013.744-2.313h5.219v-2.535H22.47V52.87h2.96c.303 0 .548.242.548.541a.545.545 0 01-.549.541h-2.96v1.502c0 .73.603 1.323 1.343 1.323h30.624zm3.016-7.524c.075 0 .136-.06.136-.134v-5.776a.135.135 0 00-.136-.134h-6.893a3.074 3.074 0 00-2.879 1.984 2.972 2.972 0 00.184 2.477 3.074 3.074 0 002.695 1.583h6.893zM48.46 46.23c0-1.21.999-2.195 2.227-2.195 1.228 0 2.227.985 2.227 2.195 0 1.211-1 2.196-2.227 2.196-1.228 0-2.227-.985-2.227-2.196zm1.098 0c0 .614.506 1.114 1.129 1.114.622 0 1.129-.5 1.129-1.114 0-.613-.507-1.113-1.13-1.113-.622 0-1.128.5-1.128 1.113z" fill="#fff"/><path d="M56.875 42.127h-1v1h1v-1zm1.81 1.216h-1 1zm-1.81 6.992v-1h-1v1h1zm-34.08-15.513l.413.911.587-.266v-.645h-1zm3.265-2.309v1h.905l.09-.9-.994-.1zm.826-8.238l-.995-.1.995.1zm1.944-1.572l.097-.995-.097.995zm8.507.829l-.098.995.098-.995zm.492.591l-.995-.1.995.1zm-.6.486l-.097.995h.002l.095-.995zm-8.507-.829l-.098.995.098-.995zm-.744.602l-.995-.1.995.1zm-1.024 10.22l-.995-.099-.11 1.1h1.105v-1zm.7 0v1h.905l.09-.9-.995-.1zm.658-6.568l.995.1-.995-.1zm.828-1.067l-.349-.938.349.938zm1.497-1.2l-.84-.541.84.542zm1.216-.58l.097-.995h-.001l-.096.995zm4.21.41l-.097.996.096-.996zm.492.592l-.995-.1.995.1zm-.6.485l-.097.996h.002l.095-.996zm-4.21-.41l-.1.995h.003l.097-.995zm-.182.085l-.84-.543.84.543zm-2.036 1.63l.348.938-.348-.938zm-.122.161l.995.1-.995-.1zm-.648 6.463l-.995-.1-.11 1.1h1.105v-1zm2.684 0v1h.524l.299-.432-.823-.568zm9.645-13.954l.822.569-.822-.569zm1.138-.735l.184.983-.184-.983zm1.332.274l-.558.83.558-.83zm11.174 7.508l.558-.83-.558.83zm.468 2.435l-.823-.569.823.569zm-1.647 2.382l-.822-.568-1.085 1.568h1.907v-1zm2.29 2.53h-1v.523l.428.298.572-.82zm-1.86-1.447v1-1zm-1.178 0v-1h-.524l-.299.431.823.569zm-.696 1.007l-.823-.569-1.084 1.569h1.907v-1zm2.637.02l-.124.992 1.124.14v-1.132h-1zM41.993 21.259l-.823-.569.823.569zm.435-.281l-.183-.984.183.984zM32.77 34.603l-.823-.569-1.084 1.569h1.907v-1zm.842 0v1h.525l.298-.432-.823-.568zm6.899-9.98l-.823-.57.823.57zm1.245-.547l-.137.991.137-.99zm1.896-.345l.478.879-.478-.879zm1.35.066l.558-.83-.558.83zm5.793 3.891l-.558.83.558-.83zm.555 1.215l.991.132-.991-.132zm.368 1.867l.868-.497-.868.497zm-.06 1.341l.822.57-.822-.57zm-1.722 2.492l-.823-.569-1.084 1.569h1.907v-1zm.843 0v1h.524l.298-.432-.822-.568zm3.512-5.082l.823.57v-.001l-.823-.569zm-.18-.931l.559-.83-.558.83zm-11.173-7.508l.557-.83-.557.83zm-5.216 13.52v1h.934l.064-.93-.998-.07zm9.025 0l-.998.07.065.93h.933v-1zm1.86 0v1h.525l.298-.43-.822-.57zm2.144-3.1l.822.569.001-.001-.823-.568zm.01-.2l.869-.497-.868.496zm-.5-2.54l.992.132-.992-.131zm-.084-.18l.558-.829-.558.83zm-5.793-3.891l.557-.83-.557.83zm-.201-.012l.478.878h.001l-.48-.878zm-2.58.47l.137-.991h-.004l-.133.99zm-.185.083l.822.568h.001l-.823-.568zm-6.477 9.37l-.823-.568-1.084 1.569h1.907v-1zm10.705 0v1h1.096l-.1-1.09-.996.09zm-6.823 0l-.996-.09-.1 1.09h1.096v-1zm3.412-3.072v1-1zm-18.342 3.073h-1v1h1v-1zm1.958 0v1h.905l.09-.9-.995-.1zm.101-1.007l.995.1.11-1.1h-1.105v1zm-3.482 4.913h-1v1h1v-1zm33.308 0v1h1v-1h-1zm0 15.444h1v-1h-1v1zm0-1.083v1h1v-1h-1zm0-2.535h1v-1h-1v1zm-9.195-5.322l.954.301.003-.01-.957-.29zm0-.001l-.953-.302-.003.01.957.292zm.208-.523l.903.43v-.001l-.903-.43zm.01-.024l-.91-.413.91.413zm.006-.012l-.892-.452-.005.011.897.441zm.008-.013l-.897-.444-.001.003.898.44zm8.963-2.313v1h1v-1h-1zm0-2.535h1v-1h-1v1zm-33.308 0v-1h-1v1h1zm0 13.278h-1v1h1v-1zm0 1.083v-1h-1v1h1zm25.395-9.161l.875.483-.876-.483zm-.068.13l-.898-.44v.001l.898.439zm-.117.271l-.937-.35v.001l.937.349zm0 2.076l.938-.348-.938.348zm.117.27l-.898.44v.002l.898-.441zm.068.131l.875-.483-.876.483zm9.587-6.543h-.577v2h.577v-2zm2.233 2.216c0-1.236-1.014-2.216-2.233-2.216v2c.141 0 .233.111.233.216h2zm0 5.776v-5.776h-2v5.776h2zm-2.233 2.216c1.219 0 2.233-.98 2.233-2.216h-2a.227.227 0 01-.233.216v2zm-.577 0h.577v-2h-.577v2zm1 4.119v-5.119h-2v5.119h2zm-3.44 3.405c1.885 0 3.44-1.513 3.44-3.405h-2c0 .76-.633 1.405-1.44 1.405v2zm-30.623 0h30.624v-2H23.812v2zm-3.44-3.405c0 1.892 1.555 3.405 3.44 3.405v-2c-.807 0-1.44-.644-1.44-1.405h-2zm0-18.446v18.446h2V37.008h-2zm2.01-3.096a3.406 3.406 0 00-2.01 3.096h2c0-.555.334-1.047.836-1.275l-.826-1.821zm-.587.435v.475h2v-.475h-2zm2.86-2.834c-1.565 0-2.86 1.257-2.86 2.834h2c0-.446.373-.834.86-.834v-2zm1.405 0h-1.405v2h1.405v-2zm-.17-7.338l-.825 8.239 1.99.2.826-8.24-1.99-.198zm3.037-2.467c-1.511-.147-2.883.944-3.036 2.468l1.99.199c.04-.4.412-.72.852-.676l.194-1.991zm8.506.829l-8.506-.829-.194 1.99 8.506.83.194-1.991zm1.39 1.686a1.543 1.543 0 00-1.39-1.686l-.193 1.99a.457.457 0 01-.406-.503l1.99.2zm-1.69 1.381c.834.08 1.604-.52 1.69-1.38l-1.99-.2a.453.453 0 01.49-.41l-.19 1.99zm-8.508-.828l8.507.828.194-1.99-8.507-.829-.194 1.99zm.348-.295a.323.323 0 01-.35.294l.197-1.99a1.678 1.678 0 00-1.837 1.497l1.99.2zM27.95 34.702l1.024-10.22-1.99-.2-1.024 10.221 1.99.2zm-.295-1.1h-.7v2h.7v-2zm-.337-5.668l-.658 6.57 1.99.198.658-6.568-1.99-.2zm1.474-1.905a2.268 2.268 0 00-1.474 1.905l1.99.2a.268.268 0 01.181-.23l-.697-1.875zm1.005-.803a2.06 2.06 0 01-1.005.803l.697 1.875a4.06 4.06 0 001.989-1.594l-1.68-1.084zm2.153-1.034a2.29 2.29 0 00-2.153 1.034l1.68 1.084a.291.291 0 01.28-.127l.193-1.991zm4.21.41l-4.21-.41-.193 1.99 4.21.41.193-1.99zm1.39 1.687a1.543 1.543 0 00-1.39-1.687l-.193 1.99a.457.457 0 01-.406-.503l1.99.2zm-1.69 1.38c.835.08 1.605-.52 1.69-1.38l-1.99-.2a.453.453 0 01.49-.41l-.19 1.99zm-4.21-.41l4.209.41.194-1.99-4.21-.41-.194 1.99zm.754-.368a.806.806 0 01-.757.368l.198-1.99a1.194 1.194 0 00-1.121.537l1.68 1.085zm-2.528 2.026a5.161 5.161 0 002.528-2.026l-1.68-1.084c-.36.558-.91 1-1.544 1.235l.696 1.875zm.525-.677a.808.808 0 01-.525.677l-.696-1.875a1.192 1.192 0 00-.77.999l1.99.199zm-.648 6.463l.648-6.463-1.99-.2-.648 6.463 1.99.2zm1.69-1.1h-2.685v2h2.684v-2zm8.821-13.522L30.62 34.034l1.645 1.137 9.644-13.953-1.645-1.137zm1.777-1.15a2.768 2.768 0 00-1.777 1.15l1.645 1.137a.768.768 0 01.5-.32l-.368-1.967zm2.074.427a2.785 2.785 0 00-2.074-.427l.368 1.966c.21-.039.416.004.59.121l1.116-1.66zm11.174 7.508l-11.174-7.508-1.116 1.66 11.174 7.508 1.116-1.66zm.733 3.834a2.74 2.74 0 00-.733-3.834l-1.116 1.66a.74.74 0 01.203 1.036l1.646 1.138zm-1.647 2.382L56.02 30.7l-1.646-1.138-1.646 2.383 1.645 1.137zm-.392-1.569h-.43v2h.43v-2zm2.86 2.834c0-1.577-1.296-2.834-2.86-2.834v2c.486 0 .86.389.86.834h2zm0 .697v-.697h-2v.697h2zm1.033 1.964a3.393 3.393 0 00-1.461-2.784l-1.145 1.64c.373.26.606.68.606 1.144h2zm0 5.119v-5.12h-2v5.12h2zm-3.893-7.531a.243.243 0 01-.238-.249h2c0-.98-.803-1.751-1.763-1.751v2zm-1.179 0h1.179v-2h-1.179v2zm.127.576l.696-1.008-1.645-1.137-.697 1.007 1.646 1.138zm1.506-1.57h-2.329v2h2.329v-2zm.432.028a3.487 3.487 0 00-.432-.027v2c.058 0 .119.004.184.012l.248-1.985zm-1.124.717v.276h2v-.276h-2zm-10.929-12.52a.323.323 0 01-.203.134l-.368-1.966c-.434.081-.82.328-1.074.695l1.645 1.137zm-9.223 13.344l9.224-13.344-1.646-1.137-9.223 13.344 1.645 1.137zm.02-1.568h-.843v2h.843v-2zm6.076-9.55l-6.898 9.981 1.645 1.137 6.899-9.98-1.646-1.137zm2.205-.967a2.307 2.307 0 00-2.205.968l1.645 1.137a.307.307 0 01.286-.124l.274-1.981zm1.281-.233c-.385.21-.843.293-1.281.233l-.274 1.981c.86.119 1.75-.043 2.511-.457l-.956-1.757zm2.386.113a2.299 2.299 0 00-2.386-.113l.956 1.757a.299.299 0 01.314.017l1.116-1.66zm5.792 3.892l-5.792-3.892-1.116 1.66 5.793 3.892 1.115-1.66zm.99 2.176a2.259 2.259 0 00-.99-2.176l-1.115 1.66a.259.259 0 01.122.253l1.982.263zm.244 1.239a1.988 1.988 0 01-.245-1.238l-1.982-.264c-.114.86.06 1.743.49 2.495l1.737-.993zm-.106 2.407a2.25 2.25 0 00.106-2.407l-1.736.993a.25.25 0 01-.015.277l1.645 1.137zm-1.722 2.491l1.722-2.49-1.645-1.138-1.722 2.491 1.645 1.137zm.02-1.568h-.842v2h.843v-2zm2.69-4.65l-3.512 5.081 1.645 1.137 3.513-5.08-1.646-1.138zm.086.467a.335.335 0 01-.086-.467l1.646 1.137a1.665 1.665 0 00-.444-2.33l-1.116 1.66zM42.38 21.912l11.174 7.508 1.116-1.66-11.175-7.508-1.115 1.66zm.176.054a.318.318 0 01-.176-.053l1.115-1.66a1.682 1.682 0 00-.939-.287v2zm.055-.005a.302.302 0 01-.055.005v-2c-.105 0-.21.01-.31.028l.365 1.967zm-.376 7.487c-2.908 0-5.313 2.237-5.51 5.086l1.995.138c.123-1.786 1.642-3.224 3.515-3.224v-2zm5.51 5.086c-.197-2.85-2.602-5.086-5.51-5.086v2c1.872 0 3.391 1.438 3.514 3.224l1.995-.138zm.863-.931h-1.861v2h1.86v-2zm1.32-2.67l-2.143 3.101 1.645 1.137 2.143-3.1-1.645-1.138zm-.035.864a.81.81 0 01.035-.863l1.646 1.136c.25-.362.29-.854.056-1.265l-1.737.992zm-.623-3.166a5.064 5.064 0 00.624 3.167l1.736-.993a3.064 3.064 0 01-.377-1.91l-1.983-.264zm.348.782a.81.81 0 01-.348-.78l1.983.26a1.19 1.19 0 00-.518-1.14l-1.117 1.66zm-5.792-3.892l5.793 3.892 1.115-1.66-5.793-3.892-1.115 1.66zm.836.035a.804.804 0 01-.835-.035l1.114-1.66a1.196 1.196 0 00-1.238-.06l.96 1.755zm-3.195.583a5.223 5.223 0 003.194-.582l-.956-1.757a3.224 3.224 0 01-1.965.358l-.273 1.98zm.111.008a.821.821 0 01-.107-.007l.265-1.983a1.189 1.189 0 00-.157-.01v2zm.663-.348a.803.803 0 01-.663.348v-2c-.393 0-.761.195-.983.517l1.646 1.135zm-6.478 9.372l6.477-9.37-1.645-1.138-6.477 9.371 1.645 1.137zm1.96-1.568H34.94v2h2.781v-2zm7.923 0h-6.823v2h6.823v-2zm-3.411-1.073c1.274 0 2.306.965 2.415 2.164l1.992-.182c-.205-2.241-2.112-3.982-4.407-3.982v2zm-2.416 2.164c.11-1.2 1.142-2.164 2.416-2.164v-2c-2.296 0-4.203 1.74-4.408 3.982l1.992.182zm-14.926-.347c0 .151-.12.249-.238.249v-2c-.96 0-1.762.771-1.762 1.75h2zm0 .256v-.256h-2v.256h2zm.958-1h-1.958v2h1.958v-2zm-.894-.107l-.1 1.007 1.99.2.1-1.008-1.99-.2zm-.302 1.1h1.297v-2h-1.297v2zm-1.185 2.412c0-.164.14-.323.342-.323v-2c-1.28 0-2.342 1.028-2.342 2.323h2zm0 1.501v-1.501h-2v1.501h2zm32.308-1H22.47v2h33.308v-2zm-1-.501v1.501h2v-1.501h-2zm-.342-.323c.2 0 .342.159.342.323h2c0-1.295-1.063-2.323-2.342-2.323v2zm-30.624 0h30.624v-2H23.812v2zm30.966 18.769c0 .164-.141.323-.342.323v2c1.279 0 2.342-1.028 2.342-2.323h-2zm0-1.502v1.502h2v-1.502h-2zm-25.834 1h26.834v-2H28.944v2zm-1.549-1.54c0 .864.707 1.54 1.549 1.54v-2c.236 0 .451.193.451.46h-2zm1.549-1.542c-.842 0-1.549.677-1.549 1.541h2a.455.455 0 01-.451.46v-2zm26.834 0H28.944v2h26.834v-2zm-1-1.535v2.535h2v-2.535h-2zm-4.22 1h5.22v-2h-5.22v2zm-5.162-5.104c0 2.829 2.329 5.104 5.163 5.104v-2c-1.756 0-3.163-1.407-3.163-3.104h-2zm.234-1.519c-.152.481-.234.991-.234 1.519h2c0-.32.05-.628.14-.917l-1.906-.602zm-.003.009v.001l1.913.582v-.001l-1.913-.582zm.262-.663a5.03 5.03 0 00-.259.652l1.907.603a3.05 3.05 0 01.157-.394l-1.805-.861zm.002-.006l-.005.011-.001.003-.001.002.004-.008 1.806.858a1.437 1.437 0 00.018-.04c.001-.001.001-.001 0 0l-1.821-.826zm.019-.04a1.47 1.47 0 00-.019.04l1.822.826-.008.016-1.795-.882zm.007-.013a.632.632 0 01.013-.025l-.001.002-.003.005a1.368 1.368 0 00-.01.02l1.783.905-.007.013c0 .001-.001.003 0 0l.007-.013.013-.026L45.917 44zm4.642-2.872a5.173 5.173 0 00-4.641 2.87l1.793.886a3.173 3.173 0 012.848-1.756v-2zm5.219 0h-5.219v2h5.219v-2zm-1-1.535v2.535h2v-2.535h-2zm-32.308 1h33.308v-2H22.47v2zm1 12.278V39.592h-2V52.87h2zm1.96-1h-2.96v2h2.96v-2zm1.548 1.541c0-.864-.707-1.54-1.549-1.54v2a.455.455 0 01-.45-.46h2zm-1.549 1.541c.843 0 1.55-.676 1.55-1.54h-2c0-.267.215-.46.45-.46v2zm-2.96 0h2.96v-2h-2.96v2zm1 .502v-1.502h-2v1.502h2zm.343.323a.334.334 0 01-.342-.323h-2c0 1.295 1.063 2.323 2.342 2.323v-2zm30.624 0H23.812v2h30.624v-2zm2.152-6.658c0-.492.4-.866.864-.866v2c.613 0 1.136-.494 1.136-1.134h-2zm0-5.776v5.776h2v-5.776h-2zm.864.866a.865.865 0 01-.864-.866h2c0-.64-.523-1.134-1.136-1.134v2zm-6.893 0h6.893v-2h-6.893v2zm-1.819 1.066a2.074 2.074 0 011.82-1.066v-2c-1.538 0-2.88.848-3.571 2.1l1.751.966zm-.046.088c.015-.03.03-.06.046-.088l-1.751-.966a4.138 4.138 0 00-.09.172l1.795.882zm-.077.18a2.04 2.04 0 01.078-.182l-1.797-.878a4.04 4.04 0 00-.155.36l1.874.7zm-.123.688c0-.243.044-.475.124-.69l-1.875-.697c-.161.434-.249.901-.249 1.387h2zm.123.69a1.97 1.97 0 01-.123-.69h-2c0 .486.088.953.25 1.387l1.873-.698zm.078.18a1.946 1.946 0 01-.077-.18l-1.875.696c.046.124.098.245.156.363l1.796-.88zm.045.086a1.928 1.928 0 01-.046-.088l-1.795.882c.028.057.058.115.09.172l1.751-.966zm1.82 1.066c-.788 0-1.471-.434-1.82-1.066l-1.751.966a4.074 4.074 0 003.57 2.1v-2zm6.892 0h-6.893v2h6.893v-2zm-6.764-5.217c-1.767 0-3.227 1.42-3.227 3.195h2c0-.645.538-1.195 1.227-1.195v-2zm3.227 3.195c0-1.776-1.46-3.195-3.227-3.195v2c.689 0 1.227.55 1.227 1.195h2zm-3.227 3.196c1.767 0 3.227-1.42 3.227-3.196h-2c0 .645-.538 1.196-1.227 1.196v2zM47.46 46.23c0 1.777 1.46 3.196 3.227 3.196v-2c-.69 0-1.227-.55-1.227-1.196h-2zm3.227.114c-.084 0-.13-.065-.13-.114h-2c0 1.18.968 2.114 2.13 2.114v-2zm.129-.114c0 .049-.045.114-.13.114v2c1.162 0 2.13-.934 2.13-2.114h-2zm-.13-.113c.085 0 .13.065.13.113h2c0-1.179-.968-2.113-2.13-2.113v2zm-.128.113c0-.048.045-.113.129-.113v-2c-1.162 0-2.13.934-2.13 2.113h2z" fill="#fff" mask="url(#a)"/><defs><filter id="filter0_b" x="-5" y="-5" width="89" height="89" filterUnits="userSpaceOnUse" color-interpolation-filters="sRGB"><feFlood flood-opacity="0" result="BackgroundImageFix"/><feGaussianBlur in="BackgroundImage" stdDeviation="2.5"/><feComposite in2="SourceAlpha" operator="in" result="effect1_backgroundBlur"/><feBlend in="SourceGraphic" in2="effect1_backgroundBlur" result="shape"/></filter></defs></svg>