<svg width="34" height="41" fill="none" xmlns="http://www.w3.org/2000/svg"><mask id="a" fill="#fff"><path fill-rule="evenodd" clip-rule="evenodd" d="M7.663 1.35c-.63 0-1.14.503-1.14 1.124v8.763a.68.68 0 01-.685.674.68.68 0 01-.684-.674V6.125H3.169c-.69 0-1.25.56-1.25 1.25v30.048c0 .69.56 1.25 1.25 1.25h25.046c.69 0 1.25-.56 1.25-1.25v-.992H7.663c-1.386 0-2.51-1.108-2.51-2.474V15.763a.68.68 0 01.685-.674.68.68 0 01.684.674v18.194c0 .62.511 1.124 1.14 1.124h23.829c.63 0 1.14-.503 1.14-1.124V7.646h-5.727a.68.68 0 01-.684-.675V1.35H7.663zm23.302 35.08h.526c1.386 0 2.509-1.107 2.509-2.473V6.98a.67.67 0 00-.201-.488L27.387.197A.69.69 0 0026.904 0H7.663c-1.386 0-2.51 1.107-2.51 2.474v2.151H3.17a2.75 2.75 0 00-2.75 2.75v30.048a2.75 2.75 0 002.75 2.75h25.046a2.75 2.75 0 002.75-2.75v-.992zM27.59 2.3v3.998h4.07l-4.07-3.998zm-7.681 5.474H9.282c-.357 0-.646-.309-.646-.69 0-.381.289-.69.646-.69h10.626c.357 0 .646.309.646.69 0 .381-.29.69-.646.69zm9.494 3.405H9.337a.696.696 0 01-.701-.69c0-.381.313-.69.7-.69h20.066c.387 0 .7.309.7.69 0 .38-.313.69-.7.69zM9.337 14.582h20.065c.387 0 .7-.309.7-.69a.696.696 0 00-.7-.69H9.337a.696.696 0 00-.701.69c0 .381.313.69.7.69zm20.065 3.405H9.337a.696.696 0 01-.701-.69c0-.38.313-.69.7-.69h20.066c.387 0 .7.31.7.69 0 .381-.313.69-.7.69zm-4.433 13.615c2.578 0 4.667-2.06 4.667-4.601 0-2.542-2.09-4.601-4.667-4.601s-4.667 2.06-4.667 4.6c0 2.542 2.09 4.602 4.667 4.602zm0 1.38c3.35 0 6.067-2.678 6.067-5.981 0-3.304-2.716-5.982-6.067-5.982-3.35 0-6.067 2.678-6.067 5.982 0 3.303 2.717 5.981 6.067 5.981zm2.826-7.852a.683.683 0 01.006.976l-2.766 2.76a.705.705 0 01-.993.003l-1.9-1.873a.683.683 0 01-.001-.977.707.707 0 01.99 0l1.403 1.383 2.27-2.266a.707.707 0 01.99-.006z"/></mask><path fill-rule="evenodd" clip-rule="evenodd" d="M7.663 1.35c-.63 0-1.14.503-1.14 1.124v8.763a.68.68 0 01-.685.674.68.68 0 01-.684-.674V6.125H3.169c-.69 0-1.25.56-1.25 1.25v30.048c0 .69.56 1.25 1.25 1.25h25.046c.69 0 1.25-.56 1.25-1.25v-.992H7.663c-1.386 0-2.51-1.108-2.51-2.474V15.763a.68.68 0 01.685-.674.68.68 0 01.684.674v18.194c0 .62.511 1.124 1.14 1.124h23.829c.63 0 1.14-.503 1.14-1.124V7.646h-5.727a.68.68 0 01-.684-.675V1.35H7.663zm23.302 35.08h.526c1.386 0 2.509-1.107 2.509-2.473V6.98a.67.67 0 00-.201-.488L27.387.197A.69.69 0 0026.904 0H7.663c-1.386 0-2.51 1.107-2.51 2.474v2.151H3.17a2.75 2.75 0 00-2.75 2.75v30.048a2.75 2.75 0 002.75 2.75h25.046a2.75 2.75 0 002.75-2.75v-.992zM27.59 2.3v3.998h4.07l-4.07-3.998zm-7.681 5.474H9.282c-.357 0-.646-.309-.646-.69 0-.381.289-.69.646-.69h10.626c.357 0 .646.309.646.69 0 .381-.29.69-.646.69zm9.494 3.405H9.337a.696.696 0 01-.701-.69c0-.381.313-.69.7-.69h20.066c.387 0 .7.309.7.69 0 .38-.313.69-.7.69zM9.337 14.582h20.065c.387 0 .7-.309.7-.69a.696.696 0 00-.7-.69H9.337a.696.696 0 00-.701.69c0 .381.313.69.7.69zm20.065 3.405H9.337a.696.696 0 01-.701-.69c0-.38.313-.69.7-.69h20.066c.387 0 .7.31.7.69 0 .381-.313.69-.7.69zm-4.433 13.615c2.578 0 4.667-2.06 4.667-4.601 0-2.542-2.09-4.601-4.667-4.601s-4.667 2.06-4.667 4.6c0 2.542 2.09 4.602 4.667 4.602zm0 1.38c3.35 0 6.067-2.678 6.067-5.981 0-3.304-2.716-5.982-6.067-5.982-3.35 0-6.067 2.678-6.067 5.982 0 3.303 2.717 5.981 6.067 5.981zm2.826-7.852a.683.683 0 01.006.976l-2.766 2.76a.705.705 0 01-.993.003l-1.9-1.873a.683.683 0 01-.001-.977.707.707 0 01.99 0l1.403 1.383 2.27-2.266a.707.707 0 01.99-.006z" fill="#485055"/><path d="M5.154 6.125h1.5v-1.5h-1.5v1.5zm-1.985 0v-1.5 1.5zm-1.25 1.25h1.5-1.5zm0 30.048h-1.5 1.5zm1.25 1.25v-1.5 1.5zm25.046 0v1.5-1.5zm1.25-2.242h1.5v-1.5h-1.5v1.5zm3.167-28.785h1.5v-1.5h-1.5v1.5zM26.22 1.349h1.5v-1.5h-1.5v1.5zm4.745 35.082v-1.5h-1.5v1.5h1.5zM34 6.98l-1.5-.021v.02H34zm-.201-.488l1.05-1.07-1.05 1.07zM27.387.197l-1.05 1.07 1.05-1.07zM26.904 0h-1.5v1.5h1.5V0zm0 0h1.5v-1.5h-1.5V0zM5.154 4.625v1.5h1.5v-1.5h-1.5zm-1.985 0v-1.5 1.5zm-2.75 2.75h1.5-1.5zm0 30.048h1.5-1.5zm2.75 2.75v-1.5 1.5zm25.046 0v1.5-1.5zM27.59 6.297h-1.5v1.5h1.5v-1.5zm0-3.998l1.05-1.07-2.55-2.506V2.3h1.5zm4.07 3.998v1.5h3.668l-2.617-2.57-1.05 1.07zm-3.858 19.809l-1.06-1.062 1.06 1.062zm-.006-.976l-1.047 1.074 1.047-1.074zm-2.76 3.736l-1.06-1.061 1.06 1.061zm-.495.205l.004 1.5-.005-1.5zm-.498-.202l-1.053 1.069 1.053-1.069zm-1.9-1.873l1.052-1.069-1.053 1.069zm.989-.977l1.053-1.068-1.053 1.068zm1.403 1.383l-1.053 1.069 1.06 1.044 1.053-1.051-1.06-1.062zm2.27-2.266l1.06 1.061-1.06-1.061zM8.023 2.474a.368.368 0 01-.36.375v-3c-1.437 0-2.64 1.155-2.64 2.625h3zm0 8.763V2.474h-3v8.763h3zM5.838 13.41a2.18 2.18 0 002.184-2.174h-3a.82.82 0 01.816-.826v3zm-2.184-2.174a2.18 2.18 0 002.184 2.174v-3c.43 0 .816.35.816.826h-3zm0-5.112v5.112h3V6.125h-3zm-.485 1.5h1.985v-3H3.169v3zm.25-.25a.25.25 0 01-.25.25v-3a2.75 2.75 0 00-2.75 2.75h3zm0 30.048V7.375h-3v30.048h3zm-.25-.25a.25.25 0 01.25.25h-3a2.75 2.75 0 002.75 2.75v-3zm25.046 0H3.17v3h25.046v-3zm-.25.25a.25.25 0 01.25-.25v3a2.75 2.75 0 002.75-2.75h-3zm0-.992v.992h3v-.992h-3zm-20.302 1.5h21.802v-3H7.663v3zm-4.01-3.974c0 2.214 1.816 3.974 4.01 3.974v-3a.992.992 0 01-1.01-.974h-3zm0-18.194v18.194h3V15.763h-3zm2.185-2.174a2.18 2.18 0 00-2.184 2.174h3a.82.82 0 01-.816.826v-3zm2.184 2.174a2.18 2.18 0 00-2.184-2.174v3a.82.82 0 01-.816-.826h3zm0 18.194V15.763h-3v18.194h3zm-.36-.376c.18 0 .36.148.36.376h-3c0 1.47 1.203 2.624 2.64 2.624v-3zm23.829 0H7.663v3H31.49v-3zm-.36.376c0-.228.182-.376.36-.376v3c1.438 0 2.64-1.155 2.64-2.624h-3zm0-26.311v26.31h3V7.647h-3zm-4.227 1.5h5.728v-3h-5.728v3zM24.72 6.971a2.18 2.18 0 002.184 2.175v-3c.43 0 .816.35.816.825h-3zm0-5.622v5.622h3V1.35h-3zM7.663 2.85H26.22v-3H7.663v3zM31.49 34.93h-.526v3h.526v-3zm1.009-.973a.992.992 0 01-1.009.974v3c2.194 0 4.009-1.76 4.009-3.974h-3zm0-26.976v26.976h3V6.98h-3zm.248.583a.83.83 0 01-.248-.604l3 .042a2.17 2.17 0 00-.65-1.579l-2.102 2.14zm-6.412-6.297l6.412 6.297 2.102-2.14-6.412-6.297-2.102 2.14zm.568.233a.811.811 0 01-.568-.233l2.102-2.14a2.19 2.19 0 00-1.534-.627v3zm-1.5-1.5h3-3zM7.663 1.5h19.241v-3H7.663v3zm-1.01.974a.992.992 0 011.01-.974v-3c-2.194 0-4.01 1.76-4.01 3.974h3zm0 2.151V2.474h-3v2.151h3zm-3.484 1.5h1.985v-3H3.169v3zm-1.25 1.25c0-.69.56-1.25 1.25-1.25v-3a4.25 4.25 0 00-4.25 4.25h3zm0 30.048V7.375h-3v30.048h3zm1.25 1.25c-.69 0-1.25-.56-1.25-1.25h-3a4.25 4.25 0 004.25 4.25v-3zm25.046 0H3.17v3h25.046v-3zm1.25-1.25c0 .69-.56 1.25-1.25 1.25v3a4.25 4.25 0 004.25-4.25h-3zm0-.992v.992h3v-.992h-3zM29.09 6.297V2.299h-3v3.998h3zm2.57-1.5h-4.07v3h4.07v-3zm-5.121-1.428l4.07 3.998 2.102-2.14-4.07-3.998-2.102 2.14zM9.282 9.273h10.626v-3H9.282v3zm-2.146-2.19c0 1.115.869 2.19 2.146 2.19v-3c.563 0 .854.458.854.81h-3zm2.146-2.19c-1.277 0-2.146 1.075-2.146 2.19h3c0 .352-.29.81-.854.81v-3zm10.626 0H9.282v3h10.626v-3zm2.146 2.19c0-1.115-.87-2.19-2.146-2.19v3a.832.832 0 01-.854-.81h3zm-2.146 2.19c1.276 0 2.146-1.075 2.146-2.19h-3c0-.353.29-.81.854-.81v3zM9.337 12.678h20.065v-3H9.337v3zm-2.201-2.19a2.196 2.196 0 002.2 2.19v-3c.42 0 .8.34.8.81h-3zm2.2-2.19a2.196 2.196 0 00-2.2 2.19h3c0 .469-.38.81-.8.81v-3zm20.066 0H9.337v3h20.065v-3zm2.2 2.19a2.196 2.196 0 00-2.2-2.19v3a.805.805 0 01-.8-.81h3zm-2.2 2.19a2.196 2.196 0 002.2-2.19h-3c0-.47.38-.81.8-.81v3zm0 .404H9.337v3h20.065v-3zm-.8.81c0-.469.38-.81.8-.81v3a2.196 2.196 0 002.2-2.19h-3zm.8.81a.805.805 0 01-.8-.81h3a2.195 2.195 0 00-2.2-2.19v3zm-20.065 0h20.065v-3H9.337v3zm.799-.81c0 .47-.38.81-.8.81v-3a2.195 2.195 0 00-2.2 2.19h3zm-.8-.81c.42 0 .8.341.8.81h-3a2.196 2.196 0 002.2 2.19v-3zm0 6.405h20.066v-3H9.337v3zm-2.2-2.19a2.196 2.196 0 002.2 2.19v-3c.42 0 .8.341.8.81h-3zm2.2-2.19a2.196 2.196 0 00-2.2 2.19h3c0 .47-.38.81-.8.81v-3zm20.066 0H9.337v3h20.065v-3zm2.2 2.19a2.196 2.196 0 00-2.2-2.19v3a.805.805 0 01-.8-.81h3zm-2.2 2.19a2.196 2.196 0 002.2-2.19h-3c0-.469.38-.81.8-.81v3zm-1.266 7.514c0 1.692-1.398 3.1-3.167 3.1v3c3.386 0 6.167-2.71 6.167-6.1h-3zM24.97 23.9c1.77 0 3.167 1.408 3.167 3.1h3c0-3.389-2.781-6.1-6.167-6.1v3zM21.802 27c0-1.692 1.398-3.1 3.167-3.1v-3c-3.385 0-6.167 2.711-6.167 6.1h3zm3.167 3.102c-1.769 0-3.167-1.409-3.167-3.101h-3c0 3.39 2.782 6.1 6.167 6.1v-3zM29.536 27c0 2.455-2.024 4.481-4.567 4.481v3c4.16 0 7.567-3.33 7.567-7.481h-3zm-4.567-4.482c2.543 0 4.567 2.027 4.567 4.482h3c0-4.152-3.408-7.482-7.567-7.482v3zm-4.567 4.482c0-2.455 2.025-4.482 4.567-4.482v-3c-4.159 0-7.567 3.33-7.567 7.482h3zm4.567 4.481c-2.542 0-4.567-2.026-4.567-4.481h-3c0 4.151 3.408 7.481 7.567 7.481v-3zm3.891-4.315a2.183 2.183 0 00-.019-3.112l-2.093 2.15a.817.817 0 01-.007-1.161l2.12 2.123zm-2.765 2.76l2.765-2.76-2.119-2.123-2.765 2.76 2.119 2.124zm-1.55.644a2.205 2.205 0 001.55-.643l-2.12-2.123a.795.795 0 01.56-.234l.01 3zm-1.556-.633c.416.41.976.635 1.555.633l-.01-3c.207 0 .41.08.561.23l-2.106 2.137zm-1.9-1.874l1.9 1.874 2.106-2.137-1.901-1.874-2.106 2.137zm-.001-3.113a2.183 2.183 0 000 3.113l2.106-2.137a.817.817 0 010 1.16l-2.106-2.136zm3.096 0a2.207 2.207 0 00-3.096 0l2.106 2.136a.793.793 0 01-1.116 0l2.106-2.136zm1.403 1.383l-1.403-1.383-2.106 2.137 1.403 1.383 2.106-2.137zm.158-2.26l-2.27 2.267 2.119 2.123 2.27-2.267-2.119-2.123zm3.096-.02a2.207 2.207 0 00-3.096.02l2.12 2.123a.793.793 0 01-1.117.007l2.093-2.15z" fill="#485055" mask="url(#a)"/></svg>