<svg width="79" height="79" fill="none" xmlns="http://www.w3.org/2000/svg"><g opacity=".2" filter="url(#filter0_b)"><circle r="39.5" transform="matrix(-1 0 0 1 39.5 39.5)" fill="#E6E6E6"/></g><mask id="a" fill="#fff"><path fill-rule="evenodd" clip-rule="evenodd" d="M48.221 20.304h-17.77v5.431c0 .36-.294.652-.656.652H24.31v25.421c0 .6.49 1.086 1.093 1.086H48.22a1.09 1.09 0 001.092-1.086V34.23c0-.36.294-.652.655-.652.362 0 .656.292.656.652v17.578c0 1.32-1.076 2.39-2.403 2.39H27.374v.892c0 .69.56 1.25 1.25 1.25H52.44c.69 0 1.25-.56 1.25-1.25V26.194c0-.69-.56-1.25-1.25-1.25h-1.816v4.913c0 .36-.294.651-.656.651a.654.654 0 01-.655-.651V21.39c0-.6-.489-1.086-1.092-1.086zm2.403 3.14V21.39c0-1.32-1.076-2.39-2.403-2.39H29.795a.657.657 0 00-.462.19l-6.14 6.084a.65.65 0 00-.193.461v26.073c0 1.32 1.076 2.39 2.403 2.39h.471v.892a2.75 2.75 0 002.75 2.75H52.44a2.75 2.75 0 002.75-2.75V26.194a2.75 2.75 0 00-2.75-2.75h-1.816zM29.14 21.22v3.863h-3.898l3.898-3.863zm7.355 5.29H46.67c.343 0 .62-.3.62-.668 0-.368-.277-.666-.62-.666H36.495c-.341 0-.619.298-.619.666 0 .369.278.667.62.667zM27.404 29.8h19.214a.669.669 0 00.672-.667c0-.368-.3-.667-.672-.667H27.404a.669.669 0 00-.672.667c0 .368.3.667.672.667zm19.214 3.289H27.404a.669.669 0 01-.672-.667c0-.368.3-.667.672-.667h19.214c.371 0 .672.299.672.667 0 .368-.3.667-.672.667zm-19.214 3.29h19.214a.669.669 0 00.672-.667c0-.368-.3-.667-.672-.667H27.404a.669.669 0 00-.672.667c0 .368.3.667.672.667zm4.244 13.154c-2.468 0-4.469-1.99-4.469-4.446 0-2.455 2.001-4.445 4.47-4.445 2.468 0 4.468 1.99 4.468 4.445s-2 4.446-4.469 4.446zm0 1.333c-3.208 0-5.81-2.587-5.81-5.779 0-3.191 2.602-5.779 5.81-5.779 3.21 0 5.81 2.588 5.81 5.78 0 3.19-2.6 5.778-5.81 5.778zm-2.705-7.587a.664.664 0 00-.006.943l2.649 2.668a.672.672 0 00.95.003l1.821-1.81a.664.664 0 000-.944.673.673 0 00-.948 0l-1.343 1.336-2.175-2.19a.673.673 0 00-.948-.005z"/></mask><path d="M30.45 20.304h-1.5v-1.5h1.5v1.5zm-6.14 6.083h-1.5v-1.5h1.5v1.5zm3.064 27.811h-1.5v-1.5h1.5v1.5zm1.25 2.142v1.5-1.5zm23.816 0v-1.5 1.5zm1.25-1.25h1.5-1.5zm0-28.896h-1.5 1.5zm-1.25-1.25v-1.5 1.5zm-1.816 0h-1.5v-1.5h1.5v1.5zm0-1.5v1.5h-1.5v-1.5h1.5zM29.795 19v-1.5V19zm-.462.19l-1.056-1.066 1.056 1.066zm-6.14 6.084l1.056 1.065-1.056-1.065zm-.193.461h1.5v1.5H23v-1.5zm0 0h-1.5v-1.5H23v1.5zm2.874 28.463v-1.5h1.5v1.5h-1.5zm2.75 3.642v1.5-1.5zm23.816 0v-1.5 1.5zm2.75-2.75h1.5-1.5zm0-28.896h-1.5 1.5zm-2.75-2.75v-1.5 1.5zm-23.3 1.64h1.5v1.5h-1.5v-1.5zm0-3.863l-1.056-1.065 2.556-2.533v3.598h-1.5zm-3.898 3.863v1.5h-3.645l2.589-2.566 1.056 1.066zm3.695 19.138l-1.064 1.057 1.064-1.057zm2.649 2.668l-1.065 1.057 1.065-1.057zm.474.198l-.004 1.5.004-1.5zm.476-.195l1.058 1.063-1.058-1.063zm1.821-1.81L33.3 44.018l1.057 1.063zm0-.944l1.058-1.063-1.058 1.063zm-.948 0l1.058 1.064-1.058-1.064zm-1.343 1.336l1.057 1.064-1.064 1.058L31 46.532l1.064-1.057zm-2.175-2.19l-1.064 1.057 1.064-1.057zm.56-24.481h17.77v3h-17.77v-3zm-1.5 6.931v-5.431h3v5.431h-3zm.844-.848a.846.846 0 00-.845.848h3a2.154 2.154 0 01-2.155 2.152v-3zm-5.485 0h5.485v3H24.31v-3zm-1.5 26.921v-25.42h3v25.42h-3zm2.593 2.586a2.59 2.59 0 01-2.592-2.586h3a.41.41 0 00-.408-.414v3zm22.818 0H25.403v-3H48.22v3zm2.592-2.586a2.59 2.59 0 01-2.592 2.586v-3a.41.41 0 00-.408.414h3zm0-17.578v17.578h-3V34.23h3zm-.845.848a.846.846 0 00.845-.848h-3c0-1.196.973-2.152 2.155-2.152v3zm-.844-.848c0 .476.386.848.844.848v-3c1.183 0 2.156.956 2.156 2.152h-3zm0 17.578V34.23h3v17.578h-3zm-.903.89a.896.896 0 00.903-.89h3a3.896 3.896 0 01-3.903 3.89v-3zm-20.847 0h20.847v3H27.374v-3zm-1.5 2.392v-.892h3v.892h-3zm2.75 2.75a2.75 2.75 0 01-2.75-2.75h3a.25.25 0 00-.25-.25v3zm23.816 0H28.624v-3H52.44v3zm2.75-2.75a2.75 2.75 0 01-2.75 2.75v-3a.25.25 0 00-.25.25h3zm0-28.896V55.09h-3V26.194h3zm-2.75-2.75a2.75 2.75 0 012.75 2.75h-3c0 .138.112.25.25.25v-3zm-1.816 0h1.816v3h-1.816v-3zm-1.5 6.413v-4.913h3v4.913h-3zm.844-.849a.846.846 0 00-.844.849h3a2.154 2.154 0 01-2.156 2.151v-3zm.845.849a.846.846 0 00-.845-.849v3a2.154 2.154 0 01-2.155-2.151h3zm0-8.467v8.467h-3V21.39h3zm-2.592-2.586a2.59 2.59 0 012.592 2.586h-3c0 .236.19.414.408.414v-3zm3.903 2.586v2.054h-3V21.39h3zM48.22 17.5a3.896 3.896 0 013.903 3.89h-3a.896.896 0 00-.903-.89v-3zm-18.426 0h18.426v3H29.795v-3zm0 0v3-3zm-1.518.625a2.157 2.157 0 011.517-.625l.002 3c.215 0 .43-.084.593-.244l-2.112-2.131zm-6.14 6.083l6.14-6.083 2.111 2.13-6.14 6.084-2.11-2.13zm-.637 1.527c0-.563.222-1.115.637-1.527l2.112 2.131a.85.85 0 00.251-.603h-3zm1.5-1.5v3-3zm-1.5 27.573V25.735h3v26.073h-3zm3.903 3.89a3.896 3.896 0 01-3.903-3.89h3c0 .484.397.89.903.89v3zm.471 0h-.471v-3h.471v3zm-1.5-.608v-.892h3v.892h-3zm4.25 4.25a4.25 4.25 0 01-4.25-4.25h3c0 .69.56 1.25 1.25 1.25v3zm23.816 0H28.624v-3H52.44v3zm4.25-4.25a4.25 4.25 0 01-4.25 4.25v-3c.69 0 1.25-.56 1.25-1.25h3zm0-28.896V55.09h-3V26.194h3zm-4.25-4.25a4.25 4.25 0 014.25 4.25h-3c0-.69-.56-1.25-1.25-1.25v-3zm-1.816 0h1.816v3h-1.816v-3zm-22.984 3.14V21.22h3v3.863h-3zm-2.398-1.5h3.898v3h-3.898v-3zm4.954-1.297l-3.898 3.862-2.112-2.13 3.898-3.863 2.112 2.13zM46.67 28.01H36.495v-3H46.67v3zm2.12-2.167c0 1.09-.845 2.167-2.12 2.167v-3c-.59 0-.88.48-.88.833h3zm-2.12-2.166c1.275 0 2.12 1.078 2.12 2.166h-3c0 .353.29.834.88.834v-3zm-10.175 0H46.67v3H36.495v-3zm-2.119 2.166c0-1.089.846-2.166 2.12-2.166v3c.59 0 .88-.48.88-.834h-3zm2.12 2.167c-1.274 0-2.12-1.077-2.12-2.167h3a.858.858 0 00-.88-.833v3zm10.122 3.29H27.404v-3h19.214v3zm2.172-2.167a2.169 2.169 0 01-2.172 2.167v-3a.831.831 0 00-.828.833h3zm-2.172-2.167c1.19 0 2.172.96 2.172 2.167h-3c0 .47.38.833.828.833v-3zm-19.214 0h19.214v3H27.404v-3zm-2.172 2.167c0-1.206.982-2.167 2.172-2.167v3a.831.831 0 00.828-.833h-3zm2.172 2.167c-1.19 0-2.172-.96-2.172-2.167h3c0-.47-.38-.833-.828-.833v3zm0 .289h19.214v3H27.404v-3zm.828.833c0-.47-.38-.833-.828-.833v3c-1.19 0-2.172-.96-2.172-2.167h3zm-.828.833a.831.831 0 00.828-.833h-3c0-1.206.982-2.167 2.172-2.167v3zm19.214 0H27.404v-3h19.214v3zm-.828-.833c0 .47.38.833.828.833v-3c1.19 0 2.172.961 2.172 2.167h-3zm.828-.833a.831.831 0 00-.828.833h3a2.169 2.169 0 01-2.172 2.167v-3zm0 6.29H27.404v-3h19.214v3zm2.172-2.167a2.169 2.169 0 01-2.172 2.167v-3a.831.831 0 00-.828.833h3zm-2.172-2.167c1.19 0 2.172.96 2.172 2.167h-3c0 .47.38.833.828.833v-3zm-19.214 0h19.214v3H27.404v-3zm-2.172 2.167c0-1.206.982-2.167 2.172-2.167v3a.831.831 0 00.828-.833h-3zm2.172 2.167c-1.19 0-2.172-.961-2.172-2.167h3c0-.47-.38-.833-.828-.833v3zm1.275 7.208a2.957 2.957 0 002.97 2.946v3c-3.29 0-5.97-2.655-5.97-5.946h3zm2.97-2.945a2.957 2.957 0 00-2.97 2.945h-3c0-3.29 2.68-5.945 5.97-5.945v3zm2.968 2.945a2.957 2.957 0 00-2.969-2.945v-3c3.29 0 5.97 2.654 5.97 5.945h-3zm-2.969 2.946a2.957 2.957 0 002.97-2.946h3c0 3.291-2.68 5.946-5.97 5.946v-3zm-4.31-2.946c0 2.356 1.923 4.28 4.31 4.28v3c-4.03 0-7.31-3.252-7.31-7.28h3zm4.31-4.279c-2.387 0-4.31 1.923-4.31 4.28h-3c0-4.028 3.28-7.28 7.31-7.28v3zm4.31 4.28c0-2.357-1.922-4.28-4.31-4.28v-3c4.03 0 7.31 3.252 7.31 7.28h-3zm-4.31 4.278c2.388 0 4.31-1.923 4.31-4.279h3c0 4.028-3.28 7.28-7.31 7.28v-3zm-3.775-4.087a2.164 2.164 0 01.019-3.07l2.102 2.14a.836.836 0 00.008-1.183l-2.13 2.113zm2.648 2.668l-2.648-2.668 2.129-2.113 2.648 2.667-2.129 2.114zm1.535.641a2.172 2.172 0 01-1.535-.641l2.129-2.114a.828.828 0 00-.585-.245l-.01 3zm1.538-.632c-.41.407-.963.634-1.538.632l.01-3a.828.828 0 00-.587.241l2.115 2.127zm1.82-1.81l-1.82 1.81-2.115-2.127 1.82-1.81 2.116 2.127zm.001-3.07c.852.847.851 2.223 0 3.07L33.3 44.019a.836.836 0 000 1.184l2.115-2.127zm-3.063 0a2.173 2.173 0 013.063 0L33.3 45.203a.827.827 0 001.168 0l-2.115-2.128zm-1.344 1.336l1.344-1.337 2.115 2.128-1.344 1.336-2.115-2.127zm-.052-2.184l2.174 2.19-2.129 2.114-2.174-2.19 2.129-2.114zm-3.064-.019a2.173 2.173 0 013.064.02l-2.13 2.113a.827.827 0 001.168.008l-2.102-2.14z" fill="#fff" mask="url(#a)"/><defs><filter id="filter0_b" x="-5" y="-5" width="89" height="89" filterUnits="userSpaceOnUse" color-interpolation-filters="sRGB"><feFlood flood-opacity="0" result="BackgroundImageFix"/><feGaussianBlur in="BackgroundImage" stdDeviation="2.5"/><feComposite in2="SourceAlpha" operator="in" result="effect1_backgroundBlur"/><feBlend in="SourceGraphic" in2="effect1_backgroundBlur" result="shape"/></filter></defs></svg>