<svg width="22" height="22" fill="none" xmlns="http://www.w3.org/2000/svg"><path fill-rule="evenodd" clip-rule="evenodd" d="M21.685 10.525c0 5.8-4.701 10.5-10.5 10.5s-10.5-4.7-10.5-10.5c0-5.799 4.701-10.5 10.5-10.5s10.5 4.701 10.5 10.5zm-15.764-.71l9.276-4.237a.292.292 0 01.246.002l-6.99 6.114.56 3.565.773-2.985 5.657-6.694a.28.28 0 01.162.27l-.482 8.052a.458.458 0 01-.64.378l-3.686-1.575-1.736 2.662-.03.058-.05.074-.637-3.842-2.413-1.031a.45.45 0 01-.272-.403.449.449 0 01.262-.408z" fill="#485055"/></svg>