<svg width="43" height="48" viewBox="0 0 43 48" fill="none" xmlns="http://www.w3.org/2000/svg">
<path d="M40.5366 8.05875C37.2486 4.77684 31.9265 4.77646 28.6382 8.05875C28.4629 8.23372 28.3644 8.47111 28.3644 8.71859C28.3644 8.96606 28.4629 9.20346 28.6382 9.37842L29.2508 9.98992C26.4335 9.5616 23.1152 9.33158 19.6307 9.33158C19.0306 9.33158 18.4245 9.34119 17.8198 9.35528L15.7612 3.18991C15.1233 1.28197 13.3413 0 11.3269 0H0.934796C0.418508 0 0 0.417775 0 0.933158C0 1.44854 0.418508 1.86632 0.934796 1.86632H11.3269C12.5356 1.86632 13.6049 2.6357 13.9876 3.78041L15.872 9.42406C12.3405 9.60098 9.12071 10.0272 6.70249 10.6436C3.45033 11.4724 1.8695 12.5695 1.8695 13.9973C1.8695 17.2171 3.08062 19.7832 5.4693 21.6243C7.32992 23.0583 9.52847 23.7263 11.0453 24.0343C11.4153 24.1093 11.6959 24.4061 11.7602 24.7897L12.1781 27.2912C12.615 29.9133 14.3699 32.0571 16.8262 33.0305V41.2418C16.8262 41.5083 16.714 41.7769 16.5258 41.9604C16.4199 42.0637 16.2419 42.1855 16.0018 42.18C14.7323 42.1521 13.5323 42.6221 12.6249 43.5073C11.7174 44.3926 11.2175 45.5778 11.2175 46.8446C11.2175 47.36 11.6361 47.7778 12.1523 47.7778H27.1091C27.6253 47.7778 28.0439 47.36 28.0439 46.8446C28.0439 45.5779 27.544 44.3927 26.6364 43.5073C25.7291 42.6222 24.5314 42.15 23.2591 42.18C23.0223 42.1843 22.8414 42.0637 22.7354 41.9604C22.5473 41.7769 22.435 41.5084 22.435 41.2418V33.0305C24.8914 32.0571 26.6463 29.9133 27.0833 27.2916L27.4861 24.8798C27.5517 24.4875 27.8734 24.1855 28.2865 24.1283C32.2575 23.5773 35.4776 21.4189 36.7935 17.5194L39.2145 19.9362C39.5795 20.3003 40.1715 20.3006 40.5366 19.9362C43.8375 16.6409 43.8047 11.3231 40.5366 8.05875ZM33.6526 7.53236V11.7445L30.6678 8.76506C31.545 8.10746 32.5664 7.68652 33.6526 7.53236ZM19.6307 11.1979C24.1586 11.1979 28.3771 11.5932 31.5093 12.3109C31.5148 12.3121 31.5202 12.3126 31.5257 12.3138L31.5952 12.3301L34.1505 14.881C31.8455 15.8481 27.0135 16.7378 20.3035 16.7939L18.4383 11.2076C18.8369 11.2013 19.2353 11.1979 19.6307 11.1979ZM3.7432 13.9975C3.83659 13.7711 4.67903 13.0469 7.48472 12.3729C9.86677 11.8007 13.0415 11.4107 16.4863 11.2638L18.33 16.7856C14.5668 16.721 11.0385 16.377 8.28173 15.8003C4.86038 15.0848 3.84855 14.2572 3.7432 13.9975ZM28.0295 22.2796C26.8027 22.4494 25.8432 23.3708 25.642 24.5725L25.2391 26.985C24.8818 29.129 23.3476 30.8481 21.2352 31.4718C20.838 31.589 20.5655 31.9532 20.5655 32.3666V41.2418C20.5655 42.0117 20.8803 42.7602 21.4291 43.2954C21.9418 43.7954 22.6059 44.0612 23.3026 44.0457C24.0622 44.0267 24.7854 44.3109 25.3299 44.842C25.6429 45.1472 25.875 45.5121 26.0158 45.9113H13.2456C13.3865 45.512 13.6186 45.1472 13.9315 44.842C14.476 44.3109 15.1945 44.0276 15.9585 44.0456C16.653 44.0632 17.3195 43.7954 17.8323 43.2953C18.3811 42.7601 18.6958 42.0116 18.6958 41.2418V32.3665C18.6958 31.953 18.4232 31.5889 18.0261 31.4717C15.9138 30.8482 14.3796 29.1289 14.0222 26.9846L13.6043 24.4823C13.4111 23.3295 12.5528 22.4357 11.4178 22.2055C9.00535 21.7157 5.21812 20.3352 4.07627 16.4651C4.95825 16.8723 6.10739 17.2321 7.52987 17.5477C10.7708 18.2667 15.0654 18.6628 19.623 18.6632C19.6256 18.6632 19.628 18.6634 19.6305 18.6634C19.633 18.6634 19.6354 18.6632 19.6378 18.6632C26.3801 18.6626 32.2127 17.8224 35.1614 16.475C33.9972 20.587 30.693 21.91 28.0295 22.2796ZM35.5222 11.9686V7.5318C36.7735 7.70938 37.9377 8.24333 38.8955 9.08243L35.5222 11.9686ZM40.1126 10.4991C40.7513 11.5042 41.1052 12.6711 41.1282 13.8728L36.8004 13.333L40.1126 10.4991ZM39.8277 17.9088L37.1748 15.2605L40.8978 15.7249C40.6813 16.5105 40.3176 17.2538 39.8277 17.9088Z" fill="#009C93"/>
<path d="M20.3939 29.2494C20.2605 28.7984 19.7867 28.5409 19.3356 28.6746C19.0124 28.7703 18.6707 28.7704 18.3482 28.6747C17.7859 28.5078 17.3559 28.1085 17.1685 27.5793C17.0114 27.1359 16.5248 26.9039 16.0813 27.0608C15.6379 27.2178 15.4057 27.7046 15.5628 28.148C15.9287 29.1812 16.7886 29.9886 17.8637 30.3079C18.5033 30.4973 19.1795 30.4973 19.8192 30.3079C20.2702 30.1743 20.5274 29.7004 20.3939 29.2494Z" fill="#009C93"/>
</svg>
