<svg width="44" height="47" viewBox="0 0 44 47" fill="none" xmlns="http://www.w3.org/2000/svg">
<path d="M10.0703 11.5352C9.56494 11.5352 9.15479 11.9453 9.15479 12.4507C9.15479 12.9561 9.56494 13.3662 10.0703 13.3662C10.5757 13.3662 10.9858 12.9561 10.9858 12.4507C10.9858 11.9453 10.5757 11.5352 10.0703 11.5352Z" fill="#009C93"/>
<path d="M18.3096 28.6546H15.5632V25.9082C15.5632 25.4026 15.1532 24.9927 14.6477 24.9927C14.1421 24.9927 13.7322 25.4026 13.7322 25.9082V28.6546H10.9858C10.4803 28.6546 10.0703 29.0646 10.0703 29.57C10.0703 30.0755 10.4803 30.4856 10.9858 30.4856H13.7322V33.232C13.7322 33.7375 14.1422 34.1475 14.6477 34.1475C15.1531 34.1475 15.5632 33.7375 15.5632 33.232V30.4856H18.3096C18.8151 30.4856 19.2251 30.0756 19.2251 29.57C19.2251 29.0645 18.8152 28.6546 18.3096 28.6546Z" fill="#009C93"/>
<path d="M43.0185 29.4785C40.9947 25.9733 36.52 24.7737 33.0141 26.7979L29.2955 28.9448V20.9948C29.2955 20.0119 28.9704 19.0366 28.38 18.2484L23.8027 12.1454V9.54656C24.8682 9.16863 25.6336 8.15111 25.6336 6.95754V2.7464C25.6334 1.23202 24.4014 0 22.8871 0H6.40841C4.89404 0 3.66192 1.23202 3.66192 2.7464V6.95763C3.66192 8.15102 4.42739 9.16872 5.49288 9.54665V12.1455L0.91516 18.2488C0.325012 19.0367 0 20.0119 0 20.9948V38.7248C0 41.2488 2.05343 43.3022 4.57736 43.3022H19.29C21.3427 46.743 25.7689 47.8946 29.2385 45.8912L40.338 39.4828C43.8129 37.4761 45.0524 33.0028 43.0185 29.4785ZM5.49288 2.7464C5.49288 2.24157 5.90359 1.83087 6.40832 1.83087H22.887C23.3918 1.83087 23.8025 2.24157 23.8025 2.7464V6.95763C23.8025 7.46245 23.3918 7.87307 22.887 7.87307H6.40841C5.90359 7.87307 5.49297 7.46236 5.49297 6.95763V2.7464H5.49288ZM2.38037 19.3468L7.14074 12.9998C7.25957 12.8414 7.32384 12.6486 7.32384 12.4505V9.70412H21.9715V11.5351H13.7322C13.2267 11.5351 12.8167 11.9451 12.8167 12.4506C12.8167 12.9562 13.2267 13.3661 13.7322 13.3661H22.4293L26.9147 19.3465C27.2079 19.7379 27.39 20.2062 27.445 20.69H1.85046C1.90539 20.2061 2.08749 19.7378 2.38037 19.3468ZM4.57745 41.4712C3.06308 41.4712 1.83105 40.2392 1.83105 38.7248V37.8002H18.4639C18.1736 38.9872 18.1755 40.255 18.5079 41.4713H4.57745V41.4712ZM19.1819 35.9783H1.83096V22.5208H27.4644V30.0018L21.9146 33.2063C20.7574 33.8747 19.8221 34.8262 19.1819 35.9783ZM28.3232 44.3055C25.6959 45.8226 22.3387 44.9254 20.8205 42.2963C19.2952 39.6418 20.2196 36.2998 22.8303 34.7918L27.7995 31.9227L33.2924 41.4364L28.3232 44.3055ZM39.4225 37.8972L34.8781 40.521L29.3851 31.0071L33.9296 28.3836C36.5586 26.8658 39.9146 27.7646 41.4328 30.3938C42.9576 33.0362 42.0303 36.3912 39.4225 37.8972Z" fill="#009C93"/>
</svg>
