<svg width="50" height="40" viewBox="0 0 50 40" fill="none" xmlns="http://www.w3.org/2000/svg">
<path fill-rule="evenodd" clip-rule="evenodd" d="M41.2205 29.2214H17.9707L16.9299 28.162V13.0373C17.3687 13.3265 17.8793 13.4824 18.402 13.4868C18.9915 13.4834 19.5647 13.2889 20.0383 12.9316C20.3805 12.6829 20.84 12.6829 21.1822 12.9316C22.1514 13.6731 23.4856 13.6731 24.4548 12.9316C24.797 12.6829 25.2565 12.6829 25.5987 12.9316C26.6365 13.7224 28.0771 13.6629 29.0487 12.7892C29.3012 12.5747 29.443 12.2541 29.4336 11.9193C29.1731 5.29507 23.386 0 16.1938 0C8.28316 0 3.18214 5.29432 2.95248 11.9178C2.94429 12.2532 3.08645 12.5742 3.33893 12.79C3.84286 13.2345 4.48592 13.4815 5.15262 13.4868C5.74213 13.4834 6.31526 13.2889 6.78893 12.9316C7.13111 12.6829 7.59061 12.6829 7.93279 12.9316C8.90202 13.6731 10.2362 13.6731 11.2054 12.9316C11.5476 12.6829 12.0071 12.6829 12.3493 12.9316C13.2589 13.6333 14.5041 13.6756 15.4577 13.0373V26.6664L10.0895 21.202C9.80206 20.9095 9.33612 20.9095 9.04869 21.202L6.84045 23.4498C6.5531 23.7424 6.5531 24.2167 6.84045 24.5093L15.6734 33.5005C15.8119 33.64 15.999 33.7178 16.1938 33.717H41.2205C41.627 33.717 41.9566 33.3815 41.9566 32.9678V29.9707C41.9566 29.5569 41.627 29.2214 41.2205 29.2214ZM14.7555 11.72C14.5334 11.8906 14.2637 11.9845 13.9856 11.9883C13.7074 11.9843 13.4378 11.8903 13.2156 11.72C12.3569 11.0893 11.1978 11.0893 10.339 11.72C9.88607 12.0783 9.25212 12.0783 8.79916 11.72C7.94043 11.0893 6.78129 11.0893 5.92256 11.72C5.70045 11.8906 5.43077 11.9845 5.15262 11.9883C4.89545 11.9854 4.645 11.9042 4.43347 11.7553C4.75146 5.70492 9.55658 1.49853 16.1938 1.49853C22.4814 1.49853 27.603 5.98665 27.9519 11.7575C27.7407 11.9051 27.4911 11.9854 27.235 11.9883C26.9568 11.9843 26.6872 11.8903 26.465 11.72C25.6063 11.0892 24.4472 11.0892 23.5884 11.72C23.1355 12.0783 22.5015 12.0783 22.0486 11.72C21.1898 11.0892 20.0307 11.0892 19.172 11.72C18.719 12.0783 18.0851 12.0783 17.6321 11.72C16.7734 11.0892 15.6142 11.0892 14.7555 11.72ZM40.4844 32.2185H16.4985L8.40167 23.9766L9.56909 22.7882L15.6727 29.0011L17.1448 30.4997C17.2829 30.6406 17.4704 30.72 17.666 30.72H40.4844V32.2185ZM43.4286 34.4662H15.0263L4.93688 24.196C4.65441 23.8984 4.18847 23.8901 3.89606 24.1777C3.60366 24.4652 3.59556 24.9395 3.87803 25.2371C3.88392 25.2434 3.88999 25.2495 3.89606 25.2555L7.44102 28.864L3.31235 34.4662H0.736079C0.329579 34.4662 0 34.8017 0 35.2155C0 35.6293 0.329579 35.9648 0.736079 35.9648H4.51363H4.974H5.48563H5.92944H6.0366L4.38845 38.5909C4.16826 38.9417 4.27126 39.4092 4.61851 39.635C4.96576 39.8608 5.42576 39.7594 5.64595 39.4086L7.80731 35.9648H15.4577H15.7239H16.1381H16.4487H16.9298H37.1462H37.6401H38.142H38.5169L40.6781 39.4087C40.8983 39.7595 41.3583 39.8609 41.7055 39.6351C42.0528 39.4093 42.1558 38.9418 41.9356 38.591L40.2876 35.9648H43.4286C43.8351 35.9648 44.1647 35.6293 44.1647 35.2155C44.1647 34.8017 43.8351 34.4662 43.4286 34.4662ZM5.15255 34.4662L8.49214 29.9339L12.9447 34.4662H5.15255ZM41.7002 5.83333C41.7002 5.37312 42.0668 5 42.5189 5C42.971 5 43.3375 5.37312 43.3375 5.83333V7.31415C43.3375 7.77436 42.971 8.14748 42.5189 8.14748C42.0668 8.14748 41.7002 7.77436 41.7002 7.31415V5.83333ZM39.4965 8.2456L38.4666 7.19727C38.1414 6.87758 37.6231 6.88675 37.309 7.21779C37.0026 7.5407 37.0026 8.05268 37.309 8.3756L38.3389 9.42392C38.6641 9.74371 39.1823 9.73455 39.4965 9.40351C39.8029 9.08049 39.8029 8.56851 39.4965 8.2456ZM38.7855 12.4998C38.7878 10.4038 40.4563 8.70542 42.5154 8.70312C44.5753 8.70312 46.2452 10.4029 46.2452 12.4998C46.2452 14.5966 44.5753 16.2964 42.5154 16.2964C40.4554 16.2964 38.7855 14.5966 38.7855 12.4998ZM40.4229 12.4998C40.4229 13.6761 41.3597 14.6298 42.5154 14.6298C43.671 14.6298 44.6078 13.6761 44.6078 12.4998C44.6078 11.3234 43.671 10.3698 42.5154 10.3698C41.3602 10.3711 40.4242 11.3239 40.4229 12.4998ZM35.9693 11.6667H37.4241C37.8762 11.6667 38.2427 12.0399 38.2427 12.5001C38.2427 12.9603 37.8762 13.3334 37.4241 13.3334H35.9693C35.5172 13.3334 35.1507 12.9603 35.1507 12.5001C35.1507 12.0399 35.5172 11.6667 35.9693 11.6667ZM47.7289 7.19686C47.4092 6.87155 46.891 6.87155 46.5713 7.19686L45.5414 8.24519C45.2162 8.56498 45.2072 9.09248 45.5214 9.42352C45.8355 9.75456 46.3538 9.76373 46.679 9.44394C46.6858 9.43727 46.6925 9.43039 46.699 9.42352L47.7289 8.37519C48.0485 8.04978 48.0485 7.52228 47.7289 7.19686ZM47.6123 11.6667H49.067C49.5191 11.6667 49.8857 12.0399 49.8857 12.5001C49.8857 12.9603 49.5191 13.3334 49.067 13.3334H47.6123C47.1601 13.3334 46.7936 12.9603 46.7936 12.5001C46.7936 12.0399 47.1601 11.6667 47.6123 11.6667ZM47.7277 16.6248L46.6978 15.5765C46.3781 15.2512 45.8599 15.2512 45.5402 15.5765C45.2207 15.9019 45.2207 16.4294 45.5402 16.7548L46.5701 17.8032C46.8953 18.1229 47.4135 18.1138 47.7277 17.7827C48.0341 17.4597 48.0341 16.9477 47.7277 16.6248ZM41.7002 17.6859C41.7002 17.2257 42.0668 16.8525 42.5189 16.8525C42.971 16.8525 43.3375 17.2257 43.3375 17.6859V19.1667C43.3375 19.6269 42.971 20 42.5189 20C42.0668 20 41.7002 19.6269 41.7002 19.1667V17.6859ZM39.4775 15.5767C39.1603 15.2648 38.6573 15.2648 38.34 15.5767L37.3101 16.625C36.9849 16.9448 36.9759 17.4723 37.2901 17.8033C37.6042 18.1344 38.1224 18.1435 38.4476 17.8237C38.4545 17.8171 38.4612 17.8102 38.4677 17.8033L39.4976 16.755C39.8116 16.424 39.8027 15.8964 39.4775 15.5767Z" fill="#009C93"/>
</svg>
