<svg width="56" height="35" viewBox="0 0 56 35" fill="none" xmlns="http://www.w3.org/2000/svg">
<path d="M43.9011 11.885C45.0765 11.885 46.0327 10.9262 46.0327 9.74755C46.0327 8.56888 45.0765 7.61011 43.9011 7.61011C42.7245 7.61011 41.7666 8.56888 41.7666 9.74755C41.7666 10.9262 42.7245 11.885 43.9011 11.885ZM43.9011 9.25255C44.1724 9.25255 44.3925 9.47459 44.3925 9.74755C44.3925 10.0162 44.1677 10.243 43.9011 10.243C43.6286 10.243 43.4068 10.0205 43.4068 9.74755C43.4068 9.47459 43.629 9.25255 43.9011 9.25255Z" fill="#009C93"/>
<path d="M43.9011 14.3655C42.7245 14.3655 41.7666 15.3247 41.7666 16.5033C41.7666 17.682 42.7245 18.6408 43.9011 18.6408C45.0765 18.6408 46.0327 17.682 46.0327 16.5033C46.0327 15.3247 45.0765 14.3655 43.9011 14.3655ZM43.9011 16.9983C43.6286 16.9983 43.4068 16.7763 43.4068 16.5033C43.4068 16.2304 43.6286 16.0079 43.9011 16.0079C44.1677 16.0079 44.3925 16.2347 44.3925 16.5033C44.3929 16.7763 44.1724 16.9983 43.9011 16.9983Z" fill="#009C93"/>
<path d="M42.6597 13.1248C42.6597 11.9465 41.7022 10.9873 40.5252 10.9873C39.3481 10.9873 38.3906 11.9461 38.3906 13.1248C38.3906 14.3034 39.3481 15.2626 40.5252 15.2626C41.7022 15.2626 42.6597 14.3034 42.6597 13.1248ZM40.5252 13.6202C40.2526 13.6202 40.0308 13.3981 40.0308 13.1248C40.0308 12.8518 40.2526 12.6298 40.5252 12.6298C40.7977 12.6298 41.0199 12.8518 41.0199 13.1248C41.0199 13.3981 40.7977 13.6202 40.5252 13.6202Z" fill="#009C93"/>
<path d="M47.2746 10.9873C46.0975 10.9873 45.1396 11.9461 45.1396 13.1248C45.1396 14.3034 46.0975 15.2626 47.2746 15.2626C48.4517 15.2626 49.4091 14.3034 49.4091 13.1248C49.4091 11.9465 48.4517 10.9873 47.2746 10.9873ZM47.2746 13.6202C47.002 13.6202 46.7799 13.3981 46.7799 13.1248C46.7799 12.8518 47.002 12.6298 47.2746 12.6298C47.5472 12.6298 47.7689 12.8518 47.7689 13.1248C47.7689 13.3981 47.5472 13.6202 47.2746 13.6202Z" fill="#009C93"/>
<path d="M20.3521 16.2688C18.2094 16.2688 16.4658 18.0143 16.4658 20.1603C16.4658 22.3063 18.2094 24.0519 20.3521 24.0519C22.4951 24.0519 24.2383 22.3059 24.2383 20.1603C24.2383 18.0143 22.4951 16.2688 20.3521 16.2688ZM20.3521 22.4099C19.1135 22.4099 18.106 21.4006 18.106 20.1603C18.106 18.9201 19.1135 17.9112 20.3521 17.9112C21.5906 17.9112 22.5985 18.9201 22.5985 20.1603C22.5985 21.4006 21.5906 22.4099 20.3521 22.4099Z" fill="#009C93"/>
<path d="M55.6241 25.7293L51.6742 9.40159C51.106 7.05322 49.9776 5.26318 48.3203 4.08108C47.9785 3.83722 47.6158 3.62202 47.236 3.43634V3.10006C47.236 1.39088 45.8487 0.000427831 44.1435 0.000427831H42.3051C40.5978 0.000427831 39.2093 1.39088 39.2093 3.10006V3.57453C38.5475 3.93562 38.0249 4.37586 37.7113 4.8623H29.8013C29.3484 4.8623 28.981 5.22981 28.981 5.68331C28.981 6.13681 29.3484 6.50474 29.8013 6.50474H37.411V8.1827C37.411 9.10981 36.659 9.86407 35.7353 9.86407H20.2647C19.3393 9.86407 18.586 9.10981 18.586 8.1827V6.50474H26.0129C26.4658 6.50474 26.8328 6.13681 26.8328 5.68331C26.8328 5.22981 26.4658 4.8623 26.0129 4.8623H18.2857C17.9729 4.37671 17.4517 3.9369 16.7907 3.57581V3.10006C16.7907 1.39088 15.4022 0 13.6949 0H11.8599C10.1526 0 8.76405 1.39088 8.76405 3.10006V3.43591C8.38508 3.62159 8.02363 3.83636 7.68226 4.07937C6.02368 5.26104 4.89447 7.05194 4.3258 9.40159L0.375903 25.7289C-0.20558 28.1312 -0.112013 30.1634 0.653614 31.7694C1.33849 33.2052 2.52624 34.2188 4.08868 34.6997C7.43702 35.7307 11.3574 34.01 12.4785 31.0173L14.3759 25.9565C14.6199 25.3053 14.8134 25.2228 14.8156 25.2219C14.8378 25.2168 14.9865 25.236 15.2685 25.4423C17.9255 27.8582 22.277 27.7538 25.1426 25.2502H30.857C32.1828 26.4092 33.8674 27.0954 35.637 27.1908C37.5691 27.2948 39.3755 26.674 40.7311 25.4423C41.049 25.2095 41.1819 25.2206 41.1831 25.2219C41.1848 25.2228 41.378 25.3049 41.6236 25.9561L43.518 31.0173C44.4187 33.4183 47.1202 35.0004 49.8819 35C50.5638 35 51.2495 34.9037 51.9126 34.6992C53.4746 34.2179 54.6619 33.2044 55.3464 31.7682C56.112 30.1625 56.2056 28.1307 55.6241 25.7293ZM42.3047 1.64244H44.1431C44.8553 1.64244 45.4483 2.15969 45.5714 2.83951C44.8908 2.67394 44.176 2.58667 43.4373 2.5841C43.4258 2.5841 43.4147 2.5841 43.4035 2.5841C42.5153 2.5841 41.6484 2.70646 40.861 2.92209C40.9494 2.20247 41.5625 1.64244 42.3047 1.64244ZM11.8599 1.64244H13.6949C14.4375 1.64244 15.0506 2.20247 15.1386 2.92251C14.3516 2.70689 13.4843 2.5841 12.596 2.5841C12.5866 2.5841 12.5772 2.5841 12.5678 2.5841C11.8274 2.58624 11.1109 2.67352 10.4286 2.83951C10.5521 2.15969 11.146 1.64244 11.8599 1.64244ZM51.4302 33.1295C49.1594 33.8295 45.9495 32.8279 45.054 30.4402L43.1587 25.3777C42.7904 24.4013 42.2936 23.8349 41.6399 23.6449C41.0409 23.4704 40.3936 23.6415 39.716 24.1519C39.6946 24.1682 39.6737 24.1857 39.654 24.2037C37.5438 26.1469 33.9934 25.9813 31.7401 23.8345C31.5876 23.689 31.3851 23.6081 31.1749 23.6081H24.8251C24.6149 23.6081 24.4124 23.689 24.2599 23.8345C22.0049 25.9826 18.4549 26.1486 16.3464 24.2041C16.3263 24.1857 16.3054 24.1682 16.2836 24.1519C15.6051 23.6407 14.957 23.4704 14.3567 23.6454C13.7022 23.8362 13.2061 24.4035 12.8404 25.3794L10.943 30.4402C10.0488 32.8279 6.84101 33.8295 4.57062 33.1304C2.02807 32.347 1.08001 29.7907 1.96954 26.1161L5.91944 9.78877C6.63294 6.84059 8.21717 5.42233 9.79414 4.76261C9.86036 4.74507 9.9236 4.71983 9.98213 4.68689C10.9229 4.32837 11.8488 4.22868 12.5725 4.22654C13.797 4.22483 14.8532 4.48795 15.6244 4.82508C15.6376 4.83107 15.6508 4.83749 15.6649 4.84305C16.3661 5.15579 16.8228 5.52843 16.9454 5.81294V8.1827C16.9454 10.0151 18.4344 11.5061 20.2643 11.5061H35.7349C37.5631 11.5061 39.0508 10.0151 39.0508 8.1827V5.81337C39.1721 5.53228 39.619 5.16478 40.3043 4.85417C40.3445 4.83962 40.3833 4.82337 40.4201 4.80326C41.1819 4.47768 42.2102 4.22654 43.4014 4.22654H43.4309C44.1538 4.22911 45.0788 4.32922 46.0183 4.68774C46.076 4.71983 46.1384 4.74465 46.2037 4.76219C47.7811 5.42147 49.3662 6.83973 50.0797 9.78835L54.0296 26.1161C54.9196 29.7899 53.9719 32.3462 51.4302 33.1295Z" fill="#009C93"/>
<path d="M36.2905 16.2688C34.1475 16.2688 32.4043 18.0143 32.4043 20.1603C32.4043 22.3063 34.1475 24.0519 36.2905 24.0519C38.4332 24.0519 40.1768 22.3059 40.1768 20.1603C40.1768 18.0143 38.4332 16.2688 36.2905 16.2688ZM36.2905 22.4099C35.0519 22.4099 34.0445 21.4006 34.0445 20.1603C34.0445 18.9201 35.0519 17.9112 36.2905 17.9112C37.5291 17.9112 38.5366 18.9201 38.5366 20.1603C38.5366 21.4006 37.5291 22.4099 36.2905 22.4099Z" fill="#009C93"/>
<path d="M14.6835 10.9847H14.434V10.7348C14.434 9.34566 13.3052 8.21533 11.9179 8.21533C10.5306 8.21533 9.40186 9.34566 9.40186 10.7348V10.9847H9.15235C7.76508 10.9847 6.63672 12.115 6.63672 13.5042C6.63672 14.8934 7.76508 16.0237 9.15235 16.0237H9.40186V16.2735C9.40186 17.6627 10.5306 18.793 11.9179 18.793C13.3052 18.793 14.434 17.6627 14.434 16.2735V16.0237H14.6835C16.0708 16.0237 17.1996 14.8934 17.1996 13.5042C17.1996 12.115 16.0708 10.9847 14.6835 10.9847ZM14.6835 14.3812H13.6141C13.1612 14.3812 12.7938 14.7487 12.7938 15.2022V16.2735C12.7938 16.757 12.4011 17.1506 11.9179 17.1506C11.4351 17.1506 11.0425 16.757 11.0425 16.2735V15.2022C11.0425 14.7487 10.6751 14.3812 10.2222 14.3812H9.15278C8.66999 14.3812 8.27692 13.9876 8.27692 13.5042C8.27692 13.0207 8.66999 12.6271 9.15278 12.6271H10.2222C10.6751 12.6271 11.0425 12.2592 11.0425 11.8057V10.7348C11.0425 10.251 11.4351 9.85778 11.9179 9.85778C12.4011 9.85778 12.7938 10.251 12.7938 10.7348V11.8057C12.7938 12.2592 13.1612 12.6271 13.6141 12.6271H14.6835C15.1663 12.6271 15.5593 13.0207 15.5593 13.5042C15.5593 13.9876 15.1667 14.3812 14.6835 14.3812Z" fill="#009C93"/>
<path d="M25.8485 14.0237H24.6578C24.2049 14.0237 23.8379 14.3916 23.8379 14.8451C23.8379 15.2986 24.2049 15.6661 24.6578 15.6661H25.8485C26.3014 15.6661 26.6684 15.2986 26.6684 14.8451C26.6684 14.3916 26.3014 14.0237 25.8485 14.0237Z" fill="#009C93"/>
<path d="M31.3432 14.0237H30.1494C29.6965 14.0237 29.3291 14.3916 29.3291 14.8451C29.3291 15.2986 29.6965 15.6661 30.1494 15.6661H31.3432C31.796 15.6661 32.163 15.2986 32.163 14.8451C32.163 14.3916 31.796 14.0237 31.3432 14.0237Z" fill="#009C93"/>
<path d="M28.912 18.3269H27.7217C27.2688 18.3269 26.9014 18.6944 26.9014 19.1479C26.9014 19.6014 27.2688 19.9694 27.7217 19.9694H28.912C29.3653 19.9694 29.7323 19.6014 29.7323 19.1479C29.7323 18.6944 29.3653 18.3269 28.912 18.3269Z" fill="#009C93"/>
</svg>
