<svg width="19" height="19" viewBox="0 0 19 19" fill="none" xmlns="http://www.w3.org/2000/svg">
<path fill-rule="evenodd" clip-rule="evenodd" d="M16.4993 9.5C16.4993 13.6705 13.2256 17 9.24967 17C5.27375 17 2 13.6705 2 9.5C2 5.32948 5.27375 2 9.24967 2C11.6117 2 13.7259 3.17507 15.0531 5.00347L10.4645 10.8437L6.73682 6.6189C6.55413 6.41184 6.23816 6.39208 6.0311 6.57478C5.82403 6.75748 5.80428 7.07344 5.98697 7.28051L10.1118 11.9555C10.21 12.0668 10.3526 12.1287 10.501 12.1245C10.6494 12.1203 10.7882 12.0503 10.8799 11.9336L15.6154 5.9063C16.1784 6.97083 16.4993 8.19419 16.4993 9.5ZM16.2834 5.05609C17.0546 6.34913 17.4993 7.87105 17.4993 9.5C17.4993 14.1944 13.8058 18 9.24967 18C4.6935 18 1 14.1944 1 9.5C1 4.80558 4.6935 1 9.24967 1C11.8561 1 14.1802 2.24542 15.692 4.19019L17.1058 2.3908C17.2764 2.17366 17.5907 2.13594 17.8079 2.30654C18.025 2.47714 18.0627 2.79147 17.8921 3.00861L16.2834 5.05609Z" fill="#009C93"/>
<path d="M15.0531 5.00347L15.4462 5.31237C15.5843 5.13663 15.589 4.89061 15.4577 4.70975L15.0531 5.00347ZM10.4645 10.8437L10.0895 11.1745C10.1877 11.2858 10.3303 11.3478 10.4787 11.3435C10.6271 11.3393 10.7659 11.2694 10.8576 11.1526L10.4645 10.8437ZM6.73682 6.6189L7.11175 6.2881H7.11175L6.73682 6.6189ZM5.98697 7.28051L5.61205 7.61131V7.61131L5.98697 7.28051ZM10.1118 11.9555L10.4867 11.6247L10.4867 11.6247L10.1118 11.9555ZM10.8799 11.9336L10.4867 11.6247L10.4867 11.6247L10.8799 11.9336ZM15.6154 5.9063L16.0574 5.67256C15.9783 5.52293 15.8289 5.42349 15.6603 5.40832C15.4917 5.39315 15.3269 5.4643 15.2223 5.5974L15.6154 5.9063ZM16.2834 5.05609L15.8903 4.74719C15.7625 4.90988 15.748 5.1345 15.854 5.3122L16.2834 5.05609ZM15.692 4.19019L15.2973 4.49706C15.3917 4.61856 15.5369 4.68979 15.6907 4.69019C15.8446 4.69059 15.9901 4.6201 16.0852 4.49909L15.692 4.19019ZM17.1058 2.3908L17.499 2.69971L17.499 2.69971L17.1058 2.3908ZM17.8079 2.30654L18.1168 1.91338L18.1168 1.91338L17.8079 2.30654ZM17.8921 3.00861L17.4989 2.69971V2.69971L17.8921 3.00861ZM9.24967 17.5C13.5151 17.5 16.9993 13.9331 16.9993 9.5H15.9993C15.9993 13.408 12.936 16.5 9.24967 16.5V17.5ZM1.5 9.5C1.5 13.9331 4.9842 17.5 9.24967 17.5V16.5C5.56331 16.5 2.5 13.408 2.5 9.5H1.5ZM9.24967 1.5C4.9842 1.5 1.5 5.06694 1.5 9.5H2.5C2.5 5.59201 5.56331 2.5 9.24967 2.5V1.5ZM15.4577 4.70975C14.0427 2.76045 11.7822 1.5 9.24967 1.5V2.5C11.4411 2.5 13.409 3.58969 14.6484 5.29718L15.4577 4.70975ZM10.8576 11.1526L15.4462 5.31237L14.6599 4.69456L10.0713 10.5348L10.8576 11.1526ZM6.3619 6.94971L10.0895 11.1745L10.8394 10.5129L7.11175 6.2881L6.3619 6.94971ZM6.3619 6.94971L6.3619 6.94971L7.11175 6.2881C6.74635 5.87397 6.11442 5.83446 5.70029 6.19986L6.3619 6.94971ZM6.3619 6.94971V6.94971L5.70029 6.19986C5.28616 6.56525 5.24665 7.19718 5.61205 7.61131L6.3619 6.94971ZM10.4867 11.6247L6.3619 6.94971L5.61205 7.61131L9.73688 12.2863L10.4867 11.6247ZM10.4867 11.6247L10.4867 11.6247L9.73688 12.2863C9.9333 12.5089 10.2185 12.6328 10.5152 12.6243L10.4867 11.6247ZM10.4867 11.6247L10.4867 11.6247L10.5152 12.6243C10.812 12.6158 11.0897 12.476 11.2731 12.2425L10.4867 11.6247ZM15.2223 5.5974L10.4867 11.6247L11.2731 12.2425L16.0086 6.21521L15.2223 5.5974ZM16.9993 9.5C16.9993 8.11143 16.6579 6.80797 16.0574 5.67256L15.1734 6.14005C15.6989 7.13369 15.9993 8.27694 15.9993 9.5H16.9993ZM17.9993 9.5C17.9993 7.77909 17.5293 6.16891 16.7129 4.79998L15.854 5.3122C16.5799 6.52935 16.9993 7.96301 16.9993 9.5H17.9993ZM9.24967 18.5C14.096 18.5 17.9993 14.4564 17.9993 9.5H16.9993C16.9993 13.9325 13.5157 17.5 9.24967 17.5V18.5ZM0.5 9.5C0.5 14.4564 4.40338 18.5 9.24967 18.5V17.5C4.98363 17.5 1.5 13.9325 1.5 9.5H0.5ZM9.24967 0.5C4.40338 0.5 0.5 4.54363 0.5 9.5H1.5C1.5 5.06753 4.98363 1.5 9.24967 1.5V0.5ZM16.0868 3.88332C14.4864 1.82466 12.0203 0.5 9.24967 0.5V1.5C11.6919 1.5 13.874 2.66617 15.2973 4.49706L16.0868 3.88332ZM16.0852 4.49909L17.499 2.69971L16.7126 2.0819L15.2989 3.88129L16.0852 4.49909ZM17.499 2.69971L17.499 2.69971L18.1168 1.91338C17.6825 1.57217 17.0538 1.64762 16.7126 2.0819L17.499 2.69971ZM17.4989 2.69971V2.69971L18.2853 3.31751C18.6265 2.88323 18.551 2.25458 18.1168 1.91338L17.4989 2.69971ZM17.4989 2.69971L15.8903 4.74719L16.6766 5.36499L18.2853 3.31751L17.4989 2.69971Z" fill="#009C93"/>
</svg>
