<svg width="22" height="22" viewBox="0 0 22 22" fill="none" xmlns="http://www.w3.org/2000/svg">
<path fill-rule="evenodd" clip-rule="evenodd" d="M16.6455 1.79496C14.9188 0.641205 12.8887 0.0253906 10.812 0.0253906C8.02724 0.0253906 5.35652 1.13164 3.38739 3.10077C1.41826 5.0699 0.312012 7.74061 0.312012 10.5254C0.312012 12.6021 0.927823 14.6321 2.08158 16.3589C3.23533 18.0856 4.87521 19.4314 6.79384 20.2262C8.71244 21.0209 10.8237 21.2288 12.8605 20.8236C14.8972 20.4185 16.7682 19.4185 18.2366 17.95C19.705 16.4816 20.7051 14.6106 21.1102 12.5738C21.5154 10.5371 21.3075 8.42581 20.5127 6.50722C19.718 4.58859 18.3722 2.94871 16.6455 1.79496ZM13.0778 7.74901H11.9128C11.8388 7.75134 11.766 7.76859 11.6987 7.79964C11.6314 7.83076 11.5711 7.87501 11.5213 7.92991C11.4715 7.98474 11.4333 8.04901 11.4088 8.11899C11.3844 8.18888 11.3743 8.26306 11.379 8.33701V8.84761H13.0435L12.7738 10.5056H11.379V14.9487H9.68024V10.5056H8.54954V8.84761H9.68024V8.00214C9.71114 7.03832 10.0527 6.12095 11.7106 6.06348V6.05684H13.0778V7.74901Z" fill="#485055"/>
</svg>
