<svg width="24" height="24" viewBox="0 0 24 24" fill="none" xmlns="http://www.w3.org/2000/svg">
<path fill-rule="evenodd" clip-rule="evenodd" d="M22 12C22 17.5228 17.5228 22 12 22C6.47715 22 2 17.5228 2 12C2 6.47715 6.47715 2 12 2C17.5228 2 22 6.47715 22 12ZM24 12C24 18.6274 18.6274 24 12 24C5.37258 24 0 18.6274 0 12C0 5.37258 5.37258 0 12 0C18.6274 0 24 5.37258 24 12ZM12.0001 7C12.5524 7 13.0001 7.44772 13.0001 8V11.0002H16.0005C16.5528 11.0002 17.0005 11.4479 17.0005 12.0002C17.0005 12.5525 16.5528 13.0002 16.0005 13.0002H13.0001V16.0005C13.0001 16.5528 12.5524 17.0005 12.0001 17.0005C11.4478 17.0005 11.0001 16.5528 11.0001 16.0005V13.0002H8C7.44772 13.0002 7 12.5525 7 12.0002C7 11.4479 7.44772 11.0002 8 11.0002H11.0001V8C11.0001 7.44772 11.4478 7 12.0001 7Z" fill="#C7CDD0"/>
</svg>
