<svg width="24" height="24" viewBox="0 0 24 24" fill="none" xmlns="http://www.w3.org/2000/svg">
<path fill-rule="evenodd" clip-rule="evenodd" d="M12 24C18.6274 24 24 18.6274 24 12C24 5.37258 18.6274 0 12 0C5.37258 0 0 5.37258 0 12C0 18.6274 5.37258 24 12 24ZM12 7C12.5523 7 13 7.44772 13 8V11.0002H16.0005C16.5528 11.0002 17.0005 11.448 17.0005 12.0002C17.0005 12.5525 16.5528 13.0002 16.0005 13.0002H13V16.0005C13 16.5528 12.5523 17.0005 12 17.0005C11.4477 17.0005 11 16.5528 11 16.0005V13.0002H8C7.44772 13.0002 7 12.5525 7 12.0002C7 11.448 7.44772 11.0002 8 11.0002H11V8C11 7.44772 11.4477 7 12 7Z" fill="#009C93"/>
</svg>
