<svg width="89" height="85" viewBox="0 0 89 85" fill="none" xmlns="http://www.w3.org/2000/svg">
<path d="M43.9353 49.5306C43.8998 50.3359 43.6737 50.9455 43.257 51.3595C42.8404 51.7734 42.2525 51.9804 41.4935 51.9804C40.6957 51.9804 40.0837 51.7184 39.6573 51.1945C39.2342 50.6674 39.0226 49.9171 39.0226 48.9436V47.7551C39.0226 46.7849 39.2423 46.0378 39.6815 45.5139C40.1208 44.9867 40.7313 44.7231 41.5129 44.7231C42.2816 44.7231 42.8646 44.9382 43.2619 45.3683C43.6624 45.7985 43.8901 46.4162 43.945 47.2215H42.5158C42.5029 46.7234 42.4253 46.3806 42.2832 46.193C42.1443 46.0022 41.8876 45.9068 41.5129 45.9068C41.1318 45.9068 40.8621 46.041 40.7038 46.3095C40.5455 46.5746 40.4616 47.0129 40.4519 47.6241V48.9582C40.4519 49.66 40.5294 50.1418 40.6844 50.4038C40.8427 50.6657 41.1124 50.7967 41.4935 50.7967C41.8682 50.7967 42.1266 50.7062 42.2687 50.5251C42.4108 50.3407 42.4916 50.0092 42.5109 49.5306H43.9353Z" fill="#221E1F"/>
<path d="M47.3385 47.9588L48.2881 44.8202H49.8191L47.886 50.496C47.6664 51.0587 47.429 51.4452 47.1738 51.6554C46.9219 51.8656 46.6183 51.9755 46.263 51.9852H46.1079L45.7688 51.9658L45.7446 50.7822C45.7769 50.7951 45.8818 50.8016 46.0595 50.8016C46.2404 50.8016 46.376 50.7612 46.4665 50.6803C46.5601 50.5995 46.6409 50.4183 46.7087 50.137L46.7765 49.8799L44.7611 44.8202H46.2872L47.3385 47.9588Z" fill="#221E1F"/>
<path d="M55.7949 44.8202V51.8834H54.3705V49.2201C53.9926 49.3042 53.6374 49.3462 53.3047 49.3462C52.536 49.3462 51.9497 49.1522 51.546 48.7641C51.1423 48.376 50.9323 47.8165 50.9162 47.0856V44.8202H52.3454V47.008C52.3454 47.422 52.4148 47.7179 52.5537 47.8958C52.6958 48.0736 52.9462 48.1626 53.3047 48.1626C53.6503 48.1626 54.0056 48.1205 54.3705 48.0364V44.8202H55.7949Z" fill="#221E1F"/>
<path d="M60.6903 50.4377H58.7476L58.3697 51.8834H56.8629L59.0673 44.8202H60.3706L62.5895 51.8834H61.0682L60.6903 50.4377ZM59.0576 49.2492H60.3754L59.7165 46.7315L59.0576 49.2492Z" fill="#221E1F"/>
<path d="M68.2262 49.5306C68.1907 50.3359 67.9646 50.9455 67.5479 51.3595C67.1313 51.7734 66.5434 51.9804 65.7844 51.9804C64.9866 51.9804 64.3746 51.7184 63.9482 51.1945C63.5251 50.6674 63.3135 49.9171 63.3135 48.9436V47.7551C63.3135 46.7849 63.5332 46.0378 63.9724 45.5139C64.4117 44.9867 65.0222 44.7231 65.8038 44.7231C66.5725 44.7231 67.1555 44.9382 67.5528 45.3683C67.9533 45.7985 68.181 46.4162 68.2359 47.2215H66.8067C66.7938 46.7234 66.7162 46.3806 66.5741 46.193C66.4352 46.0022 66.1785 45.9068 65.8038 45.9068C65.4227 45.9068 65.153 46.041 64.9947 46.3095C64.8364 46.5746 64.7525 47.0129 64.7428 47.6241V48.9582C64.7428 49.66 64.8203 50.1418 64.9753 50.4038C65.1336 50.6657 65.4033 50.7967 65.7844 50.7967C66.1591 50.7967 66.4175 50.7062 66.5596 50.5251C66.7017 50.3407 66.7825 50.0092 66.8018 49.5306H68.2262Z" fill="#221E1F"/>
<path d="M74.3474 51.8834H72.9278V48.8611H70.8252V51.8834H69.4008V44.8202H70.8252V47.6775H72.9278V44.8202H74.3474V51.8834Z" fill="#221E1F"/>
<path d="M77.2807 51.8834H75.8563V44.8202H77.2807V51.8834Z" fill="#221E1F"/>
<path d="M42.8791 55.3859C43.6317 55.3859 44.2373 55.6608 44.696 56.2106C45.1578 56.7571 45.3888 57.4621 45.3888 58.3256C45.3888 59.1665 45.1595 59.857 44.7008 60.3971C44.2422 60.9372 43.6349 61.2072 42.8791 61.2072V62.1095H41.5129V61.2072C40.9993 61.2072 40.5536 61.0875 40.1757 60.8482C39.8011 60.6057 39.5087 60.2661 39.2988 59.8295C39.0889 59.3897 38.9839 58.8916 38.9839 58.3353C38.9839 57.4719 39.2148 56.7652 39.6767 56.2154C40.1386 55.6624 40.7506 55.3859 41.5129 55.3859V54.4642H42.8791V55.3859ZM41.4402 56.6035C41.0946 56.6035 40.8217 56.7571 40.6214 57.0644C40.4244 57.3716 40.3259 57.7953 40.3259 58.3353C40.3259 58.8399 40.4244 59.2409 40.6214 59.5384C40.8217 59.836 41.0979 59.9847 41.4499 59.9847H41.5129V56.6035H41.4402ZM42.8791 56.6035V59.9847H42.9518C43.2877 59.9847 43.5542 59.836 43.7512 59.5384C43.9482 59.2377 44.0468 58.8334 44.0468 58.3256C44.0468 57.792 43.9482 57.3716 43.7512 57.0644C43.5574 56.7571 43.2861 56.6035 42.9373 56.6035H42.8791Z" fill="#221E1F"/>
<path d="M48.1186 61.8184H46.6942V54.7552H48.1186V61.8184Z" fill="#221E1F"/>
<path d="M54.5595 61.8184H53.1399V58.7962H51.0373V61.8184H49.6129V54.7552H51.0373V57.6125H53.1399V54.7552H54.5595V61.8184Z" fill="#221E1F"/>
<path d="M59.4598 60.3728H57.517L57.1391 61.8184H55.6323L57.8367 54.7552H59.14L61.3589 61.8184H59.8377L59.4598 60.3728ZM57.827 59.1843H59.1448L58.4859 56.6666L57.827 59.1843Z" fill="#221E1F"/>
<path d="M67.2669 61.8184H65.8474V58.7962H63.7447V61.8184H62.3203V54.7552H63.7447V57.6125H65.8474V54.7552H67.2669V61.8184Z" fill="#221E1F"/>
<path d="M73.4947 59.4657C73.4592 60.2709 73.2331 60.8806 72.8164 61.2945C72.3998 61.7085 71.8119 61.9155 71.0529 61.9155C70.2551 61.9155 69.643 61.6535 69.2167 61.1296C68.7936 60.6024 68.582 59.8521 68.582 58.8787V57.6901C68.582 56.7199 68.8017 55.9729 69.2409 55.4489C69.6802 54.9218 70.2906 54.6582 71.0723 54.6582C71.841 54.6582 72.424 54.8733 72.8213 55.3034C73.2218 55.7335 73.4495 56.3512 73.5044 57.1565H72.0752C72.0622 56.6585 71.9847 56.3157 71.8426 56.1281C71.7037 55.9373 71.4469 55.8419 71.0723 55.8419C70.6911 55.8419 70.4214 55.9761 70.2632 56.2445C70.1049 56.5097 70.0209 56.9479 70.0113 57.5592V58.8932C70.0113 59.595 70.0888 60.0769 70.2438 60.3389C70.4021 60.6008 70.6718 60.7318 71.0529 60.7318C71.4276 60.7318 71.686 60.6412 71.8281 60.4601C71.9702 60.2758 72.0509 59.9443 72.0703 59.4657H73.4947Z" fill="#221E1F"/>
<path d="M79.6352 58.9223C79.6352 59.8699 79.4108 60.6057 78.9618 61.1296C78.5161 61.6535 77.8959 61.9155 77.1014 61.9155C76.3101 61.9155 75.6883 61.6567 75.2361 61.1393C74.7839 60.6186 74.5546 59.8909 74.5482 58.9563V57.7484C74.5482 56.7781 74.7726 56.0214 75.2216 55.478C75.6705 54.9315 76.2939 54.6582 77.0917 54.6582C77.8766 54.6582 78.4951 54.9266 78.9473 55.4635C79.3995 55.9971 79.6288 56.7474 79.6352 57.7144V58.9223ZM78.206 57.7387C78.206 57.1015 78.1156 56.6278 77.9347 56.3173C77.7538 56.0068 77.4728 55.8516 77.0917 55.8516C76.7138 55.8516 76.4344 56.002 76.2535 56.3027C76.0727 56.6003 75.979 57.0547 75.9725 57.6659V58.9223C75.9725 59.54 76.0646 59.996 76.2487 60.2903C76.4328 60.5814 76.717 60.7269 77.1014 60.7269C77.4728 60.7269 77.749 60.5846 77.9299 60.3C78.1107 60.0122 78.2028 59.5675 78.206 58.966V57.7387Z" fill="#221E1F"/>
<path d="M80.9552 61.8184V54.7552H83.1354C83.8718 54.7552 84.4305 54.9202 84.8117 55.25C85.196 55.5767 85.3882 56.0569 85.3882 56.6908C85.3882 57.0498 85.3091 57.3587 85.1508 57.6174C84.9925 57.8761 84.7761 58.0653 84.5016 58.185C84.8181 58.2755 85.062 58.4582 85.2332 58.7331C85.4044 59.0048 85.49 59.3411 85.49 59.7422C85.49 60.4278 85.301 60.9452 84.9231 61.2945C84.5484 61.6438 84.0042 61.8184 83.2904 61.8184H80.9552ZM82.3796 58.7477V60.6348H83.2904C83.5456 60.6348 83.7393 60.5555 83.8718 60.3971C84.0042 60.2386 84.0704 60.0138 84.0704 59.7228C84.0704 59.0889 83.8411 58.7639 83.3824 58.7477H82.3796ZM82.3796 57.7096H83.1208C83.6796 57.7096 83.959 57.4201 83.959 56.8412C83.959 56.521 83.8944 56.2914 83.7652 56.1523C83.636 56.0133 83.426 55.9438 83.1354 55.9438H82.3796V57.7096Z" fill="#221E1F"/>
<path d="M88.3118 61.8184H86.8874V54.7552H88.3118V61.8184Z" fill="#221E1F"/>
<path d="M40.5778 69.2697V71.7535H39.1535V64.6903H41.5565C42.2542 64.6903 42.8097 64.907 43.2231 65.3403C43.6398 65.7737 43.8481 66.3364 43.8481 67.0285C43.8481 67.7206 43.643 68.2672 43.2328 68.6682C42.8226 69.0692 42.2542 69.2697 41.5274 69.2697H40.5778ZM40.5778 68.0812H41.5565C41.8278 68.0812 42.0378 67.9923 42.1863 67.8144C42.3349 67.6365 42.4092 67.3778 42.4092 67.0382C42.4092 66.6857 42.3333 66.406 42.1815 66.199C42.0297 65.9888 41.8262 65.882 41.571 65.8788H40.5778V68.0812Z" fill="#221E1F"/>
<path d="M46.5876 71.7535H45.1632V64.6903H46.5876V71.7535Z" fill="#221E1F"/>
<path d="M49.5112 64.6903V70.5698H50.9452V64.6903H52.3696V70.5698H53.7843V64.6903H55.2087V71.7535H48.0819V64.6903H49.5112Z" fill="#221E1F"/>
<path d="M60.2882 68.6973H58.0693V70.5698H60.6952V71.7535H56.6449V64.6903H60.6855V65.8788H58.0693V67.5476H60.2882V68.6973Z" fill="#221E1F"/>
<path d="M66.7631 71.7535H65.3435V68.7313H63.2409V71.7535H61.8165V64.6903H63.2409V67.5476H65.3435V64.6903H66.7631V71.7535Z" fill="#221E1F"/>
<path d="M73.1556 71.7535H71.736V68.7313H69.6334V71.7535H68.209V64.6903H69.6334V67.5476H71.736V64.6903H73.1556V71.7535Z" fill="#221E1F"/>
<path d="M77.2322 71.7535V69.2115H76.4861L75.4445 71.7535H73.9086L75.1586 68.6973C74.5772 68.293 74.2865 67.685 74.2865 66.8733C74.2865 66.1747 74.4819 65.6363 74.8728 65.2579C75.2668 64.8795 75.824 64.6903 76.5442 64.6903H78.6614V71.7535H77.2322ZM75.7158 66.9849C75.7158 67.3762 75.7852 67.6608 75.9241 67.8387C76.063 68.0133 76.2794 68.1006 76.5733 68.1006H77.2322V65.8788H76.5249C75.9855 65.8788 75.7158 66.2475 75.7158 66.9849Z" fill="#221E1F"/>
<path fill-rule="evenodd" clip-rule="evenodd" d="M22.0494 6.62338C13.6149 6.62338 6.61483 13.6986 6.61483 22.6299C6.61483 31.5612 13.6149 38.6364 22.0494 38.6364V45.2597C9.78215 45.2597 0 35.0369 0 22.6299C0 10.2229 9.78215 0 22.0494 0V6.62338Z" fill="#221E1F"/>
<path fill-rule="evenodd" clip-rule="evenodd" d="M30.8697 71.7533V45.2344C43.0647 44.6731 52.9191 34.8491 52.9191 22.6299C52.9191 10.4106 43.0647 0.586651 30.8697 0.0253249V2.10551e-06H29.7773L29.7672 0L24.2549 2.10551e-06V85H30.8697V81.6883H37.4845V77.2727H34.1771V75.0649H37.4845V71.7533H30.8697ZM46.3043 22.6299C46.3043 31.0308 39.5652 38.0508 30.8697 38.6016V6.65816C39.5652 7.20896 46.3043 14.2289 46.3043 22.6299Z" fill="#009C93"/>
</svg>
