<svg width="72" height="69" viewBox="0 0 72 69" fill="none" xmlns="http://www.w3.org/2000/svg">
<path fill-rule="evenodd" clip-rule="evenodd" d="M17.9767 5.37662C11.1001 5.37662 5.39301 11.12 5.39301 18.3701C5.39301 25.6202 11.1001 31.3636 17.9767 31.3636V36.7403C7.97529 36.7403 0 28.4417 0 18.3701C0 8.29858 7.97529 0 17.9767 0V5.37662ZM35.2671 41.6915C35.6068 41.3555 35.7911 40.8606 35.8201 40.2069H34.6588C34.643 40.5954 34.5771 40.8645 34.4613 41.0142C34.3454 41.1612 34.1347 41.2347 33.8293 41.2347C33.5186 41.2347 33.2987 41.1284 33.1696 40.9157C33.0432 40.7031 32.98 40.3119 32.98 39.7422V38.6593C32.9879 38.1631 33.0564 37.8074 33.1854 37.5921C33.3145 37.3742 33.5344 37.2652 33.8451 37.2652C34.1505 37.2652 34.3599 37.3427 34.4731 37.4976C34.589 37.6498 34.6522 37.9281 34.6627 38.3324H35.828C35.7832 37.6787 35.5975 37.1773 35.271 36.8281C34.9471 36.479 34.4718 36.3044 33.8451 36.3044C33.2078 36.3044 32.7101 36.5183 32.352 36.9463C31.9939 37.3716 31.8148 37.978 31.8148 38.7656V39.7304C31.8148 40.5206 31.9873 41.1297 32.3322 41.5576C32.6798 41.9829 33.1789 42.1956 33.8293 42.1956C34.4481 42.1956 34.9274 42.0275 35.2671 41.6915ZM39.3689 36.3831L38.5947 38.931L37.7375 36.3831H36.4933L38.1365 40.4904L38.0812 40.6991C38.0259 40.9275 37.96 41.0746 37.8837 41.1402C37.8099 41.2058 37.6993 41.2386 37.5519 41.2386C37.407 41.2386 37.3215 41.2334 37.2951 41.2229L37.3149 42.1837L37.5914 42.1995H37.7178C38.0074 42.1916 38.255 42.1024 38.4604 41.9317C38.6684 41.7611 38.8619 41.4473 39.041 40.9905L40.617 36.3831H39.3689ZM45.4891 36.3831V42.1168H44.3278V39.9549C44.0197 40.0231 43.73 40.0573 43.4588 40.0573C42.8321 40.0573 42.3541 39.8997 42.025 39.5847C41.6958 39.2697 41.5246 38.8155 41.5115 38.2222V36.3831H42.6767V38.1592C42.6767 38.4952 42.7333 38.7354 42.8466 38.8798C42.9624 39.0242 43.1665 39.0964 43.4588 39.0964C43.7406 39.0964 44.0302 39.0623 44.3278 38.994V36.3831H45.4891ZM47.8963 40.9433H49.4803L49.7884 42.1168H51.0287L49.2196 36.3831H48.157L46.3598 42.1168H47.5882L47.8963 40.9433ZM49.2235 39.9785H48.1491L48.6863 37.9347L49.2235 39.9785ZM55.6242 40.2069C55.5952 40.8606 55.4109 41.3555 55.0712 41.6915C54.7315 42.0275 54.2522 42.1956 53.6334 42.1956C52.983 42.1956 52.484 41.9829 52.1364 41.5576C51.7914 41.1297 51.6189 40.5206 51.6189 39.7304V38.7656C51.6189 37.978 51.798 37.3716 52.1561 36.9463C52.5143 36.5183 53.012 36.3044 53.6492 36.3044C54.2759 36.3044 54.7513 36.479 55.0751 36.8281C55.4017 37.1773 55.5873 37.6787 55.6321 38.3324H54.4669C54.4563 37.9281 54.3931 37.6498 54.2773 37.4976C54.164 37.3427 53.9547 37.2652 53.6492 37.2652C53.3385 37.2652 53.1186 37.3742 52.9896 37.5921C52.8605 37.8074 52.7921 38.1631 52.7842 38.6593V39.7422C52.7842 40.3119 52.8474 40.7031 52.9738 40.9157C53.1028 41.1284 53.3227 41.2347 53.6334 41.2347C53.9389 41.2347 54.1495 41.1612 54.2654 41.0142C54.3813 40.8645 54.4471 40.5954 54.4629 40.2069H55.6242ZM59.4574 42.1168H60.6147V36.3831H59.4574V38.7026H57.7431V36.3831H56.5818V42.1168H57.7431V39.6635H59.4574V42.1168ZM63.0062 42.1168H61.8449V36.3831H63.0062V42.1168ZM36.4402 45.6295C36.0663 45.1832 35.5725 44.96 34.959 44.96V44.2118H33.8451V44.96C33.2236 44.96 32.7246 45.1845 32.348 45.6334C31.9715 46.0797 31.7832 46.6533 31.7832 47.3543C31.7832 47.8058 31.8688 48.2101 32.04 48.5672C32.2111 48.9216 32.4494 49.1972 32.7549 49.3941C33.063 49.5884 33.4264 49.6856 33.8451 49.6856V50.418H34.959V49.6856C35.5752 49.6856 36.0702 49.4663 36.4442 49.0279C36.8181 48.5895 37.005 48.029 37.005 47.3464C37.005 46.6455 36.8168 46.0731 36.4402 45.6295ZM33.1183 46.3225C33.2816 46.0731 33.5041 45.9484 33.7858 45.9484H33.8451V48.6932H33.7937C33.5067 48.6932 33.2816 48.5724 33.1183 48.3309C32.9577 48.0894 32.8773 47.7638 32.8773 47.3543C32.8773 46.9159 32.9577 46.5719 33.1183 46.3225ZM34.959 48.6932V45.9484H35.0064C35.2908 45.9484 35.512 46.0731 35.67 46.3225C35.8306 46.5719 35.9109 46.9132 35.9109 47.3464C35.9109 47.7586 35.8306 48.0867 35.67 48.3309C35.5093 48.5724 35.2921 48.6932 35.0182 48.6932H34.959ZM39.2306 50.1817H38.0693V44.4481H39.2306V50.1817ZM43.3245 50.1817H44.4818V44.4481H43.3245V46.7675H41.6102V44.4481H40.4489V50.1817H41.6102V47.7284H43.3245V50.1817ZM48.477 49.0082H46.8931L46.585 50.1817H45.3565L47.1537 44.4481H48.2163L50.0254 50.1817H48.7851L48.477 49.0082ZM47.1458 48.0434H48.2202L47.683 45.9996L47.1458 48.0434ZM53.6848 50.1817H54.8421V44.4481H53.6848V46.7675H51.9705V44.4481H50.8092V50.1817H51.9705V47.7284H53.6848V50.1817ZM59.9195 48.2718C59.8906 48.9255 59.7062 49.4204 59.3665 49.7564C59.0268 50.0925 58.5476 50.2605 57.9288 50.2605C57.2783 50.2605 56.7793 50.0478 56.4317 49.6225C56.0868 49.1946 55.9143 48.5856 55.9143 47.7953V46.8305C55.9143 46.0429 56.0933 45.4365 56.4515 45.0112C56.8096 44.5833 57.3073 44.3693 57.9446 44.3693C58.5713 44.3693 59.0466 44.5439 59.3705 44.8931C59.697 45.2422 59.8827 45.7437 59.9274 46.3974H58.7622C58.7517 45.9931 58.6885 45.7148 58.5726 45.5625C58.4594 45.4076 58.25 45.3302 57.9446 45.3302C57.6338 45.3302 57.4139 45.4391 57.2849 45.657C57.1559 45.8723 57.0874 46.228 57.0795 46.7242V47.8071C57.0795 48.3768 57.1427 48.768 57.2691 48.9807C57.3981 49.1933 57.618 49.2996 57.9288 49.2996C58.2342 49.2996 58.4449 49.2261 58.5607 49.0791C58.6766 48.9295 58.7424 48.6604 58.7582 48.2718H59.9195ZM64.3768 49.6225C64.7429 49.1973 64.9259 48.6 64.9259 47.8308V46.8502C64.9206 46.0653 64.7336 45.4562 64.365 45.023C63.9963 44.5872 63.492 44.3693 62.8521 44.3693C62.2017 44.3693 61.6935 44.5912 61.3275 45.0348C60.9614 45.4759 60.7784 46.0902 60.7784 46.8778V47.8583C60.7837 48.6171 60.9706 49.2077 61.3393 49.6304C61.708 50.0505 62.2149 50.2605 62.86 50.2605C63.5078 50.2605 64.0134 50.0478 64.3768 49.6225ZM63.5394 45.7161C63.6869 45.9681 63.7606 46.3527 63.7606 46.8699V47.8662C63.758 48.3545 63.6829 48.7155 63.5355 48.9492C63.388 49.1802 63.1629 49.2957 62.86 49.2957C62.5467 49.2957 62.3149 49.1776 62.1648 48.9413C62.0147 48.7024 61.9397 48.3322 61.9397 47.8308V46.8108C61.945 46.3147 62.0213 45.9458 62.1688 45.7043C62.3163 45.4601 62.544 45.3381 62.8521 45.3381C63.1629 45.3381 63.392 45.4641 63.5394 45.7161ZM66.002 50.1817V44.4481H67.7795C68.3799 44.4481 68.8354 44.582 69.1462 44.8497C69.4595 45.1149 69.6162 45.5048 69.6162 46.0193C69.6162 46.3107 69.5517 46.5614 69.4226 46.7715C69.2936 46.9815 69.1172 47.1351 68.8934 47.2322C69.1514 47.3057 69.3502 47.454 69.4898 47.6772C69.6294 47.8977 69.6992 48.1708 69.6992 48.4963C69.6992 49.0529 69.5451 49.4729 69.237 49.7564C68.9315 50.04 68.4878 50.1817 67.9059 50.1817H66.002ZM67.1633 47.689V49.2209H67.9059C68.1139 49.2209 68.2719 49.1566 68.3799 49.0279C68.4878 48.8993 68.5418 48.7168 68.5418 48.4805C68.5418 47.966 68.3548 47.7021 67.9809 47.689H67.1633ZM67.1633 46.8463H67.7676C68.2232 46.8463 68.451 46.6113 68.451 46.1414C68.451 45.8815 68.3983 45.6951 68.293 45.5822C68.1876 45.4693 68.0165 45.4129 67.7795 45.4129H67.1633V46.8463ZM70.8385 50.1817H71.9998V44.4481H70.8385V50.1817ZM33.0827 56.2304V58.2467H31.9215V52.513H33.8806C34.4494 52.513 34.9024 52.6889 35.2394 53.0407C35.5791 53.3925 35.749 53.8493 35.749 54.4111C35.749 54.9729 35.5817 55.4166 35.2473 55.7421C34.9129 56.0677 34.4494 56.2304 33.8569 56.2304H33.0827ZM33.0827 55.2656H33.8806C34.1018 55.2656 34.273 55.1934 34.3941 55.0491C34.5153 54.9047 34.5758 54.6946 34.5758 54.419C34.5758 54.1328 34.5139 53.9057 34.3902 53.7377C34.2664 53.5671 34.1005 53.4804 33.8925 53.4778H33.0827V55.2656ZM36.8211 58.2467H37.9824V52.513H36.8211V58.2467ZM40.366 52.513V57.2858H41.5352V52.513H42.6965V57.2858H43.8498V52.513H45.0111V58.2467H39.2007V52.513H40.366ZM47.3433 55.7658H49.1524V54.8325H47.3433V53.4778H49.4763V52.513H46.1821V58.2467H49.4842V57.2858H47.3433V55.7658ZM54.4313 58.2467H53.274V55.7933H51.5597V58.2467H50.3984V52.513H51.5597V54.8325H53.274V52.513H54.4313V58.2467ZM58.4857 58.2467H59.643V52.513H58.4857V54.8325H56.7714V52.513H55.6101V58.2467H56.7714V55.7933H58.4857V58.2467ZM62.9667 58.2467V56.1832H62.3584L61.5092 58.2467H60.257L61.2761 55.7658C60.8021 55.4376 60.5651 54.944 60.5651 54.2851C60.5651 53.718 60.7244 53.2809 61.0431 52.9737C61.3643 52.6666 61.8186 52.513 62.4058 52.513H64.1319V58.2467H62.9667ZM61.7303 54.3757C61.7303 54.6933 61.787 54.9244 61.9002 55.0687C62.0134 55.2105 62.1899 55.2814 62.4295 55.2814H62.9667V53.4778H62.39C61.9502 53.4778 61.7303 53.7771 61.7303 54.3757ZM25.1674 36.7197V58.2468H30.5604V60.9351H27.8639V62.7273H30.5604V66.3117H25.1674V69H19.7744V0H24.2686H24.2768H25.1674V0.0205578C35.1099 0.476222 43.1441 8.45096 43.1441 18.3701C43.1441 28.2893 35.1099 36.264 25.1674 36.7197ZM25.1674 31.3354C32.2567 30.8883 37.7511 25.1897 37.7511 18.3701C37.7511 11.5505 32.2567 5.85198 25.1674 5.40486V31.3354Z" fill="white"/>
</svg>
