<svg width="39" height="39" viewBox="0 0 39 39" fill="none" xmlns="http://www.w3.org/2000/svg">
<path d="M37.0796 22.6318H36.5032V17.5129C36.5032 16.7025 36.0941 15.9849 35.4693 15.5489V14.8519C35.4693 13.8409 34.635 13.0184 33.6096 13.0184H33.1792L34.8259 10.636C35.3779 9.83749 35.168 8.74502 34.358 8.20075L23.1838 0.693085C22.7915 0.429404 22.3186 0.332091 21.8519 0.419391C21.3854 0.506543 20.9811 0.767553 20.7138 1.15443L11.069 15.1078H8.38516L9.03268 8.64526C9.03997 8.57242 9.08797 8.5093 9.15493 8.48445C9.98917 8.17434 10.7121 7.59521 11.1906 6.85379C11.2283 6.79541 11.2994 6.76204 11.373 6.76938L15.5825 7.1794C15.8844 7.20825 16.1529 6.99153 16.1827 6.6941C16.2125 6.39667 15.9921 6.1318 15.6904 6.10243L11.4809 5.69241C10.9922 5.64523 10.5262 5.86723 10.2644 6.2728C9.91266 6.81796 9.38107 7.24371 8.76771 7.47171C8.30602 7.64335 7.98899 8.05218 7.94024 8.53882L7.28212 15.1078H6.58224L7.60629 4.88661C7.64315 4.51871 7.9762 4.24843 8.3498 4.2853L16.8565 5.11379C17.1582 5.1425 17.4268 4.92592 17.4566 4.62849C17.4864 4.33106 17.2661 4.06619 16.9644 4.03682L8.45768 3.20832C7.48238 3.11346 6.61023 3.81846 6.51386 4.78017L5.68842 13.0184H4.28272C3.25732 13.0184 2.423 13.8409 2.423 14.8519V15.3274C1.5841 15.7082 1 16.5442 1 17.5129V35.959C1 37.2852 2.09432 38.3641 3.43953 38.3641H34.0637C35.4089 38.3641 36.5032 37.2852 36.5032 35.959V30.8401H37.0796C37.76 30.8401 38.3135 30.2944 38.3135 29.6237V23.8483C38.3135 23.1775 37.76 22.6318 37.0796 22.6318ZM33.6096 14.1007C34.0298 14.1007 34.3716 14.4377 34.3716 14.852V15.1277C34.2706 15.1151 34.1681 15.1079 34.0637 15.1079H31.7349L32.4311 14.1007H33.6096ZM21.6208 1.76383C21.7232 1.61586 21.8778 1.51602 22.0562 1.48264C22.0989 1.47471 22.1417 1.4707 22.1842 1.4707C22.3194 1.4707 22.4515 1.51061 22.5657 1.5873L33.7399 9.09496C34.0497 9.30316 34.13 9.72104 33.9189 10.0265L30.4067 15.1077H29.5638L31.2857 12.6165C31.565 12.2125 31.588 11.6983 31.3456 11.2746C31.0235 10.7116 30.8929 10.0487 30.9779 9.40797C31.0411 8.93126 30.8283 8.46591 30.4227 8.1934L24.63 4.30146C24.2243 4.02888 23.7072 4.00389 23.2803 4.23627C22.7066 4.54853 22.0331 4.67114 21.3839 4.58154C20.9024 4.51493 20.414 4.72929 20.1389 5.12722L13.2403 15.1078H12.3974L21.6208 1.76383ZM21.8626 10.953C19.4724 10.953 17.5103 12.7905 17.3505 15.1078H14.5685L21.0458 5.73669C21.0826 5.68336 21.1437 5.65161 21.2064 5.65161C21.2147 5.65161 21.2231 5.65221 21.2314 5.65332C22.1145 5.77511 23.0304 5.60852 23.8107 5.18374C23.8721 5.15021 23.951 5.15503 24.0118 5.19583L29.8045 9.08784C29.8651 9.12864 29.8985 9.19925 29.8894 9.26778C29.7738 10.1392 29.9515 11.0407 30.3896 11.8063C30.4247 11.8678 30.4204 11.9466 30.3787 12.007L28.2356 15.1077H26.3749C26.2148 12.7905 24.2529 10.953 21.8626 10.953ZM25.2741 15.1078H18.451C18.6083 13.3879 20.0778 12.0353 21.8626 12.0353C23.6473 12.0353 25.117 13.3879 25.2741 15.1078ZM3.5207 14.8519C3.5207 14.4376 3.86248 14.1006 4.28272 14.1006H5.58001L5.47912 15.1078H3.5207V14.8519ZM2.0977 17.5129C2.0977 16.7835 2.69963 16.19 3.43953 16.19H34.0637C34.8036 16.19 35.4055 16.7835 35.4055 17.5129V19.0144H2.0977V17.5129ZM35.4055 35.959C35.4055 36.6884 34.8036 37.2818 34.0637 37.2818H3.43953C2.69963 37.2818 2.0977 36.6884 2.0977 35.959V34.4575H5.05745C5.36063 34.4575 5.60626 34.2152 5.60626 33.9164C5.60626 33.6175 5.36056 33.3753 5.05745 33.3753H2.0977V20.0966H35.4055V22.6318H30.187C28.5427 22.6318 27.1184 23.5768 26.4424 24.9446C26.4402 24.9492 26.4376 24.9536 26.4353 24.9582C26.4295 24.9699 26.4246 24.982 26.419 24.9937C26.3385 25.1623 26.2686 25.3368 26.2116 25.5169L26.2112 25.5184C26.0897 25.9032 26.0241 26.3121 26.0241 26.736C26.0241 28.999 27.8915 30.8401 30.1868 30.8401H35.4054V33.3753H8.57181C8.26863 33.3753 8.023 33.6175 8.023 33.9164C8.023 34.2152 8.2687 34.4575 8.57181 34.4575H35.4055V35.959ZM37.2158 29.6236C37.2158 29.6976 37.1548 29.7579 37.0796 29.7579H30.1871C29.0251 29.7579 28.012 29.1171 27.4924 28.1752C27.4688 28.1324 27.4462 28.0889 27.4246 28.0449C27.3815 27.9569 27.3426 27.8665 27.3083 27.7739C27.1877 27.4501 27.122 27.1004 27.122 26.736C27.122 26.3715 27.1878 26.0218 27.3083 25.698C27.3427 25.6055 27.3816 25.5151 27.4246 25.427C27.4462 25.383 27.4688 25.3395 27.4924 25.2967C28.012 24.3548 29.0251 23.7141 30.1871 23.7141H37.0796C37.1547 23.7141 37.2158 23.7743 37.2158 23.8483V29.6236Z" fill="#485055" stroke="#485055" stroke-width="0.3"/>
</svg>
