<svg width="34" height="41" viewBox="0 0 34 41" fill="none" xmlns="http://www.w3.org/2000/svg">
<mask id="path-1-inside-1" fill="white">
<path fill-rule="evenodd" clip-rule="evenodd" d="M7.66282 1.34928C7.03296 1.34928 6.52236 1.85269 6.52236 2.47367V11.2367C6.52236 11.6093 6.216 11.9114 5.83809 11.9114C5.46017 11.9114 5.15381 11.6093 5.15381 11.2367V6.12548L3.1687 6.12547C2.47835 6.12547 1.9187 6.68512 1.9187 7.37548L1.9187 37.4233C1.9187 38.1136 2.47834 38.6733 3.1687 38.6733L28.2155 38.6733C28.9058 38.6733 29.4655 38.1136 29.4655 37.4233V36.4305H7.66283C6.27714 36.4305 5.15381 35.323 5.15381 33.9568V15.7633C5.15381 15.3907 5.46017 15.0887 5.83809 15.0887C6.216 15.0887 6.52236 15.3907 6.52236 15.7633V33.9568C6.52236 34.5778 7.03297 35.0812 7.66283 35.0812H31.491C32.1209 35.0812 32.6315 34.5778 32.6315 33.9568V7.64596H26.9044C26.5264 7.64596 26.2201 7.34391 26.2201 6.97132V1.34928H7.66282ZM30.9655 36.4305H31.491C32.8767 36.4305 34 35.323 34 33.9568V6.98093C34.0026 6.80167 33.9326 6.6248 33.7987 6.49335L27.3873 0.196717C27.2565 0.0682601 27.0819 5.28395e-05 26.9043 2.65837e-05V0H7.66282C6.27713 0 5.15381 1.1075 5.15381 2.47367V4.62548L3.1687 4.62547C1.64992 4.62547 0.418704 5.8567 0.418704 7.37548L0.418701 37.4233C0.418701 38.942 1.64992 40.1733 3.1687 40.1733L28.2155 40.1733C29.7342 40.1733 30.9655 38.942 30.9655 37.4233V36.4305ZM27.5886 2.29894V6.29668H31.6593L27.5886 2.29894ZM19.9076 7.77312H9.28213C8.92492 7.77312 8.63586 7.4641 8.63586 7.08296C8.63586 6.70182 8.92492 6.3928 9.28213 6.3928H19.9076C20.2645 6.3928 20.5539 6.70182 20.5539 7.08296C20.5539 7.4641 20.2645 7.77312 19.9076 7.77312ZM29.4016 11.1779H9.33683C8.94924 11.1779 8.6356 10.8689 8.6356 10.4877C8.6356 10.1066 8.94924 9.79757 9.33683 9.79757H29.4016C29.7892 9.79757 30.1028 10.1066 30.1028 10.4877C30.1028 10.8689 29.7892 11.1779 29.4016 11.1779ZM9.33683 14.5824H29.4016C29.7892 14.5824 30.1028 14.2733 30.1028 13.8922C30.1028 13.5111 29.7892 13.2021 29.4016 13.2021H9.33683C8.94924 13.2021 8.6356 13.5111 8.6356 13.8922C8.6356 14.2733 8.94924 14.5824 9.33683 14.5824ZM29.4016 17.9874H9.33683C8.94924 17.9874 8.6356 17.6783 8.6356 17.2972C8.6356 16.9161 8.94924 16.607 9.33683 16.607H29.4016C29.7892 16.607 30.1028 16.9161 30.1028 17.2972C30.1028 17.6783 29.7892 17.9874 29.4016 17.9874ZM24.9693 31.6017C27.5467 31.6017 29.6361 29.5417 29.6361 27.0006C29.6361 24.4595 27.5467 22.3996 24.9693 22.3996C22.3919 22.3996 20.3025 24.4595 20.3025 27.0006C20.3025 29.5417 22.3919 31.6017 24.9693 31.6017ZM24.9693 32.982C28.3199 32.982 31.0361 30.304 31.0361 27.0006C31.0361 23.6972 28.3199 21.0193 24.9693 21.0193C21.6187 21.0193 18.9025 23.6972 18.9025 27.0006C18.9025 30.304 21.6187 32.982 24.9693 32.982ZM27.7947 25.1296C28.0697 25.3974 28.0725 25.8344 27.8008 26.1056L25.0353 28.8662C24.9043 28.997 24.7259 29.0708 24.5395 29.0714C24.3531 29.072 24.1742 28.9993 24.0424 28.8694L22.1411 26.9955C21.8677 26.726 21.8676 26.289 22.1409 26.0194C22.4142 25.7499 22.8575 25.7498 23.1309 26.0193L24.5341 27.4023L26.8047 25.1357C27.0764 24.8645 27.5196 24.8618 27.7947 25.1296Z"/>
</mask>
<path fill-rule="evenodd" clip-rule="evenodd" d="M7.66282 1.34928C7.03296 1.34928 6.52236 1.85269 6.52236 2.47367V11.2367C6.52236 11.6093 6.216 11.9114 5.83809 11.9114C5.46017 11.9114 5.15381 11.6093 5.15381 11.2367V6.12548L3.1687 6.12547C2.47835 6.12547 1.9187 6.68512 1.9187 7.37548L1.9187 37.4233C1.9187 38.1136 2.47834 38.6733 3.1687 38.6733L28.2155 38.6733C28.9058 38.6733 29.4655 38.1136 29.4655 37.4233V36.4305H7.66283C6.27714 36.4305 5.15381 35.323 5.15381 33.9568V15.7633C5.15381 15.3907 5.46017 15.0887 5.83809 15.0887C6.216 15.0887 6.52236 15.3907 6.52236 15.7633V33.9568C6.52236 34.5778 7.03297 35.0812 7.66283 35.0812H31.491C32.1209 35.0812 32.6315 34.5778 32.6315 33.9568V7.64596H26.9044C26.5264 7.64596 26.2201 7.34391 26.2201 6.97132V1.34928H7.66282ZM30.9655 36.4305H31.491C32.8767 36.4305 34 35.323 34 33.9568V6.98093C34.0026 6.80167 33.9326 6.6248 33.7987 6.49335L27.3873 0.196717C27.2565 0.0682601 27.0819 5.28395e-05 26.9043 2.65837e-05V0H7.66282C6.27713 0 5.15381 1.1075 5.15381 2.47367V4.62548L3.1687 4.62547C1.64992 4.62547 0.418704 5.8567 0.418704 7.37548L0.418701 37.4233C0.418701 38.942 1.64992 40.1733 3.1687 40.1733L28.2155 40.1733C29.7342 40.1733 30.9655 38.942 30.9655 37.4233V36.4305ZM27.5886 2.29894V6.29668H31.6593L27.5886 2.29894ZM19.9076 7.77312H9.28213C8.92492 7.77312 8.63586 7.4641 8.63586 7.08296C8.63586 6.70182 8.92492 6.3928 9.28213 6.3928H19.9076C20.2645 6.3928 20.5539 6.70182 20.5539 7.08296C20.5539 7.4641 20.2645 7.77312 19.9076 7.77312ZM29.4016 11.1779H9.33683C8.94924 11.1779 8.6356 10.8689 8.6356 10.4877C8.6356 10.1066 8.94924 9.79757 9.33683 9.79757H29.4016C29.7892 9.79757 30.1028 10.1066 30.1028 10.4877C30.1028 10.8689 29.7892 11.1779 29.4016 11.1779ZM9.33683 14.5824H29.4016C29.7892 14.5824 30.1028 14.2733 30.1028 13.8922C30.1028 13.5111 29.7892 13.2021 29.4016 13.2021H9.33683C8.94924 13.2021 8.6356 13.5111 8.6356 13.8922C8.6356 14.2733 8.94924 14.5824 9.33683 14.5824ZM29.4016 17.9874H9.33683C8.94924 17.9874 8.6356 17.6783 8.6356 17.2972C8.6356 16.9161 8.94924 16.607 9.33683 16.607H29.4016C29.7892 16.607 30.1028 16.9161 30.1028 17.2972C30.1028 17.6783 29.7892 17.9874 29.4016 17.9874ZM24.9693 31.6017C27.5467 31.6017 29.6361 29.5417 29.6361 27.0006C29.6361 24.4595 27.5467 22.3996 24.9693 22.3996C22.3919 22.3996 20.3025 24.4595 20.3025 27.0006C20.3025 29.5417 22.3919 31.6017 24.9693 31.6017ZM24.9693 32.982C28.3199 32.982 31.0361 30.304 31.0361 27.0006C31.0361 23.6972 28.3199 21.0193 24.9693 21.0193C21.6187 21.0193 18.9025 23.6972 18.9025 27.0006C18.9025 30.304 21.6187 32.982 24.9693 32.982ZM27.7947 25.1296C28.0697 25.3974 28.0725 25.8344 27.8008 26.1056L25.0353 28.8662C24.9043 28.997 24.7259 29.0708 24.5395 29.0714C24.3531 29.072 24.1742 28.9993 24.0424 28.8694L22.1411 26.9955C21.8677 26.726 21.8676 26.289 22.1409 26.0194C22.4142 25.7499 22.8575 25.7498 23.1309 26.0193L24.5341 27.4023L26.8047 25.1357C27.0764 24.8645 27.5196 24.8618 27.7947 25.1296Z" fill="#485055"/>
<path d="M5.15381 6.12548H6.65381V4.62548H5.15381V6.12548ZM3.1687 6.12547L3.1687 4.62547H3.1687V6.12547ZM1.9187 7.37548H3.4187H1.9187ZM1.9187 37.4233H0.418701H1.9187ZM3.1687 38.6733L3.1687 37.1733H3.1687V38.6733ZM28.2155 38.6733V40.1733V38.6733ZM29.4655 36.4305H30.9655V34.9305H29.4655V36.4305ZM32.6315 7.64596H34.1315V6.14596H32.6315V7.64596ZM26.2201 1.34928H27.7201V-0.150722H26.2201V1.34928ZM30.9655 36.4305V34.9305H29.4655V36.4305H30.9655ZM34 6.98093L32.5002 6.95958L32.5 6.97025V6.98093H34ZM33.7987 6.49335L34.8498 5.42315V5.42315L33.7987 6.49335ZM27.3873 0.196717L26.3362 1.26691L26.3362 1.26692L27.3873 0.196717ZM26.9043 2.65837e-05H25.4043V1.4998L26.9041 1.50003L26.9043 2.65837e-05ZM26.9043 0H28.4043V-1.5H26.9043V0ZM5.15381 4.62548L5.15381 6.12548H6.65381V4.62548H5.15381ZM3.1687 4.62547L3.1687 3.12547H3.1687V4.62547ZM0.418704 7.37548H1.9187H0.418704ZM0.418701 37.4233H1.9187H0.418701ZM3.1687 40.1733L3.1687 38.6733H3.1687V40.1733ZM28.2155 40.1733V41.6733V40.1733ZM27.5886 6.29668H26.0886V7.79668H27.5886V6.29668ZM27.5886 2.29894L28.6397 1.22874L26.0886 -1.2766V2.29894H27.5886ZM31.6593 6.29668V7.79668H35.3274L32.7103 5.22648L31.6593 6.29668ZM27.8008 26.1056L26.7411 25.044L26.7411 25.044L27.8008 26.1056ZM27.7947 25.1296L26.7482 26.2043L26.7482 26.2043L27.7947 25.1296ZM25.0353 28.8662L23.9756 27.8046L23.9756 27.8047L25.0353 28.8662ZM24.5395 29.0714L24.5442 30.5714H24.5442L24.5395 29.0714ZM24.0424 28.8694L22.9894 29.9377V29.9377L24.0424 28.8694ZM22.1411 26.9955L23.194 25.9272L23.194 25.9271L22.1411 26.9955ZM23.1309 26.0193L24.1838 24.951L24.1838 24.951L23.1309 26.0193ZM24.5341 27.4023L23.4812 28.4706L24.5408 29.515L25.5938 28.4639L24.5341 27.4023ZM26.8047 25.1357L27.8644 26.1973L27.8644 26.1973L26.8047 25.1357ZM8.02236 2.47367C8.02236 2.7011 7.84126 2.84928 7.66282 2.84928V-0.150722C6.22467 -0.150722 5.02236 1.00427 5.02236 2.47367H8.02236ZM8.02236 11.2367V2.47367H5.02236V11.2367H8.02236ZM5.83809 13.4114C7.0243 13.4114 8.02236 12.4577 8.02236 11.2367H5.02236C5.02236 10.7609 5.40771 10.4114 5.83809 10.4114V13.4114ZM3.65381 11.2367C3.65381 12.4577 4.65188 13.4114 5.83809 13.4114V10.4114C6.26847 10.4114 6.65381 10.7609 6.65381 11.2367H3.65381ZM3.65381 6.12548V11.2367H6.65381V6.12548H3.65381ZM3.1687 7.62547L5.15381 7.62548L5.15381 4.62548L3.1687 4.62547L3.1687 7.62547ZM3.4187 7.37548C3.4187 7.51354 3.30678 7.62547 3.1687 7.62547V4.62547C1.64992 4.62547 0.418704 5.8567 0.418704 7.37548H3.4187ZM3.4187 37.4233L3.4187 7.37548L0.418704 7.37548L0.418701 37.4233H3.4187ZM3.1687 37.1733C3.30677 37.1733 3.4187 37.2852 3.4187 37.4233H0.418701C0.418701 38.942 1.64992 40.1733 3.1687 40.1733V37.1733ZM28.2155 37.1733L3.1687 37.1733L3.1687 40.1733L28.2155 40.1733V37.1733ZM27.9655 37.4233C27.9655 37.2852 28.0774 37.1733 28.2155 37.1733V40.1733C29.7342 40.1733 30.9655 38.942 30.9655 37.4233H27.9655ZM27.9655 36.4305V37.4233H30.9655V36.4305H27.9655ZM7.66283 37.9305H29.4655V34.9305H7.66283V37.9305ZM3.65381 33.9568C3.65381 36.1714 5.46884 37.9305 7.66283 37.9305V34.9305C7.08543 34.9305 6.65381 34.4746 6.65381 33.9568H3.65381ZM3.65381 15.7633V33.9568H6.65381V15.7633H3.65381ZM5.83809 13.5887C4.65187 13.5887 3.65381 14.5423 3.65381 15.7633H6.65381C6.65381 16.2392 6.26847 16.5887 5.83809 16.5887V13.5887ZM8.02236 15.7633C8.02236 14.5423 7.0243 13.5887 5.83809 13.5887V16.5887C5.4077 16.5887 5.02236 16.2392 5.02236 15.7633H8.02236ZM8.02236 33.9568V15.7633H5.02236V33.9568H8.02236ZM7.66283 33.5812C7.84126 33.5812 8.02236 33.7294 8.02236 33.9568H5.02236C5.02236 35.4262 6.22467 36.5812 7.66283 36.5812V33.5812ZM31.491 33.5812H7.66283V36.5812H31.491V33.5812ZM31.1315 33.9568C31.1315 33.7294 31.3126 33.5812 31.491 33.5812V36.5812C32.9292 36.5812 34.1315 35.4262 34.1315 33.9568H31.1315ZM31.1315 7.64596V33.9568H34.1315V7.64596H31.1315ZM26.9044 9.14596H32.6315V6.14596H26.9044V9.14596ZM24.7201 6.97132C24.7201 8.19232 25.7181 9.14596 26.9044 9.14596V6.14596C27.3347 6.14596 27.7201 6.4955 27.7201 6.97132H24.7201ZM24.7201 1.34928V6.97132H27.7201V1.34928H24.7201ZM7.66282 2.84928H26.2201V-0.150722H7.66282V2.84928ZM31.491 34.9305H30.9655V37.9305H31.491V34.9305ZM32.5 33.9568C32.5 34.4746 32.0684 34.9305 31.491 34.9305V37.9305C33.685 37.9305 35.5 36.1714 35.5 33.9568H32.5ZM32.5 6.98093V33.9568H35.5V6.98093H32.5ZM32.7477 7.56355C32.5853 7.4041 32.497 7.18495 32.5002 6.95958L35.4999 7.00228C35.5082 6.41838 35.2798 5.8455 34.8498 5.42315L32.7477 7.56355ZM26.3362 1.26692L32.7477 7.56355L34.8498 5.42315L28.4383 -0.873484L26.3362 1.26692ZM26.9041 1.50003C26.7001 1.5 26.494 1.42182 26.3362 1.26691L28.4383 -0.873479C28.019 -1.2853 27.4637 -1.49989 26.9045 -1.49997L26.9041 1.50003ZM25.4043 0V2.65837e-05H28.4043V0H25.4043ZM7.66282 1.5H26.9043V-1.5H7.66282V1.5ZM6.65381 2.47367C6.65381 1.95592 7.08543 1.5 7.66282 1.5V-1.5C5.46884 -1.5 3.65381 0.259084 3.65381 2.47367H6.65381ZM6.65381 4.62548V2.47367H3.65381V4.62548H6.65381ZM3.1687 6.12547L5.15381 6.12548L5.15381 3.12548L3.1687 3.12547L3.1687 6.12547ZM1.9187 7.37548C1.9187 6.68512 2.47835 6.12547 3.1687 6.12547V3.12547C0.821488 3.12547 -1.0813 5.02827 -1.0813 7.37548L1.9187 7.37548ZM1.9187 37.4233L1.9187 7.37548L-1.0813 7.37548L-1.0813 37.4233H1.9187ZM3.1687 38.6733C2.47834 38.6733 1.9187 38.1136 1.9187 37.4233H-1.0813C-1.0813 39.7705 0.82149 41.6733 3.1687 41.6733V38.6733ZM28.2155 38.6733L3.1687 38.6733L3.1687 41.6733L28.2155 41.6733V38.6733ZM29.4655 37.4233C29.4655 38.1136 28.9058 38.6733 28.2155 38.6733V41.6733C30.5627 41.6733 32.4655 39.7705 32.4655 37.4233H29.4655ZM29.4655 36.4305V37.4233H32.4655V36.4305H29.4655ZM29.0886 6.29668V2.29894H26.0886V6.29668H29.0886ZM31.6593 4.79668H27.5886V7.79668H31.6593V4.79668ZM26.5376 3.36914L30.6082 7.36688L32.7103 5.22648L28.6397 1.22874L26.5376 3.36914ZM9.28213 9.27312H19.9076V6.27312H9.28213V9.27312ZM7.13586 7.08296C7.13586 8.19766 8.0047 9.27312 9.28213 9.27312V6.27312C9.84513 6.27312 10.1359 6.73054 10.1359 7.08296H7.13586ZM9.28213 4.8928C8.0047 4.8928 7.13586 5.96826 7.13586 7.08296H10.1359C10.1359 7.43539 9.84513 7.8928 9.28213 7.8928V4.8928ZM19.9076 4.8928H9.28213V7.8928H19.9076V4.8928ZM22.0539 7.08296C22.0539 5.96777 21.1843 4.8928 19.9076 4.8928V7.8928C19.3448 7.8928 19.0539 7.43588 19.0539 7.08296H22.0539ZM19.9076 9.27312C21.1843 9.27312 22.0539 8.19815 22.0539 7.08296H19.0539C19.0539 6.73004 19.3448 6.27312 19.9076 6.27312V9.27312ZM9.33683 12.6779H29.4016V9.67789H9.33683V12.6779ZM7.1356 10.4877C7.1356 11.7192 8.14292 12.6779 9.33683 12.6779V9.67789C9.75556 9.67789 10.1356 10.0185 10.1356 10.4877H7.1356ZM9.33683 8.29757C8.14292 8.29757 7.1356 9.25623 7.1356 10.4877H10.1356C10.1356 10.957 9.75556 11.2976 9.33683 11.2976V8.29757ZM29.4016 8.29757H9.33683V11.2976H29.4016V8.29757ZM31.6028 10.4877C31.6028 9.25623 30.5955 8.29757 29.4016 8.29757V11.2976C28.9829 11.2976 28.6028 10.957 28.6028 10.4877H31.6028ZM29.4016 12.6779C30.5955 12.6779 31.6028 11.7192 31.6028 10.4877H28.6028C28.6028 10.0185 28.9829 9.67789 29.4016 9.67789V12.6779ZM29.4016 13.0824H9.33683V16.0824H29.4016V13.0824ZM28.6028 13.8922C28.6028 13.423 28.9829 13.0824 29.4016 13.0824V16.0824C30.5955 16.0824 31.6028 15.1237 31.6028 13.8922H28.6028ZM29.4016 14.7021C28.9829 14.7021 28.6028 14.3614 28.6028 13.8922H31.6028C31.6028 12.6607 30.5955 11.7021 29.4016 11.7021V14.7021ZM9.33683 14.7021H29.4016V11.7021H9.33683V14.7021ZM10.1356 13.8922C10.1356 14.3614 9.75556 14.7021 9.33683 14.7021V11.7021C8.14292 11.7021 7.1356 12.6607 7.1356 13.8922H10.1356ZM9.33683 13.0824C9.75555 13.0824 10.1356 13.423 10.1356 13.8922H7.1356C7.1356 15.1237 8.14292 16.0824 9.33683 16.0824V13.0824ZM9.33683 19.4874H29.4016V16.4874H9.33683V19.4874ZM7.1356 17.2972C7.1356 18.5287 8.14292 19.4874 9.33683 19.4874V16.4874C9.75556 16.4874 10.1356 16.828 10.1356 17.2972H7.1356ZM9.33683 15.107C8.14292 15.107 7.1356 16.0657 7.1356 17.2972H10.1356C10.1356 17.7664 9.75555 18.107 9.33683 18.107V15.107ZM29.4016 15.107H9.33683V18.107H29.4016V15.107ZM31.6028 17.2972C31.6028 16.0657 30.5955 15.107 29.4016 15.107V18.107C28.9829 18.107 28.6028 17.7664 28.6028 17.2972H31.6028ZM29.4016 19.4874C30.5955 19.4874 31.6028 18.5287 31.6028 17.2972H28.6028C28.6028 16.828 28.9829 16.4874 29.4016 16.4874V19.4874ZM28.1361 27.0006C28.1361 28.6933 26.7384 30.1017 24.9693 30.1017V33.1017C28.355 33.1017 31.1361 30.3901 31.1361 27.0006H28.1361ZM24.9693 23.8996C26.7384 23.8996 28.1361 25.3079 28.1361 27.0006H31.1361C31.1361 23.6111 28.355 20.8996 24.9693 20.8996V23.8996ZM21.8025 27.0006C21.8025 25.3079 23.2002 23.8996 24.9693 23.8996V20.8996C21.5836 20.8996 18.8025 23.6111 18.8025 27.0006H21.8025ZM24.9693 30.1017C23.2002 30.1017 21.8025 28.6933 21.8025 27.0006H18.8025C18.8025 30.3901 21.5836 33.1017 24.9693 33.1017V30.1017ZM29.5361 27.0006C29.5361 29.4556 27.5116 31.482 24.9693 31.482V34.482C29.1282 34.482 32.5361 31.1525 32.5361 27.0006H29.5361ZM24.9693 22.5193C27.5116 22.5193 29.5361 24.5456 29.5361 27.0006H32.5361C32.5361 22.8488 29.1282 19.5193 24.9693 19.5193V22.5193ZM20.4025 27.0006C20.4025 24.5456 22.427 22.5193 24.9693 22.5193V19.5193C20.8104 19.5193 17.4025 22.8488 17.4025 27.0006H20.4025ZM24.9693 31.482C22.427 31.482 20.4025 29.4556 20.4025 27.0006H17.4025C17.4025 31.1525 20.8104 34.482 24.9693 34.482V31.482ZM28.8605 27.1672C29.7246 26.3047 29.7155 24.9063 28.8411 24.0549L26.7482 26.2043C26.424 25.8886 26.4204 25.3641 26.7411 25.044L28.8605 27.1672ZM26.095 29.9278L28.8605 27.1672L26.7411 25.044L23.9756 27.8046L26.095 29.9278ZM24.5442 30.5714C25.1231 30.5696 25.6817 30.3404 26.095 29.9278L23.9756 27.8047C24.1269 27.6536 24.3286 27.5721 24.5348 27.5714L24.5442 30.5714ZM22.9894 29.9377C23.4053 30.3476 23.9653 30.5732 24.5442 30.5714L24.5348 27.5714C24.7409 27.5708 24.9431 27.651 25.0953 27.801L22.9894 29.9377ZM21.0881 28.0638L22.9894 29.9377L25.0953 27.801L23.194 25.9272L21.0881 28.0638ZM21.0876 24.9515C20.2185 25.8086 20.2188 27.207 21.0881 28.0638L23.194 25.9271C23.5165 26.245 23.5166 26.7694 23.1942 27.0874L21.0876 24.9515ZM24.1838 24.951C23.3263 24.1058 21.9449 24.106 21.0876 24.9515L23.1942 27.0874C22.8836 27.3938 22.3886 27.3938 22.0779 27.0876L24.1838 24.951ZM25.587 26.334L24.1838 24.951L22.0779 27.0876L23.4812 28.4706L25.587 26.334ZM25.745 24.0741L23.4744 26.3407L25.5938 28.4639L27.8644 26.1973L25.745 24.0741ZM28.8411 24.0549C27.9786 23.2151 26.5973 23.2233 25.745 24.0741L27.8644 26.1973C27.5555 26.5056 27.0605 26.5084 26.7482 26.2043L28.8411 24.0549Z" fill="#485055" mask="url(#path-1-inside-1)"/>
</svg>
