<svg width="79" height="79" viewBox="0 0 79 79" fill="none" xmlns="http://www.w3.org/2000/svg">
<g opacity="0.2" filter="url(#filter0_b)">
<circle cx="39.5" cy="39.5" r="39.5" fill="#E6E6E6"/>
</g>
<mask id="path-2-inside-1" fill="white">
<path fill-rule="evenodd" clip-rule="evenodd" d="M56.8752 42.1268H57.4517C58.1321 42.1268 58.6856 42.6725 58.6855 43.3433V49.1187C58.6855 49.7894 58.1321 50.3351 57.4517 50.3351H56.8752V55.454C56.8752 56.7802 55.7809 57.8591 54.4358 57.8591H23.8116C22.4664 57.8591 21.3721 56.7802 21.3721 55.454V37.0079C21.3721 36.0392 21.9562 35.2032 22.7951 34.8224V34.3469C22.7951 33.3359 23.6294 32.5134 24.6548 32.5134H26.0605L26.8859 24.2752C26.9823 23.3135 27.8545 22.6085 28.8298 22.7033L37.3365 23.5318C37.6381 23.5612 37.8585 23.8261 37.8287 24.1235C37.7989 24.4209 37.5303 24.6375 37.2286 24.6088L28.7219 23.7803C28.3483 23.7434 28.0152 24.0137 27.9784 24.3816L26.9543 34.6028H27.6542L28.3123 28.0338C28.3611 27.5472 28.6781 27.1383 29.1398 26.9667C29.7531 26.7387 30.2847 26.313 30.6365 25.7678C30.8983 25.3622 31.3643 25.1402 31.8529 25.1874L36.0625 25.5974C36.3642 25.6268 36.5845 25.8917 36.5547 26.1891C36.5249 26.4865 36.2564 26.7032 35.9546 26.6744L31.745 26.2644C31.6715 26.257 31.6004 26.2904 31.5627 26.3488C31.0842 27.0902 30.3612 27.6693 29.527 27.9794C29.46 28.0043 29.412 28.0674 29.4047 28.1403L28.7572 34.6028H31.4411L41.0858 20.6494C41.3532 20.2625 41.7574 20.0015 42.2239 19.9144C42.6907 19.8271 43.1636 19.9244 43.5559 20.1881L54.7301 27.6957C55.54 28.24 55.7499 29.3325 55.198 30.131L53.5512 32.5134H53.9816C55.0071 32.5134 55.8413 33.3359 55.8413 34.3469V35.0439C56.4661 35.4799 56.8752 36.1975 56.8752 37.0079V42.1268ZM54.7436 34.347C54.7436 33.9327 54.4019 33.5957 53.9816 33.5957H52.8031L52.107 34.6029H54.4358C54.5401 34.6029 54.6427 34.6101 54.7436 34.6227V34.347ZM42.4283 20.9776C42.2498 21.011 42.0952 21.1109 41.9929 21.2588L32.7695 34.6028H33.6124L40.511 24.6222C40.7861 24.2243 41.2744 24.0099 41.7559 24.0765C42.4052 24.1661 43.0787 24.0435 43.6524 23.7313C44.0792 23.4989 44.5964 23.5239 45.0021 23.7965L50.7947 27.6884C51.2004 27.9609 51.4132 28.4263 51.35 28.903C51.2649 29.5437 51.3955 30.2066 51.7177 30.7696C51.9601 31.1933 51.9371 31.7075 51.6578 32.1115L49.9358 34.6027H50.7787L54.291 29.5215C54.5021 29.216 54.4217 28.7982 54.1119 28.59L42.9377 21.0823C42.8235 21.0056 42.6914 20.9657 42.5562 20.9657C42.5137 20.9657 42.4709 20.9697 42.4283 20.9776ZM37.7225 34.6028C37.8824 32.2855 39.8444 30.448 42.2346 30.448C44.625 30.448 46.5869 32.2855 46.7469 34.6027H48.6076L50.7508 31.502C50.7925 31.4416 50.7968 31.3628 50.7616 31.3013C50.3236 30.5357 50.1459 29.6342 50.2615 28.7628C50.2705 28.6942 50.2372 28.6236 50.1766 28.5828L44.3838 24.6908C44.323 24.65 44.2442 24.6452 44.1828 24.6787C43.4025 25.1035 42.4866 25.2701 41.6035 25.1483C41.5952 25.1472 41.5868 25.1466 41.5785 25.1466C41.5158 25.1466 41.4547 25.1784 41.4179 25.2317L34.9406 34.6028H37.7225ZM38.8231 34.6028H45.6462C45.4891 32.8829 44.0194 31.5303 42.2346 31.5303C40.4499 31.5303 38.9803 32.8829 38.8231 34.6028ZM24.6548 33.5956C24.2345 33.5956 23.8928 33.9326 23.8928 34.3469V34.6028H25.8512L25.9521 33.5956H24.6548ZM23.8116 35.685C23.0717 35.685 22.4698 36.2784 22.4698 37.0079V38.5094H55.7775V37.0079C55.7775 36.2784 55.1757 35.685 54.4358 35.685H23.8116ZM54.4358 56.7768C55.1757 56.7768 55.7775 56.1834 55.7775 55.454V53.9525H28.9439C28.6408 53.9525 28.3951 53.7102 28.3951 53.4114C28.3951 53.1125 28.6407 52.8703 28.9439 52.8703H55.7775V50.3351H50.5589C48.2636 50.3351 46.3962 48.494 46.3962 46.231C46.3962 45.8071 46.4617 45.3982 46.5832 45.0134L46.5837 45.0119C46.6406 44.8318 46.7106 44.6573 46.7911 44.4887C46.7948 44.4808 46.7983 44.4727 46.8019 44.4648C46.8037 44.4609 46.8055 44.457 46.8073 44.4532C46.8097 44.4486 46.8122 44.4442 46.8145 44.4396C47.4904 43.0718 48.9148 42.1268 50.559 42.1268H55.7775V39.5916H22.4698V52.8703H25.4295C25.7326 52.8703 25.9783 53.1125 25.9783 53.4114C25.9783 53.7102 25.7327 53.9525 25.4295 53.9525H22.4698V55.454C22.4698 56.1834 23.0717 56.7768 23.8116 56.7768H54.4358ZM57.4517 49.2529C57.5268 49.2529 57.5879 49.1926 57.5879 49.1186V43.3433C57.5879 43.2693 57.5267 43.2091 57.4517 43.2091H50.5591C49.3972 43.2091 48.3841 43.8498 47.8645 44.7917C47.8409 44.8345 47.8183 44.878 47.7967 44.922C47.7537 45.0101 47.7148 45.1005 47.6803 45.193C47.5599 45.5168 47.494 45.8665 47.494 46.231C47.494 46.5954 47.5598 46.9451 47.6803 47.2689C47.7147 47.3615 47.7536 47.4519 47.7967 47.5399C47.8183 47.5839 47.8409 47.6274 47.8645 47.6702C48.3841 48.6121 49.3972 49.2529 50.5591 49.2529H57.4517ZM48.4609 46.2315C48.4609 45.0209 49.4599 44.036 50.6878 44.036C51.9157 44.036 52.9146 45.0209 52.9146 46.2315C52.9146 47.442 51.9157 48.4269 50.6878 48.4269C49.4599 48.4269 48.4609 47.442 48.4609 46.2315ZM49.5586 46.2315C49.5586 46.8453 50.0652 47.3447 50.6878 47.3447C51.3104 47.3447 51.8169 46.8453 51.8169 46.2315C51.8169 45.6176 51.3104 45.1182 50.6878 45.1182C50.0652 45.1182 49.5586 45.6177 49.5586 46.2315Z"/>
</mask>
<path fill-rule="evenodd" clip-rule="evenodd" d="M56.8752 42.1268H57.4517C58.1321 42.1268 58.6856 42.6725 58.6855 43.3433V49.1187C58.6855 49.7894 58.1321 50.3351 57.4517 50.3351H56.8752V55.454C56.8752 56.7802 55.7809 57.8591 54.4358 57.8591H23.8116C22.4664 57.8591 21.3721 56.7802 21.3721 55.454V37.0079C21.3721 36.0392 21.9562 35.2032 22.7951 34.8224V34.3469C22.7951 33.3359 23.6294 32.5134 24.6548 32.5134H26.0605L26.8859 24.2752C26.9823 23.3135 27.8545 22.6085 28.8298 22.7033L37.3365 23.5318C37.6381 23.5612 37.8585 23.8261 37.8287 24.1235C37.7989 24.4209 37.5303 24.6375 37.2286 24.6088L28.7219 23.7803C28.3483 23.7434 28.0152 24.0137 27.9784 24.3816L26.9543 34.6028H27.6542L28.3123 28.0338C28.3611 27.5472 28.6781 27.1383 29.1398 26.9667C29.7531 26.7387 30.2847 26.313 30.6365 25.7678C30.8983 25.3622 31.3643 25.1402 31.8529 25.1874L36.0625 25.5974C36.3642 25.6268 36.5845 25.8917 36.5547 26.1891C36.5249 26.4865 36.2564 26.7032 35.9546 26.6744L31.745 26.2644C31.6715 26.257 31.6004 26.2904 31.5627 26.3488C31.0842 27.0902 30.3612 27.6693 29.527 27.9794C29.46 28.0043 29.412 28.0674 29.4047 28.1403L28.7572 34.6028H31.4411L41.0858 20.6494C41.3532 20.2625 41.7574 20.0015 42.2239 19.9144C42.6907 19.8271 43.1636 19.9244 43.5559 20.1881L54.7301 27.6957C55.54 28.24 55.7499 29.3325 55.198 30.131L53.5512 32.5134H53.9816C55.0071 32.5134 55.8413 33.3359 55.8413 34.3469V35.0439C56.4661 35.4799 56.8752 36.1975 56.8752 37.0079V42.1268ZM54.7436 34.347C54.7436 33.9327 54.4019 33.5957 53.9816 33.5957H52.8031L52.107 34.6029H54.4358C54.5401 34.6029 54.6427 34.6101 54.7436 34.6227V34.347ZM42.4283 20.9776C42.2498 21.011 42.0952 21.1109 41.9929 21.2588L32.7695 34.6028H33.6124L40.511 24.6222C40.7861 24.2243 41.2744 24.0099 41.7559 24.0765C42.4052 24.1661 43.0787 24.0435 43.6524 23.7313C44.0792 23.4989 44.5964 23.5239 45.0021 23.7965L50.7947 27.6884C51.2004 27.9609 51.4132 28.4263 51.35 28.903C51.2649 29.5437 51.3955 30.2066 51.7177 30.7696C51.9601 31.1933 51.9371 31.7075 51.6578 32.1115L49.9358 34.6027H50.7787L54.291 29.5215C54.5021 29.216 54.4217 28.7982 54.1119 28.59L42.9377 21.0823C42.8235 21.0056 42.6914 20.9657 42.5562 20.9657C42.5137 20.9657 42.4709 20.9697 42.4283 20.9776ZM37.7225 34.6028C37.8824 32.2855 39.8444 30.448 42.2346 30.448C44.625 30.448 46.5869 32.2855 46.7469 34.6027H48.6076L50.7508 31.502C50.7925 31.4416 50.7968 31.3628 50.7616 31.3013C50.3236 30.5357 50.1459 29.6342 50.2615 28.7628C50.2705 28.6942 50.2372 28.6236 50.1766 28.5828L44.3838 24.6908C44.323 24.65 44.2442 24.6452 44.1828 24.6787C43.4025 25.1035 42.4866 25.2701 41.6035 25.1483C41.5952 25.1472 41.5868 25.1466 41.5785 25.1466C41.5158 25.1466 41.4547 25.1784 41.4179 25.2317L34.9406 34.6028H37.7225ZM38.8231 34.6028H45.6462C45.4891 32.8829 44.0194 31.5303 42.2346 31.5303C40.4499 31.5303 38.9803 32.8829 38.8231 34.6028ZM24.6548 33.5956C24.2345 33.5956 23.8928 33.9326 23.8928 34.3469V34.6028H25.8512L25.9521 33.5956H24.6548ZM23.8116 35.685C23.0717 35.685 22.4698 36.2784 22.4698 37.0079V38.5094H55.7775V37.0079C55.7775 36.2784 55.1757 35.685 54.4358 35.685H23.8116ZM54.4358 56.7768C55.1757 56.7768 55.7775 56.1834 55.7775 55.454V53.9525H28.9439C28.6408 53.9525 28.3951 53.7102 28.3951 53.4114C28.3951 53.1125 28.6407 52.8703 28.9439 52.8703H55.7775V50.3351H50.5589C48.2636 50.3351 46.3962 48.494 46.3962 46.231C46.3962 45.8071 46.4617 45.3982 46.5832 45.0134L46.5837 45.0119C46.6406 44.8318 46.7106 44.6573 46.7911 44.4887C46.7948 44.4808 46.7983 44.4727 46.8019 44.4648C46.8037 44.4609 46.8055 44.457 46.8073 44.4532C46.8097 44.4486 46.8122 44.4442 46.8145 44.4396C47.4904 43.0718 48.9148 42.1268 50.559 42.1268H55.7775V39.5916H22.4698V52.8703H25.4295C25.7326 52.8703 25.9783 53.1125 25.9783 53.4114C25.9783 53.7102 25.7327 53.9525 25.4295 53.9525H22.4698V55.454C22.4698 56.1834 23.0717 56.7768 23.8116 56.7768H54.4358ZM57.4517 49.2529C57.5268 49.2529 57.5879 49.1926 57.5879 49.1186V43.3433C57.5879 43.2693 57.5267 43.2091 57.4517 43.2091H50.5591C49.3972 43.2091 48.3841 43.8498 47.8645 44.7917C47.8409 44.8345 47.8183 44.878 47.7967 44.922C47.7537 45.0101 47.7148 45.1005 47.6803 45.193C47.5599 45.5168 47.494 45.8665 47.494 46.231C47.494 46.5954 47.5598 46.9451 47.6803 47.2689C47.7147 47.3615 47.7536 47.4519 47.7967 47.5399C47.8183 47.5839 47.8409 47.6274 47.8645 47.6702C48.3841 48.6121 49.3972 49.2529 50.5591 49.2529H57.4517ZM48.4609 46.2315C48.4609 45.0209 49.4599 44.036 50.6878 44.036C51.9157 44.036 52.9146 45.0209 52.9146 46.2315C52.9146 47.442 51.9157 48.4269 50.6878 48.4269C49.4599 48.4269 48.4609 47.442 48.4609 46.2315ZM49.5586 46.2315C49.5586 46.8453 50.0652 47.3447 50.6878 47.3447C51.3104 47.3447 51.8169 46.8453 51.8169 46.2315C51.8169 45.6176 51.3104 45.1182 50.6878 45.1182C50.0652 45.1182 49.5586 45.6177 49.5586 46.2315Z" fill="white"/>
<path d="M56.8752 42.1268H55.8752V43.1268H56.8752V42.1268ZM58.6855 43.3433L57.6855 43.3432V43.3433H58.6855ZM56.8752 50.3351V49.3351H55.8752V50.3351H56.8752ZM22.7951 34.8224L23.2084 35.733L23.7951 35.4667V34.8224H22.7951ZM26.0605 32.5134V33.5134H26.9653L27.0555 32.6131L26.0605 32.5134ZM26.8859 24.2752L25.8909 24.1755L25.8909 24.1755L26.8859 24.2752ZM28.8298 22.7033L28.9267 21.708L28.9266 21.708L28.8298 22.7033ZM37.3365 23.5318L37.2395 24.5271L37.2396 24.5271L37.3365 23.5318ZM37.8287 24.1235L36.8337 24.0238V24.0238L37.8287 24.1235ZM37.2286 24.6088L37.1316 25.6041L37.1339 25.6043L37.2286 24.6088ZM28.7219 23.7803L28.6237 24.7755L28.6249 24.7756L28.7219 23.7803ZM27.9784 24.3816L26.9833 24.2819L26.9833 24.2819L27.9784 24.3816ZM26.9543 34.6028L25.9593 34.5031L25.8491 35.6028H26.9543V34.6028ZM27.6542 34.6028V35.6028H28.559L28.6492 34.7024L27.6542 34.6028ZM28.3123 28.0338L29.3073 28.1335L29.3073 28.1335L28.3123 28.0338ZM29.1398 26.9667L28.7913 26.0294L28.7913 26.0294L29.1398 26.9667ZM30.6365 25.7678L29.7964 25.2255L29.7963 25.2256L30.6365 25.7678ZM31.8529 25.1874L31.9499 24.1921L31.949 24.192L31.8529 25.1874ZM36.0625 25.5974L35.9656 26.5927L35.9656 26.5927L36.0625 25.5974ZM36.5547 26.1891L35.5597 26.0894V26.0894L36.5547 26.1891ZM35.9546 26.6744L35.8577 27.6697L35.8595 27.6699L35.9546 26.6744ZM31.745 26.2644L31.6457 27.2594L31.6481 27.2597L31.745 26.2644ZM31.5627 26.3488L30.7226 25.8063L30.7225 25.8065L31.5627 26.3488ZM29.527 27.9794L29.8749 28.917L29.8754 28.9168L29.527 27.9794ZM29.4047 28.1403L30.3998 28.2399V28.2399L29.4047 28.1403ZM28.7572 34.6028L27.7622 34.5031L27.652 35.6028H28.7572V34.6028ZM31.4411 34.6028V35.6028H31.9655L32.2637 35.1714L31.4411 34.6028ZM41.0858 20.6494L41.9085 21.218L41.9085 21.218L41.0858 20.6494ZM42.2239 19.9144L42.4076 20.8974L42.4078 20.8973L42.2239 19.9144ZM43.5559 20.1881L42.9981 21.018L42.9982 21.0181L43.5559 20.1881ZM54.7301 27.6957L55.2879 26.8657L55.2878 26.8657L54.7301 27.6957ZM55.198 30.131L54.3754 29.5624L54.3754 29.5624L55.198 30.131ZM53.5512 32.5134L52.7286 31.9448L51.6444 33.5134H53.5512V32.5134ZM55.8413 35.0439H54.8413V35.5655L55.2691 35.864L55.8413 35.0439ZM53.9816 33.5957V34.5957H53.9818L53.9816 33.5957ZM52.8031 33.5957V32.5957H52.2787L51.9805 33.0272L52.8031 33.5957ZM52.107 34.6029L51.2844 34.0343L50.2003 35.6029H52.107V34.6029ZM54.7436 34.6227L54.6197 35.615L55.7436 35.7554V34.6227H54.7436ZM41.9929 21.2588L41.1704 20.6901L41.1703 20.6902L41.9929 21.2588ZM42.4283 20.9776L42.2454 19.9945L42.2444 19.9947L42.4283 20.9776ZM32.7695 34.6028L31.9469 34.0342L30.8626 35.6028H32.7695V34.6028ZM33.6124 34.6028V35.6028H34.1368L34.435 35.1714L33.6124 34.6028ZM40.511 24.6222L39.6884 24.0535L39.6884 24.0536L40.511 24.6222ZM41.7559 24.0765L41.6189 25.0671L41.6192 25.0671L41.7559 24.0765ZM43.6524 23.7313L44.1305 24.6096L44.1305 24.6096L43.6524 23.7313ZM45.0021 23.7965L45.5598 22.9664L45.5598 22.9664L45.0021 23.7965ZM50.7947 27.6884L50.2371 28.5184L50.2371 28.5185L50.7947 27.6884ZM51.35 28.903L52.3413 29.0345L52.3413 29.0344L51.35 28.903ZM51.7177 30.7696L52.5857 30.273L52.5856 30.2729L51.7177 30.7696ZM51.6578 32.1115L52.4804 32.6801L52.4804 32.6801L51.6578 32.1115ZM49.9358 34.6027L49.1132 34.0341L48.029 35.6027H49.9358V34.6027ZM50.7787 34.6027V35.6027H51.3031L51.6013 35.1713L50.7787 34.6027ZM54.291 29.5215L55.1136 30.0901L55.1136 30.09L54.291 29.5215ZM54.1119 28.59L54.6697 27.76L54.6696 27.7599L54.1119 28.59ZM42.9377 21.0823L43.4954 20.2522L43.4952 20.2521L42.9377 21.0823ZM37.7225 34.6028V35.6028H38.6559L38.7202 34.6716L37.7225 34.6028ZM46.7469 34.6027L45.7493 34.6716L45.8136 35.6027H46.7469V34.6027ZM48.6076 34.6027V35.6027H49.1321L49.4302 35.1713L48.6076 34.6027ZM50.7508 31.502L51.5734 32.0706L51.5741 32.0696L50.7508 31.502ZM50.7616 31.3013L51.6299 30.8052L51.6296 30.8047L50.7616 31.3013ZM50.2615 28.7628L51.2528 28.8943L51.2529 28.8934L50.2615 28.7628ZM50.1766 28.5828L50.7348 27.7531L50.7343 27.7528L50.1766 28.5828ZM44.3838 24.6908L44.9415 23.8608L44.9411 23.8605L44.3838 24.6908ZM44.1828 24.6787L44.6609 25.557L44.6621 25.5564L44.1828 24.6787ZM41.6035 25.1483L41.7401 24.1577L41.7356 24.1571L41.6035 25.1483ZM41.4179 25.2317L42.2405 25.8003L42.2411 25.7995L41.4179 25.2317ZM34.9406 34.6028L34.118 34.0342L33.0337 35.6028H34.9406V34.6028ZM45.6462 34.6028V35.6028H46.7418L46.6421 34.5118L45.6462 34.6028ZM38.8231 34.6028L37.8273 34.5118L37.7275 35.6028H38.8231V34.6028ZM42.2346 31.5303V32.5303H42.2347L42.2346 31.5303ZM23.8928 34.6028H22.8928V35.6028H23.8928V34.6028ZM25.8512 34.6028V35.6028H26.756L26.8462 34.7024L25.8512 34.6028ZM25.9521 33.5956L26.9471 33.6953L27.0573 32.5956H25.9521V33.5956ZM22.4698 38.5094H21.4698V39.5094H22.4698V38.5094ZM55.7775 38.5094V39.5094H56.7775V38.5094H55.7775ZM55.7775 53.9525H56.7775V52.9525H55.7775V53.9525ZM55.7775 52.8703V53.8703H56.7775V52.8703H55.7775ZM55.7775 50.3351H56.7775V49.3351H55.7775V50.3351ZM46.5832 45.0134L47.5369 45.3144L47.5399 45.3044L46.5832 45.0134ZM46.5837 45.0119L45.6302 44.7103L45.627 44.7208L46.5837 45.0119ZM46.7911 44.4887L47.6935 44.9195L47.6943 44.9178L46.7911 44.4887ZM46.8019 44.4648L45.8911 44.0519L45.891 44.0522L46.8019 44.4648ZM46.8073 44.4532L45.9154 44.0008L45.9098 44.0123L46.8073 44.4532ZM46.8145 44.4396L45.918 43.9965L45.9169 43.9988L46.8145 44.4396ZM55.7775 42.1268V43.1268H56.7775V42.1268H55.7775ZM55.7775 39.5916H56.7775V38.5916H55.7775V39.5916ZM22.4698 39.5916V38.5916H21.4698V39.5916H22.4698ZM22.4698 52.8703H21.4698V53.8703H22.4698V52.8703ZM22.4698 53.9525V52.9525H21.4698V53.9525H22.4698ZM47.8645 44.7917L48.74 45.275L48.7401 45.2748L47.8645 44.7917ZM47.7967 44.922L46.899 44.4813L46.8981 44.4832L47.7967 44.922ZM47.6803 45.193L46.7432 44.8439L46.7431 44.8444L47.6803 45.193ZM47.6803 47.2689L48.6178 46.9207L48.6175 46.9201L47.6803 47.2689ZM47.7967 47.5399L46.8986 47.9797L46.899 47.9806L47.7967 47.5399ZM47.8645 47.6702L48.7401 47.1871L48.74 47.1869L47.8645 47.6702ZM57.4517 41.1268H56.8752V43.1268H57.4517V41.1268ZM59.6855 43.3434C59.6857 42.1068 58.6708 41.1268 57.4517 41.1268V43.1268C57.5933 43.1268 57.6855 43.2382 57.6855 43.3432L59.6855 43.3434ZM59.6855 49.1187V43.3433H57.6855V49.1187H59.6855ZM57.4517 51.3351C58.6709 51.3351 59.6855 50.3551 59.6855 49.1187H57.6855C57.6855 49.2238 57.5932 49.3351 57.4517 49.3351V51.3351ZM56.8752 51.3351H57.4517V49.3351H56.8752V51.3351ZM57.8752 55.454V50.3351H55.8752V55.454H57.8752ZM54.4358 58.8591C56.3198 58.8591 57.8752 57.3458 57.8752 55.454H55.8752C55.8752 56.2146 55.2421 56.8591 54.4358 56.8591V58.8591ZM23.8116 58.8591H54.4358V56.8591H23.8116V58.8591ZM20.3721 55.454C20.3721 57.3458 21.9275 58.8591 23.8116 58.8591V56.8591C23.0052 56.8591 22.3721 56.2146 22.3721 55.454H20.3721ZM20.3721 37.0079V55.454H22.3721V37.0079H20.3721ZM22.3817 33.9118C21.206 34.4455 20.3721 35.625 20.3721 37.0079H22.3721C22.3721 36.4535 22.7063 35.9609 23.2084 35.733L22.3817 33.9118ZM21.7951 34.3469V34.8224H23.7951V34.3469H21.7951ZM24.6548 31.5134C23.0905 31.5134 21.7951 32.7703 21.7951 34.3469H23.7951C23.7951 33.9015 24.1682 33.5134 24.6548 33.5134V31.5134ZM26.0605 31.5134H24.6548V33.5134H26.0605V31.5134ZM25.8909 24.1755L25.0655 32.4137L27.0555 32.6131L27.8809 24.3749L25.8909 24.1755ZM28.9266 21.708C27.416 21.5611 26.0436 22.6522 25.8909 24.1755L27.8809 24.3749C27.921 23.9747 28.2929 23.6558 28.7329 23.6986L28.9266 21.708ZM37.4334 22.5365L28.9267 21.708L28.7328 23.6986L37.2395 24.5271L37.4334 22.5365ZM38.8237 24.2232C38.91 23.3621 38.2727 22.6182 37.4334 22.5365L37.2396 24.5271C37.0036 24.5041 36.807 24.29 36.8337 24.0238L38.8237 24.2232ZM37.1339 25.6043C37.9674 25.6836 38.7375 25.084 38.8237 24.2231L36.8337 24.0238C36.8603 23.7578 37.0931 23.5914 37.3233 23.6133L37.1339 25.6043ZM28.6249 24.7756L37.1316 25.6041L37.3255 23.6135L28.8188 22.785L28.6249 24.7756ZM28.9734 24.4813C28.9542 24.673 28.7884 24.7917 28.6237 24.7755L28.8201 22.7851C27.9082 22.6951 27.0763 23.3544 26.9833 24.2819L28.9734 24.4813ZM27.9493 34.7025L28.9734 24.4813L26.9833 24.2819L25.9593 34.5031L27.9493 34.7025ZM27.6542 33.6028H26.9543V35.6028H27.6542V33.6028ZM27.3173 27.9341L26.6592 34.5031L28.6492 34.7024L29.3073 28.1335L27.3173 27.9341ZM28.7913 26.0294C27.9752 26.3328 27.4044 27.0643 27.3173 27.9341L29.3073 28.1335C29.3177 28.03 29.381 27.9439 29.4882 27.904L28.7913 26.0294ZM29.7963 25.2256C29.5626 25.5877 29.2044 25.8758 28.7913 26.0294L29.4882 27.904C30.3019 27.6016 31.0068 27.0382 31.4768 26.31L29.7963 25.2256ZM31.949 24.192C31.097 24.1098 30.2657 24.4983 29.7964 25.2255L31.4767 26.3101C31.5309 26.2261 31.6316 26.1707 31.7568 26.1828L31.949 24.192ZM36.1594 24.6021L31.9499 24.1921L31.756 26.1827L35.9656 26.5927L36.1594 24.6021ZM37.5498 26.2888C37.636 25.4277 36.9987 24.6838 36.1594 24.6021L35.9656 26.5927C35.7296 26.5697 35.533 26.3557 35.5597 26.0894L37.5498 26.2888ZM35.8595 27.6699C36.6941 27.7496 37.4636 27.1491 37.5498 26.2888L35.5597 26.0894C35.5863 25.824 35.8188 25.6569 36.0498 25.6789L35.8595 27.6699ZM31.6481 27.2597L35.8577 27.6697L36.0516 25.6791L31.842 25.2691L31.6481 27.2597ZM32.4028 26.8912C32.2253 27.1661 31.9234 27.2871 31.6457 27.2594L31.8443 25.2693C31.4195 25.2269 30.9755 25.4147 30.7226 25.8063L32.4028 26.8912ZM29.8754 28.9168C30.9101 28.5322 31.8063 27.8154 32.4029 26.891L30.7225 25.8065C30.3621 26.365 29.8124 26.8065 29.1786 27.0421L29.8754 28.9168ZM30.3998 28.2399C30.3702 28.5351 30.177 28.8049 29.8749 28.917L29.1791 27.0419C28.743 27.2037 28.4539 27.5998 28.4097 28.0406L30.3998 28.2399ZM29.7522 34.7025L30.3998 28.2399L28.4097 28.0406L27.7622 34.5031L29.7522 34.7025ZM31.4411 33.6028H28.7572V35.6028H31.4411V33.6028ZM40.2632 20.0808L30.6185 34.0342L32.2637 35.1714L41.9085 21.218L40.2632 20.0808ZM42.0403 18.9314C41.3172 19.0665 40.6821 19.4747 40.2632 20.0809L41.9085 21.218C42.0243 21.0504 42.1976 20.9366 42.4076 20.8974L42.0403 18.9314ZM44.1137 19.3581C43.503 18.9476 42.7636 18.7961 42.0401 18.9314L42.4078 20.8973C42.6178 20.8581 42.8242 20.9012 42.9981 21.018L44.1137 19.3581ZM55.2878 26.8657L44.1136 19.358L42.9982 21.0181L54.1724 28.5258L55.2878 26.8657ZM56.0206 30.6996C56.8924 29.4384 56.5563 27.7181 55.2879 26.8657L54.1723 28.5257C54.5238 28.7619 54.6075 29.2266 54.3754 29.5624L56.0206 30.6996ZM54.3738 33.082L56.0206 30.6996L54.3754 29.5624L52.7286 31.9448L54.3738 33.082ZM53.9816 31.5134H53.5512V33.5134H53.9816V31.5134ZM56.8413 34.3469C56.8413 32.7703 55.546 31.5134 53.9816 31.5134V33.5134C54.4682 33.5134 54.8413 33.9015 54.8413 34.3469H56.8413ZM56.8413 35.0439V34.3469H54.8413V35.0439H56.8413ZM57.8752 37.0079C57.8752 35.8514 57.2903 34.8356 56.4136 34.2239L55.2691 35.864C55.642 36.1242 55.8752 36.5435 55.8752 37.0079H57.8752ZM57.8752 42.1268V37.0079H55.8752V42.1268H57.8752ZM53.9818 34.5957C53.8629 34.5958 53.7436 34.4981 53.7436 34.347H55.7436C55.7436 33.3672 54.9408 32.5956 53.9814 32.5957L53.9818 34.5957ZM52.8031 34.5957H53.9816V32.5957H52.8031V34.5957ZM52.9296 35.1715L53.6258 34.1643L51.9805 33.0272L51.2844 34.0343L52.9296 35.1715ZM54.4358 33.6029H52.107V35.6029H54.4358V33.6029ZM54.8676 33.6304C54.7304 33.6133 54.5862 33.6029 54.4358 33.6029V35.6029C54.4941 35.6029 54.555 35.6069 54.6197 35.615L54.8676 33.6304ZM53.7436 34.347V34.6227H55.7436V34.347H53.7436ZM42.8154 21.8275C42.7662 21.8987 42.6901 21.946 42.6121 21.9606L42.2444 19.9947C41.8095 20.076 41.4242 20.323 41.1704 20.6901L42.8154 21.8275ZM33.5921 35.1714L42.8155 21.8274L41.1703 20.6902L31.9469 34.0342L33.5921 35.1714ZM33.6124 33.6028H32.7695V35.6028H33.6124V33.6028ZM39.6884 24.0536L32.7897 34.0342L34.435 35.1714L41.3336 25.1908L39.6884 24.0536ZM41.893 23.086C41.0391 22.9678 40.179 23.3439 39.6884 24.0535L41.3335 25.1909C41.3932 25.1046 41.5098 25.052 41.6189 25.0671L41.893 23.086ZM43.1743 22.853C42.789 23.0627 42.331 23.1464 41.8926 23.0859L41.6192 25.0671C42.4793 25.1858 43.3684 25.0244 44.1305 24.6096L43.1743 22.853ZM45.5598 22.9664C44.847 22.4875 43.9308 22.4411 43.1742 22.853L44.1305 24.6096C44.2277 24.5566 44.3457 24.5602 44.4444 24.6265L45.5598 22.9664ZM51.3524 26.8583L45.5598 22.9664L44.4444 24.6265L50.2371 28.5184L51.3524 26.8583ZM52.3413 29.0344C52.4555 28.173 52.067 27.3384 51.3524 26.8583L50.2371 28.5185C50.3338 28.5834 50.3708 28.6795 50.3586 28.7715L52.3413 29.0344ZM52.5856 30.2729C52.3719 29.8994 52.2852 29.4572 52.3413 29.0345L50.3586 28.7714C50.2447 29.6303 50.4192 30.5138 50.8497 31.2662L52.5856 30.2729ZM52.4804 32.6801C52.9768 31.962 53.0209 31.0337 52.5857 30.273L50.8497 31.2661C50.8993 31.3529 50.8974 31.4529 50.8352 31.5429L52.4804 32.6801ZM50.7584 35.1713L52.4804 32.6801L50.8352 31.5429L49.1132 34.0341L50.7584 35.1713ZM50.7787 33.6027H49.9358V35.6027H50.7787V33.6027ZM53.4684 28.9529L49.9561 34.0341L51.6013 35.1713L55.1136 30.0901L53.4684 28.9529ZM53.5541 29.4199C53.4057 29.3202 53.3596 29.1103 53.4683 28.9529L55.1136 30.09C55.6446 29.3218 55.4378 28.2762 54.6697 27.76L53.5541 29.4199ZM42.38 21.9123L53.5542 29.42L54.6696 27.7599L43.4954 20.2522L42.38 21.9123ZM42.5562 21.9657C42.4927 21.9657 42.4308 21.9464 42.3802 21.9125L43.4952 20.2521C43.2163 20.0648 42.8901 19.9657 42.5562 19.9657V21.9657ZM42.6112 21.9608C42.595 21.9638 42.5766 21.9657 42.5562 21.9657V19.9657C42.4509 19.9657 42.3468 19.9756 42.2454 19.9945L42.6112 21.9608ZM42.2346 29.448C39.3266 29.448 36.9215 31.6847 36.7249 34.5339L38.7202 34.6716C38.8433 32.8863 40.3623 31.448 42.2346 31.448V29.448ZM47.7445 34.5338C47.5478 31.6847 45.1429 29.448 42.2346 29.448V31.448C44.107 31.448 45.626 32.8863 45.7493 34.6716L47.7445 34.5338ZM48.6076 33.6027H46.7469V35.6027H48.6076V33.6027ZM49.9282 30.9334L47.785 34.0341L49.4302 35.1713L51.5734 32.0706L49.9282 30.9334ZM49.8934 31.7974C49.7287 31.5092 49.7617 31.175 49.9275 30.9344L51.5741 32.0696C51.8233 31.7082 51.8649 31.2164 51.6299 30.8052L49.8934 31.7974ZM49.2702 28.6312C49.1256 29.7208 49.3472 30.8429 49.8937 31.7979L51.6296 30.8047C51.2999 30.2285 51.1661 29.5476 51.2528 28.8943L49.2702 28.6312ZM49.6184 29.4125C49.3867 29.2567 49.226 28.9664 49.2701 28.6322L51.2529 28.8934C51.315 28.4221 51.0877 27.9906 50.7348 27.7531L49.6184 29.4125ZM43.8261 25.5209L49.6189 29.4129L50.7343 27.7528L44.9415 23.8608L43.8261 25.5209ZM44.6621 25.5564C44.3763 25.7125 44.0561 25.6752 43.8266 25.5212L44.9411 23.8605C44.59 23.6248 44.1122 23.5779 43.7035 23.8011L44.6621 25.5564ZM41.4669 26.1389C42.5606 26.2898 43.6921 26.0844 44.6609 25.557L43.7047 23.8004C43.1129 24.1226 42.4125 24.2504 41.7401 24.1577L41.4669 26.1389ZM41.5785 26.1466C41.5393 26.1466 41.5035 26.1438 41.4715 26.1396L41.7356 24.1571C41.6868 24.1506 41.6343 24.1466 41.5785 24.1466V26.1466ZM42.2411 25.7995C42.0926 26.0148 41.847 26.1466 41.5785 26.1466V24.1466C41.1846 24.1466 40.8168 24.3419 40.5948 24.6638L42.2411 25.7995ZM35.7632 35.1714L42.2405 25.8003L40.5953 24.6631L34.118 34.0342L35.7632 35.1714ZM37.7225 33.6028H34.9406V35.6028H37.7225V33.6028ZM45.6462 33.6028H38.8231V35.6028H45.6462V33.6028ZM42.2347 32.5303C43.5086 32.5303 44.5408 33.4949 44.6504 34.6938L46.6421 34.5118C46.4373 32.2709 44.5303 30.5302 42.2346 30.5303L42.2347 32.5303ZM39.819 34.6939C39.9286 33.4948 40.9608 32.5303 42.2346 32.5303V30.5303C39.939 30.5303 38.0321 32.2709 37.8273 34.5118L39.819 34.6939ZM24.8928 34.3469C24.8928 34.4981 24.7735 34.5956 24.6548 34.5956V32.5956C23.6956 32.5956 22.8928 33.3671 22.8928 34.3469H24.8928ZM24.8928 34.6028V34.3469H22.8928V34.6028H24.8928ZM25.8512 33.6028H23.8928V35.6028H25.8512V33.6028ZM24.9571 33.4959L24.8562 34.5031L26.8462 34.7024L26.9471 33.6953L24.9571 33.4959ZM24.6548 34.5956H25.9521V32.5956H24.6548V34.5956ZM23.4698 37.0079C23.4698 36.8441 23.6105 36.685 23.8116 36.685V34.685C22.5329 34.685 21.4698 35.7128 21.4698 37.0079H23.4698ZM23.4698 38.5094V37.0079H21.4698V38.5094H23.4698ZM55.7775 37.5094H22.4698V39.5094H55.7775V37.5094ZM54.7775 37.0079V38.5094H56.7775V37.0079H54.7775ZM54.4358 36.685C54.6368 36.685 54.7775 36.844 54.7775 37.0079H56.7775C56.7775 35.7129 55.7146 34.685 54.4358 34.685V36.685ZM23.8116 36.685H54.4358V34.685H23.8116V36.685ZM54.7775 55.454C54.7775 55.6178 54.6368 55.7768 54.4358 55.7768V57.7768C55.7146 57.7768 56.7775 56.749 56.7775 55.454H54.7775ZM54.7775 53.9525V55.454H56.7775V53.9525H54.7775ZM28.9439 54.9525H55.7775V52.9525H28.9439V54.9525ZM27.3951 53.4114C27.3951 54.2758 28.1019 54.9525 28.9439 54.9525V52.9525C29.1796 52.9525 29.3951 53.1446 29.3951 53.4114H27.3951ZM28.9439 51.8703C28.1017 51.8703 27.3951 52.547 27.3951 53.4114H29.3951C29.3951 53.6781 29.1797 53.8703 28.9439 53.8703V51.8703ZM55.7775 51.8703H28.9439V53.8703H55.7775V51.8703ZM54.7775 50.3351V52.8703H56.7775V50.3351H54.7775ZM50.5589 51.3351H55.7775V49.3351H50.5589V51.3351ZM45.3962 46.231C45.3962 49.0596 47.7247 51.3351 50.5589 51.3351V49.3351C48.8025 49.3351 47.3962 47.9284 47.3962 46.231H45.3962ZM45.6296 44.7123C45.4778 45.1931 45.3962 45.7035 45.3962 46.231H47.3962C47.3962 45.9108 47.4456 45.6034 47.5368 45.3144L45.6296 44.7123ZM45.627 44.7208L45.6265 44.7223L47.5399 45.3044L47.5404 45.3029L45.627 44.7208ZM45.8887 44.0578C45.7896 44.2652 45.7021 44.4829 45.6302 44.7104L47.5371 45.3134C47.5791 45.1807 47.6315 45.0493 47.6935 44.9195L45.8887 44.0578ZM45.891 44.0522C45.8889 44.0567 45.8871 44.0608 45.886 44.0633C45.8855 44.0644 45.8848 44.0659 45.8846 44.0665C45.8842 44.0674 45.884 44.0679 45.8838 44.0682C45.883 44.0701 45.8848 44.0659 45.8878 44.0596L47.6943 44.9178C47.7011 44.9035 47.7066 44.8914 47.7093 44.8853C47.7105 44.8827 47.7122 44.8788 47.7124 44.8782C47.7131 44.8768 47.7131 44.8768 47.7128 44.8774L45.891 44.0522ZM45.9098 44.0123C45.9016 44.029 45.8951 44.0431 45.8911 44.0519L47.7127 44.8777C47.7122 44.8787 47.7093 44.8851 47.7049 44.8941L45.9098 44.0123ZM45.9169 43.9988C45.921 43.9903 45.9244 43.9837 45.9265 43.9797C45.9285 43.9759 45.93 43.9732 45.9297 43.9738C45.9296 43.9739 45.9296 43.974 45.9294 43.9743C45.9292 43.9746 45.9289 43.9751 45.9286 43.9757C45.928 43.9768 45.9271 43.9786 45.9259 43.9808C45.9236 43.9851 45.9199 43.9922 45.9155 44.0008L47.6992 44.9056C47.6959 44.9119 47.6934 44.9167 47.6923 44.9187C47.6917 44.92 47.6906 44.922 47.6922 44.919C47.6931 44.9173 47.6958 44.9123 47.6989 44.9063C47.7022 44.9 47.7068 44.8911 47.7121 44.8804L45.9169 43.9988ZM50.559 41.1268C48.5243 41.1268 46.758 42.2968 45.918 43.9965L47.711 44.8826C48.2229 43.8467 49.3053 43.1268 50.559 43.1268V41.1268ZM55.7775 41.1268H50.559V43.1268H55.7775V41.1268ZM54.7775 39.5916V42.1268H56.7775V39.5916H54.7775ZM22.4698 40.5916H55.7775V38.5916H22.4698V40.5916ZM23.4698 52.8703V39.5916H21.4698V52.8703H23.4698ZM25.4295 51.8703H22.4698V53.8703H25.4295V51.8703ZM26.9783 53.4114C26.9783 52.5469 26.2715 51.8703 25.4295 51.8703V53.8703C25.1938 53.8703 24.9783 53.6781 24.9783 53.4114H26.9783ZM25.4295 54.9525C26.2717 54.9525 26.9783 54.2757 26.9783 53.4114H24.9783C24.9783 53.1447 25.1938 52.9525 25.4295 52.9525V54.9525ZM22.4698 54.9525H25.4295V52.9525H22.4698V54.9525ZM23.4698 55.454V53.9525H21.4698V55.454H23.4698ZM23.8116 55.7768C23.6105 55.7768 23.4698 55.6177 23.4698 55.454H21.4698C21.4698 56.749 22.5329 57.7768 23.8116 57.7768V55.7768ZM54.4358 55.7768H23.8116V57.7768H54.4358V55.7768ZM56.5879 49.1186C56.5879 48.6267 56.9883 48.2529 57.4517 48.2529V50.2529C58.0653 50.2529 58.5879 49.7586 58.5879 49.1186H56.5879ZM56.5879 43.3433V49.1186H58.5879V43.3433H56.5879ZM57.4517 44.2091C56.9886 44.2091 56.5879 43.8356 56.5879 43.3433H58.5879C58.5879 42.703 58.0649 42.2091 57.4517 42.2091V44.2091ZM50.5591 44.2091H57.4517V42.2091H50.5591V44.2091ZM48.7401 45.2748C49.0889 44.6424 49.772 44.2091 50.5591 44.2091V42.2091C49.0224 42.2091 47.6793 43.0572 46.9889 44.3087L48.7401 45.2748ZM48.6944 45.3626C48.7093 45.3322 48.7245 45.303 48.74 45.275L46.989 44.3085C46.9572 44.3661 46.9273 44.4238 46.899 44.4813L48.6944 45.3626ZM48.6174 45.5421C48.6404 45.4805 48.6664 45.42 48.6953 45.3608L46.8981 44.4832C46.841 44.6002 46.7892 44.7205 46.7432 44.8439L48.6174 45.5421ZM48.494 46.231C48.494 45.9878 48.5378 45.756 48.6176 45.5416L46.7431 44.8444C46.5819 45.2776 46.494 45.7452 46.494 46.231H48.494ZM48.6175 46.9201C48.5378 46.7059 48.494 46.4743 48.494 46.231H46.494C46.494 46.7166 46.5818 47.1842 46.7431 47.6177L48.6175 46.9201ZM48.6948 47.1002C48.6662 47.0417 48.6404 46.9818 48.6178 46.9207L46.7429 47.6171C46.789 47.7412 46.841 47.8621 46.8986 47.9797L48.6948 47.1002ZM48.74 47.1869C48.7245 47.159 48.7093 47.1297 48.6944 47.0993L46.899 47.9806C46.9273 48.0381 46.9572 48.0958 46.989 48.1534L48.74 47.1869ZM50.5591 48.2529C49.7719 48.2529 49.0889 47.8195 48.7401 47.1871L46.9889 48.1532C47.6793 49.4047 49.0224 50.2529 50.5591 50.2529V48.2529ZM57.4517 48.2529H50.5591V50.2529H57.4517V48.2529ZM50.6878 43.036C48.921 43.036 47.4609 44.4553 47.4609 46.2315H49.4609C49.4609 45.5865 49.9987 45.036 50.6878 45.036V43.036ZM53.9146 46.2315C53.9146 44.4553 52.4546 43.036 50.6878 43.036V45.036C51.3768 45.036 51.9146 45.5865 51.9146 46.2315H53.9146ZM50.6878 49.4269C52.4546 49.4269 53.9146 48.0077 53.9146 46.2315H51.9146C51.9146 46.8764 51.3769 47.4269 50.6878 47.4269V49.4269ZM47.4609 46.2315C47.4609 48.0077 48.921 49.4269 50.6878 49.4269V47.4269C49.9987 47.4269 49.4609 46.8764 49.4609 46.2315H47.4609ZM50.6878 46.3447C50.604 46.3447 50.5586 46.2796 50.5586 46.2315H48.5586C48.5586 47.4109 49.5264 48.3447 50.6878 48.3447V46.3447ZM50.8169 46.2315C50.8169 46.2796 50.7716 46.3447 50.6878 46.3447V48.3447C51.8492 48.3447 52.8169 47.411 52.8169 46.2315H50.8169ZM50.6878 46.1182C50.7715 46.1182 50.8169 46.1833 50.8169 46.2315H52.8169C52.8169 45.052 51.8493 44.1182 50.6878 44.1182V46.1182ZM50.5586 46.2315C50.5586 46.1833 50.6041 46.1182 50.6878 46.1182V44.1182C49.5263 44.1182 48.5586 45.0522 48.5586 46.2315H50.5586Z" fill="white" mask="url(#path-2-inside-1)"/>
<defs>
<filter id="filter0_b" x="-5" y="-5" width="89" height="89" filterUnits="userSpaceOnUse" color-interpolation-filters="sRGB">
<feFlood flood-opacity="0" result="BackgroundImageFix"/>
<feGaussianBlur in="BackgroundImage" stdDeviation="2.5"/>
<feComposite in2="SourceAlpha" operator="in" result="effect1_backgroundBlur"/>
<feBlend mode="normal" in="SourceGraphic" in2="effect1_backgroundBlur" result="shape"/>
</filter>
</defs>
</svg>
