<svg width="87" height="87" viewBox="0 0 87 87" fill="none" xmlns="http://www.w3.org/2000/svg">
<g filter="url(#filter0_d)">
<g opacity="0.2" filter="url(#filter1_b)">
<circle r="39.5" transform="matrix(-1 0 0 1 43.5 39.5)" fill="#E6E6E6"/>
</g>
<mask id="path-2-inside-1" fill="white">
<path fill-rule="evenodd" clip-rule="evenodd" d="M26.1248 42.1268H25.5483C24.8679 42.1268 24.3144 42.6725 24.3145 43.3433V49.1187C24.3145 49.7894 24.8679 50.3351 25.5483 50.3351H26.1248V55.454C26.1248 56.7802 27.2191 57.8591 28.5642 57.8591H59.1884C60.5336 57.8591 61.6279 56.7802 61.6279 55.454V37.0079C61.6279 36.0392 61.0438 35.2032 60.2049 34.8224V34.3469C60.2049 33.3359 59.3706 32.5134 58.3452 32.5134H56.9395L56.1141 24.2752C56.0177 23.3135 55.1455 22.6085 54.1702 22.7033L45.6635 23.5318C45.3619 23.5612 45.1415 23.8261 45.1713 24.1235C45.2011 24.4209 45.4697 24.6375 45.7714 24.6088L54.2781 23.7803C54.6517 23.7434 54.9848 24.0137 55.0216 24.3816L56.0457 34.6028H55.3458L54.6877 28.0338C54.6389 27.5472 54.3219 27.1383 53.8602 26.9667C53.2469 26.7387 52.7153 26.313 52.3635 25.7678C52.1017 25.3622 51.6357 25.1402 51.1471 25.1874L46.9375 25.5974C46.6358 25.6268 46.4155 25.8917 46.4453 26.1891C46.4751 26.4865 46.7436 26.7032 47.0454 26.6744L51.255 26.2644C51.3285 26.257 51.3996 26.2904 51.4373 26.3488C51.9158 27.0902 52.6388 27.6693 53.473 27.9794C53.54 28.0043 53.588 28.0674 53.5953 28.1403L54.2428 34.6028H51.5589L41.9142 20.6494C41.6468 20.2625 41.2426 20.0015 40.7761 19.9144C40.3093 19.8271 39.8364 19.9244 39.4441 20.1881L28.2699 27.6957C27.46 28.24 27.2501 29.3325 27.802 30.131L29.4488 32.5134H29.0184C27.9929 32.5134 27.1587 33.3359 27.1587 34.3469V35.0439C26.5339 35.4799 26.1248 36.1975 26.1248 37.0079V42.1268ZM28.2564 34.347C28.2564 33.9327 28.5981 33.5957 29.0184 33.5957H30.1969L30.893 34.6029H28.5642C28.4599 34.6029 28.3573 34.6101 28.2564 34.6227V34.347ZM40.5717 20.9776C40.7502 21.011 40.9048 21.1109 41.0071 21.2588L50.2305 34.6028H49.3876L42.489 24.6222C42.2139 24.2243 41.7256 24.0099 41.2441 24.0765C40.5948 24.1661 39.9213 24.0435 39.3476 23.7313C38.9208 23.4989 38.4036 23.5239 37.9979 23.7965L32.2053 27.6884C31.7996 27.9609 31.5868 28.4263 31.65 28.903C31.7351 29.5437 31.6045 30.2066 31.2823 30.7696C31.0399 31.1933 31.0629 31.7075 31.3422 32.1115L33.0642 34.6027H32.2213L28.709 29.5215C28.4979 29.216 28.5783 28.7982 28.8881 28.59L40.0623 21.0823C40.1765 21.0056 40.3086 20.9657 40.4438 20.9657C40.4863 20.9657 40.5291 20.9697 40.5717 20.9776ZM45.2775 34.6028C45.1176 32.2855 43.1556 30.448 40.7654 30.448C38.375 30.448 36.4131 32.2855 36.2531 34.6027H34.3924L32.2492 31.502C32.2075 31.4416 32.2032 31.3628 32.2384 31.3013C32.6764 30.5357 32.8541 29.6342 32.7385 28.7628C32.7295 28.6942 32.7628 28.6236 32.8234 28.5828L38.6162 24.6908C38.677 24.65 38.7558 24.6452 38.8172 24.6787C39.5975 25.1035 40.5134 25.2701 41.3965 25.1483C41.4048 25.1472 41.4132 25.1466 41.4215 25.1466C41.4842 25.1466 41.5453 25.1784 41.5821 25.2317L48.0594 34.6028H45.2775ZM44.1769 34.6028H37.3538C37.5109 32.8829 38.9806 31.5303 40.7654 31.5303C42.5501 31.5303 44.0197 32.8829 44.1769 34.6028ZM58.3452 33.5956C58.7655 33.5956 59.1072 33.9326 59.1072 34.3469V34.6028H57.1488L57.0479 33.5956H58.3452ZM59.1884 35.685C59.9283 35.685 60.5302 36.2784 60.5302 37.0079V38.5094H27.2225V37.0079C27.2225 36.2784 27.8243 35.685 28.5642 35.685H59.1884ZM28.5642 56.7768C27.8243 56.7768 27.2225 56.1834 27.2225 55.454V53.9525H54.0561C54.3592 53.9525 54.6049 53.7102 54.6049 53.4114C54.6049 53.1125 54.3593 52.8703 54.0561 52.8703H27.2225V50.3351H32.4411C34.7364 50.3351 36.6038 48.494 36.6038 46.231C36.6038 45.8071 36.5383 45.3982 36.4168 45.0134L36.4163 45.0119C36.3594 44.8318 36.2894 44.6573 36.2089 44.4887C36.2052 44.4808 36.2017 44.4727 36.1981 44.4648C36.1963 44.4609 36.1945 44.457 36.1927 44.4532C36.1903 44.4486 36.1878 44.4442 36.1855 44.4396C35.5096 43.0718 34.0852 42.1268 32.441 42.1268H27.2225V39.5916H60.5302V52.8703H57.5705C57.2674 52.8703 57.0217 53.1125 57.0217 53.4114C57.0217 53.7102 57.2673 53.9525 57.5705 53.9525H60.5302V55.454C60.5302 56.1834 59.9283 56.7768 59.1884 56.7768H28.5642ZM25.5483 49.2529C25.4732 49.2529 25.4121 49.1926 25.4121 49.1186V43.3433C25.4121 43.2693 25.4733 43.2091 25.5483 43.2091H32.4409C33.6028 43.2091 34.6159 43.8498 35.1355 44.7917C35.1591 44.8345 35.1817 44.878 35.2033 44.922C35.2463 45.0101 35.2852 45.1005 35.3197 45.193C35.4401 45.5168 35.506 45.8665 35.506 46.231C35.506 46.5954 35.4402 46.9451 35.3197 47.2689C35.2853 47.3615 35.2464 47.4519 35.2033 47.5399C35.1817 47.5839 35.1591 47.6274 35.1355 47.6702C34.6159 48.6121 33.6028 49.2529 32.4409 49.2529H25.5483ZM34.5391 46.2315C34.5391 45.0209 33.5401 44.036 32.3122 44.036C31.0843 44.036 30.0854 45.0209 30.0854 46.2315C30.0854 47.442 31.0843 48.4269 32.3122 48.4269C33.5401 48.4269 34.5391 47.442 34.5391 46.2315ZM33.4414 46.2315C33.4414 46.8453 32.9348 47.3447 32.3122 47.3447C31.6896 47.3447 31.1831 46.8453 31.1831 46.2315C31.1831 45.6176 31.6896 45.1182 32.3122 45.1182C32.9348 45.1182 33.4414 45.6177 33.4414 46.2315Z"/>
</mask>
<path fill-rule="evenodd" clip-rule="evenodd" d="M26.1248 42.1268H25.5483C24.8679 42.1268 24.3144 42.6725 24.3145 43.3433V49.1187C24.3145 49.7894 24.8679 50.3351 25.5483 50.3351H26.1248V55.454C26.1248 56.7802 27.2191 57.8591 28.5642 57.8591H59.1884C60.5336 57.8591 61.6279 56.7802 61.6279 55.454V37.0079C61.6279 36.0392 61.0438 35.2032 60.2049 34.8224V34.3469C60.2049 33.3359 59.3706 32.5134 58.3452 32.5134H56.9395L56.1141 24.2752C56.0177 23.3135 55.1455 22.6085 54.1702 22.7033L45.6635 23.5318C45.3619 23.5612 45.1415 23.8261 45.1713 24.1235C45.2011 24.4209 45.4697 24.6375 45.7714 24.6088L54.2781 23.7803C54.6517 23.7434 54.9848 24.0137 55.0216 24.3816L56.0457 34.6028H55.3458L54.6877 28.0338C54.6389 27.5472 54.3219 27.1383 53.8602 26.9667C53.2469 26.7387 52.7153 26.313 52.3635 25.7678C52.1017 25.3622 51.6357 25.1402 51.1471 25.1874L46.9375 25.5974C46.6358 25.6268 46.4155 25.8917 46.4453 26.1891C46.4751 26.4865 46.7436 26.7032 47.0454 26.6744L51.255 26.2644C51.3285 26.257 51.3996 26.2904 51.4373 26.3488C51.9158 27.0902 52.6388 27.6693 53.473 27.9794C53.54 28.0043 53.588 28.0674 53.5953 28.1403L54.2428 34.6028H51.5589L41.9142 20.6494C41.6468 20.2625 41.2426 20.0015 40.7761 19.9144C40.3093 19.8271 39.8364 19.9244 39.4441 20.1881L28.2699 27.6957C27.46 28.24 27.2501 29.3325 27.802 30.131L29.4488 32.5134H29.0184C27.9929 32.5134 27.1587 33.3359 27.1587 34.3469V35.0439C26.5339 35.4799 26.1248 36.1975 26.1248 37.0079V42.1268ZM28.2564 34.347C28.2564 33.9327 28.5981 33.5957 29.0184 33.5957H30.1969L30.893 34.6029H28.5642C28.4599 34.6029 28.3573 34.6101 28.2564 34.6227V34.347ZM40.5717 20.9776C40.7502 21.011 40.9048 21.1109 41.0071 21.2588L50.2305 34.6028H49.3876L42.489 24.6222C42.2139 24.2243 41.7256 24.0099 41.2441 24.0765C40.5948 24.1661 39.9213 24.0435 39.3476 23.7313C38.9208 23.4989 38.4036 23.5239 37.9979 23.7965L32.2053 27.6884C31.7996 27.9609 31.5868 28.4263 31.65 28.903C31.7351 29.5437 31.6045 30.2066 31.2823 30.7696C31.0399 31.1933 31.0629 31.7075 31.3422 32.1115L33.0642 34.6027H32.2213L28.709 29.5215C28.4979 29.216 28.5783 28.7982 28.8881 28.59L40.0623 21.0823C40.1765 21.0056 40.3086 20.9657 40.4438 20.9657C40.4863 20.9657 40.5291 20.9697 40.5717 20.9776ZM45.2775 34.6028C45.1176 32.2855 43.1556 30.448 40.7654 30.448C38.375 30.448 36.4131 32.2855 36.2531 34.6027H34.3924L32.2492 31.502C32.2075 31.4416 32.2032 31.3628 32.2384 31.3013C32.6764 30.5357 32.8541 29.6342 32.7385 28.7628C32.7295 28.6942 32.7628 28.6236 32.8234 28.5828L38.6162 24.6908C38.677 24.65 38.7558 24.6452 38.8172 24.6787C39.5975 25.1035 40.5134 25.2701 41.3965 25.1483C41.4048 25.1472 41.4132 25.1466 41.4215 25.1466C41.4842 25.1466 41.5453 25.1784 41.5821 25.2317L48.0594 34.6028H45.2775ZM44.1769 34.6028H37.3538C37.5109 32.8829 38.9806 31.5303 40.7654 31.5303C42.5501 31.5303 44.0197 32.8829 44.1769 34.6028ZM58.3452 33.5956C58.7655 33.5956 59.1072 33.9326 59.1072 34.3469V34.6028H57.1488L57.0479 33.5956H58.3452ZM59.1884 35.685C59.9283 35.685 60.5302 36.2784 60.5302 37.0079V38.5094H27.2225V37.0079C27.2225 36.2784 27.8243 35.685 28.5642 35.685H59.1884ZM28.5642 56.7768C27.8243 56.7768 27.2225 56.1834 27.2225 55.454V53.9525H54.0561C54.3592 53.9525 54.6049 53.7102 54.6049 53.4114C54.6049 53.1125 54.3593 52.8703 54.0561 52.8703H27.2225V50.3351H32.4411C34.7364 50.3351 36.6038 48.494 36.6038 46.231C36.6038 45.8071 36.5383 45.3982 36.4168 45.0134L36.4163 45.0119C36.3594 44.8318 36.2894 44.6573 36.2089 44.4887C36.2052 44.4808 36.2017 44.4727 36.1981 44.4648C36.1963 44.4609 36.1945 44.457 36.1927 44.4532C36.1903 44.4486 36.1878 44.4442 36.1855 44.4396C35.5096 43.0718 34.0852 42.1268 32.441 42.1268H27.2225V39.5916H60.5302V52.8703H57.5705C57.2674 52.8703 57.0217 53.1125 57.0217 53.4114C57.0217 53.7102 57.2673 53.9525 57.5705 53.9525H60.5302V55.454C60.5302 56.1834 59.9283 56.7768 59.1884 56.7768H28.5642ZM25.5483 49.2529C25.4732 49.2529 25.4121 49.1926 25.4121 49.1186V43.3433C25.4121 43.2693 25.4733 43.2091 25.5483 43.2091H32.4409C33.6028 43.2091 34.6159 43.8498 35.1355 44.7917C35.1591 44.8345 35.1817 44.878 35.2033 44.922C35.2463 45.0101 35.2852 45.1005 35.3197 45.193C35.4401 45.5168 35.506 45.8665 35.506 46.231C35.506 46.5954 35.4402 46.9451 35.3197 47.2689C35.2853 47.3615 35.2464 47.4519 35.2033 47.5399C35.1817 47.5839 35.1591 47.6274 35.1355 47.6702C34.6159 48.6121 33.6028 49.2529 32.4409 49.2529H25.5483ZM34.5391 46.2315C34.5391 45.0209 33.5401 44.036 32.3122 44.036C31.0843 44.036 30.0854 45.0209 30.0854 46.2315C30.0854 47.442 31.0843 48.4269 32.3122 48.4269C33.5401 48.4269 34.5391 47.442 34.5391 46.2315ZM33.4414 46.2315C33.4414 46.8453 32.9348 47.3447 32.3122 47.3447C31.6896 47.3447 31.1831 46.8453 31.1831 46.2315C31.1831 45.6176 31.6896 45.1182 32.3122 45.1182C32.9348 45.1182 33.4414 45.6177 33.4414 46.2315Z" fill="white"/>
<path d="M26.1248 42.1268H27.1248V43.1268H26.1248V42.1268ZM24.3145 43.3433L25.3145 43.3432V43.3433H24.3145ZM26.1248 50.3351V49.3351H27.1248V50.3351H26.1248ZM60.2049 34.8224L59.7916 35.733L59.2049 35.4667V34.8224H60.2049ZM56.9395 32.5134V33.5134H56.0347L55.9445 32.6131L56.9395 32.5134ZM56.1141 24.2752L57.1091 24.1755L57.1091 24.1755L56.1141 24.2752ZM54.1702 22.7033L54.0733 21.708L54.0734 21.708L54.1702 22.7033ZM45.6635 23.5318L45.7605 24.5271L45.7604 24.5271L45.6635 23.5318ZM45.1713 24.1235L46.1663 24.0238V24.0238L45.1713 24.1235ZM45.7714 24.6088L45.8684 25.6041L45.8661 25.6043L45.7714 24.6088ZM54.2781 23.7803L54.3763 24.7755L54.3751 24.7756L54.2781 23.7803ZM55.0216 24.3816L56.0167 24.2819L56.0167 24.2819L55.0216 24.3816ZM56.0457 34.6028L57.0407 34.5031L57.1509 35.6028H56.0457V34.6028ZM55.3458 34.6028V35.6028H54.441L54.3508 34.7024L55.3458 34.6028ZM54.6877 28.0338L53.6927 28.1335L53.6927 28.1335L54.6877 28.0338ZM53.8602 26.9667L54.2087 26.0294L54.2087 26.0294L53.8602 26.9667ZM52.3635 25.7678L53.2036 25.2255L53.2037 25.2256L52.3635 25.7678ZM51.1471 25.1874L51.0501 24.1921L51.051 24.192L51.1471 25.1874ZM46.9375 25.5974L47.0344 26.5927L47.0344 26.5927L46.9375 25.5974ZM46.4453 26.1891L47.4403 26.0894V26.0894L46.4453 26.1891ZM47.0454 26.6744L47.1423 27.6697L47.1405 27.6699L47.0454 26.6744ZM51.255 26.2644L51.3543 27.2594L51.3519 27.2597L51.255 26.2644ZM51.4373 26.3488L52.2774 25.8063L52.2775 25.8065L51.4373 26.3488ZM53.473 27.9794L53.1251 28.917L53.1246 28.9168L53.473 27.9794ZM53.5953 28.1403L52.6002 28.2399V28.2399L53.5953 28.1403ZM54.2428 34.6028L55.2378 34.5031L55.348 35.6028H54.2428V34.6028ZM51.5589 34.6028V35.6028H51.0345L50.7363 35.1714L51.5589 34.6028ZM41.9142 20.6494L41.0915 21.218L41.0915 21.218L41.9142 20.6494ZM40.7761 19.9144L40.5924 20.8974L40.5922 20.8973L40.7761 19.9144ZM39.4441 20.1881L40.0019 21.018L40.0018 21.0181L39.4441 20.1881ZM28.2699 27.6957L27.7121 26.8657L27.7122 26.8657L28.2699 27.6957ZM27.802 30.131L28.6246 29.5624L28.6246 29.5624L27.802 30.131ZM29.4488 32.5134L30.2714 31.9448L31.3556 33.5134H29.4488V32.5134ZM27.1587 35.0439H28.1587V35.5655L27.7309 35.864L27.1587 35.0439ZM29.0184 33.5957V34.5957H29.0182L29.0184 33.5957ZM30.1969 33.5957V32.5957H30.7213L31.0195 33.0272L30.1969 33.5957ZM30.893 34.6029L31.7156 34.0343L32.7997 35.6029H30.893V34.6029ZM28.2564 34.6227L28.3803 35.615L27.2564 35.7554V34.6227H28.2564ZM41.0071 21.2588L41.8296 20.6901L41.8297 20.6902L41.0071 21.2588ZM40.5717 20.9776L40.7546 19.9945L40.7556 19.9947L40.5717 20.9776ZM50.2305 34.6028L51.0531 34.0342L52.1374 35.6028H50.2305V34.6028ZM49.3876 34.6028V35.6028H48.8632L48.565 35.1714L49.3876 34.6028ZM42.489 24.6222L43.3116 24.0535L43.3116 24.0536L42.489 24.6222ZM41.2441 24.0765L41.3811 25.0671L41.3808 25.0671L41.2441 24.0765ZM39.3476 23.7313L38.8695 24.6096L38.8695 24.6096L39.3476 23.7313ZM37.9979 23.7965L37.4402 22.9664L37.4402 22.9664L37.9979 23.7965ZM32.2053 27.6884L32.7629 28.5184L32.7629 28.5185L32.2053 27.6884ZM31.65 28.903L30.6587 29.0345L30.6587 29.0344L31.65 28.903ZM31.2823 30.7696L30.4143 30.273L30.4144 30.2729L31.2823 30.7696ZM31.3422 32.1115L30.5196 32.6801L30.5196 32.6801L31.3422 32.1115ZM33.0642 34.6027L33.8868 34.0341L34.971 35.6027H33.0642V34.6027ZM32.2213 34.6027V35.6027H31.6969L31.3987 35.1713L32.2213 34.6027ZM28.709 29.5215L27.8864 30.0901L27.8864 30.09L28.709 29.5215ZM28.8881 28.59L28.3303 27.76L28.3304 27.7599L28.8881 28.59ZM40.0623 21.0823L39.5046 20.2522L39.5048 20.2521L40.0623 21.0823ZM45.2775 34.6028V35.6028H44.3441L44.2798 34.6716L45.2775 34.6028ZM36.2531 34.6027L37.2507 34.6716L37.1864 35.6027H36.2531V34.6027ZM34.3924 34.6027V35.6027H33.8679L33.5698 35.1713L34.3924 34.6027ZM32.2492 31.502L31.4266 32.0706L31.4259 32.0696L32.2492 31.502ZM32.2384 31.3013L31.3701 30.8052L31.3704 30.8047L32.2384 31.3013ZM32.7385 28.7628L31.7472 28.8943L31.7471 28.8934L32.7385 28.7628ZM32.8234 28.5828L32.2652 27.7531L32.2657 27.7528L32.8234 28.5828ZM38.6162 24.6908L38.0585 23.8608L38.0589 23.8605L38.6162 24.6908ZM38.8172 24.6787L38.3391 25.557L38.3379 25.5564L38.8172 24.6787ZM41.3965 25.1483L41.2599 24.1577L41.2644 24.1571L41.3965 25.1483ZM41.5821 25.2317L40.7595 25.8003L40.7589 25.7995L41.5821 25.2317ZM48.0594 34.6028L48.882 34.0342L49.9663 35.6028H48.0594V34.6028ZM37.3538 34.6028V35.6028H36.2582L36.3579 34.5118L37.3538 34.6028ZM44.1769 34.6028L45.1727 34.5118L45.2725 35.6028H44.1769V34.6028ZM40.7654 31.5303V32.5303H40.7653L40.7654 31.5303ZM59.1072 34.6028H60.1072V35.6028H59.1072V34.6028ZM57.1488 34.6028V35.6028H56.244L56.1538 34.7024L57.1488 34.6028ZM57.0479 33.5956L56.0529 33.6953L55.9427 32.5956H57.0479V33.5956ZM60.5302 38.5094H61.5302V39.5094H60.5302V38.5094ZM27.2225 38.5094V39.5094H26.2225V38.5094H27.2225ZM27.2225 53.9525H26.2225V52.9525H27.2225V53.9525ZM27.2225 52.8703V53.8703H26.2225V52.8703H27.2225ZM27.2225 50.3351H26.2225V49.3351H27.2225V50.3351ZM36.4168 45.0134L35.4631 45.3144L35.4601 45.3044L36.4168 45.0134ZM36.4163 45.0119L37.3698 44.7103L37.373 44.7208L36.4163 45.0119ZM36.2089 44.4887L35.3065 44.9195L35.3057 44.9178L36.2089 44.4887ZM36.1981 44.4648L37.1089 44.0519L37.109 44.0522L36.1981 44.4648ZM36.1927 44.4532L37.0846 44.0008L37.0902 44.0123L36.1927 44.4532ZM36.1855 44.4396L37.082 43.9965L37.0831 43.9988L36.1855 44.4396ZM27.2225 42.1268V43.1268H26.2225V42.1268H27.2225ZM27.2225 39.5916H26.2225V38.5916H27.2225V39.5916ZM60.5302 39.5916V38.5916H61.5302V39.5916H60.5302ZM60.5302 52.8703H61.5302V53.8703H60.5302V52.8703ZM60.5302 53.9525V52.9525H61.5302V53.9525H60.5302ZM35.1355 44.7917L34.26 45.275L34.2599 45.2748L35.1355 44.7917ZM35.2033 44.922L36.101 44.4813L36.1019 44.4832L35.2033 44.922ZM35.3197 45.193L36.2568 44.8439L36.2569 44.8444L35.3197 45.193ZM35.3197 47.2689L34.3822 46.9207L34.3825 46.9201L35.3197 47.2689ZM35.2033 47.5399L36.1014 47.9797L36.101 47.9806L35.2033 47.5399ZM35.1355 47.6702L34.2599 47.1871L34.26 47.1869L35.1355 47.6702ZM25.5483 41.1268H26.1248V43.1268H25.5483V41.1268ZM23.3145 43.3434C23.3143 42.1068 24.3292 41.1268 25.5483 41.1268V43.1268C25.4067 43.1268 25.3145 43.2382 25.3145 43.3432L23.3145 43.3434ZM23.3145 49.1187V43.3433H25.3145V49.1187H23.3145ZM25.5483 51.3351C24.3291 51.3351 23.3145 50.3551 23.3145 49.1187H25.3145C25.3145 49.2238 25.4068 49.3351 25.5483 49.3351V51.3351ZM26.1248 51.3351H25.5483V49.3351H26.1248V51.3351ZM25.1248 55.454V50.3351H27.1248V55.454H25.1248ZM28.5642 58.8591C26.6802 58.8591 25.1248 57.3458 25.1248 55.454H27.1248C27.1248 56.2146 27.7579 56.8591 28.5642 56.8591V58.8591ZM59.1884 58.8591H28.5642V56.8591H59.1884V58.8591ZM62.6279 55.454C62.6279 57.3458 61.0725 58.8591 59.1884 58.8591V56.8591C59.9948 56.8591 60.6279 56.2146 60.6279 55.454H62.6279ZM62.6279 37.0079V55.454H60.6279V37.0079H62.6279ZM60.6183 33.9118C61.794 34.4455 62.6279 35.625 62.6279 37.0079H60.6279C60.6279 36.4535 60.2937 35.9609 59.7916 35.733L60.6183 33.9118ZM61.2049 34.3469V34.8224H59.2049V34.3469H61.2049ZM58.3452 31.5134C59.9095 31.5134 61.2049 32.7703 61.2049 34.3469H59.2049C59.2049 33.9015 58.8318 33.5134 58.3452 33.5134V31.5134ZM56.9395 31.5134H58.3452V33.5134H56.9395V31.5134ZM57.1091 24.1755L57.9345 32.4137L55.9445 32.6131L55.1191 24.3749L57.1091 24.1755ZM54.0734 21.708C55.584 21.5611 56.9564 22.6522 57.1091 24.1755L55.1191 24.3749C55.079 23.9747 54.7071 23.6558 54.2671 23.6986L54.0734 21.708ZM45.5666 22.5365L54.0733 21.708L54.2672 23.6986L45.7605 24.5271L45.5666 22.5365ZM44.1763 24.2232C44.09 23.3621 44.7273 22.6182 45.5666 22.5365L45.7604 24.5271C45.9964 24.5041 46.193 24.29 46.1663 24.0238L44.1763 24.2232ZM45.8661 25.6043C45.0326 25.6836 44.2625 25.084 44.1763 24.2231L46.1663 24.0238C46.1397 23.7578 45.9069 23.5914 45.6767 23.6133L45.8661 25.6043ZM54.3751 24.7756L45.8684 25.6041L45.6745 23.6135L54.1812 22.785L54.3751 24.7756ZM54.0266 24.4813C54.0458 24.673 54.2116 24.7917 54.3763 24.7755L54.1799 22.7851C55.0918 22.6951 55.9237 23.3544 56.0167 24.2819L54.0266 24.4813ZM55.0507 34.7025L54.0266 24.4813L56.0167 24.2819L57.0407 34.5031L55.0507 34.7025ZM55.3458 33.6028H56.0457V35.6028H55.3458V33.6028ZM55.6827 27.9341L56.3408 34.5031L54.3508 34.7024L53.6927 28.1335L55.6827 27.9341ZM54.2087 26.0294C55.0248 26.3328 55.5956 27.0643 55.6827 27.9341L53.6927 28.1335C53.6823 28.03 53.619 27.9439 53.5118 27.904L54.2087 26.0294ZM53.2037 25.2256C53.4374 25.5877 53.7956 25.8758 54.2087 26.0294L53.5118 27.904C52.6981 27.6016 51.9932 27.0382 51.5232 26.31L53.2037 25.2256ZM51.051 24.192C51.903 24.1098 52.7343 24.4983 53.2036 25.2255L51.5233 26.3101C51.4691 26.2261 51.3684 26.1707 51.2432 26.1828L51.051 24.192ZM46.8406 24.6021L51.0501 24.1921L51.244 26.1827L47.0344 26.5927L46.8406 24.6021ZM45.4502 26.2888C45.364 25.4277 46.0013 24.6838 46.8406 24.6021L47.0344 26.5927C47.2704 26.5697 47.467 26.3557 47.4403 26.0894L45.4502 26.2888ZM47.1405 27.6699C46.3059 27.7496 45.5364 27.1491 45.4502 26.2888L47.4403 26.0894C47.4137 25.824 47.1812 25.6569 46.9502 25.6789L47.1405 27.6699ZM51.3519 27.2597L47.1423 27.6697L46.9484 25.6791L51.158 25.2691L51.3519 27.2597ZM50.5972 26.8912C50.7747 27.1661 51.0766 27.2871 51.3543 27.2594L51.1557 25.2693C51.5805 25.2269 52.0245 25.4147 52.2774 25.8063L50.5972 26.8912ZM53.1246 28.9168C52.0899 28.5322 51.1937 27.8154 50.5971 26.891L52.2775 25.8065C52.6379 26.365 53.1876 26.8065 53.8214 27.0421L53.1246 28.9168ZM52.6002 28.2399C52.6298 28.5351 52.823 28.8049 53.1251 28.917L53.8209 27.0419C54.257 27.2037 54.5461 27.5998 54.5903 28.0406L52.6002 28.2399ZM53.2478 34.7025L52.6002 28.2399L54.5903 28.0406L55.2378 34.5031L53.2478 34.7025ZM51.5589 33.6028H54.2428V35.6028H51.5589V33.6028ZM42.7368 20.0808L52.3815 34.0342L50.7363 35.1714L41.0915 21.218L42.7368 20.0808ZM40.9597 18.9314C41.6828 19.0665 42.3179 19.4747 42.7368 20.0809L41.0915 21.218C40.9757 21.0504 40.8024 20.9366 40.5924 20.8974L40.9597 18.9314ZM38.8863 19.3581C39.497 18.9476 40.2364 18.7961 40.9599 18.9314L40.5922 20.8973C40.3822 20.8581 40.1758 20.9012 40.0019 21.018L38.8863 19.3581ZM27.7122 26.8657L38.8864 19.358L40.0018 21.0181L28.8276 28.5258L27.7122 26.8657ZM26.9794 30.6996C26.1076 29.4384 26.4437 27.7181 27.7121 26.8657L28.8277 28.5257C28.4762 28.7619 28.3925 29.2266 28.6246 29.5624L26.9794 30.6996ZM28.6262 33.082L26.9794 30.6996L28.6246 29.5624L30.2714 31.9448L28.6262 33.082ZM29.0184 31.5134H29.4488V33.5134H29.0184V31.5134ZM26.1587 34.3469C26.1587 32.7703 27.454 31.5134 29.0184 31.5134V33.5134C28.5318 33.5134 28.1587 33.9015 28.1587 34.3469H26.1587ZM26.1587 35.0439V34.3469H28.1587V35.0439H26.1587ZM25.1248 37.0079C25.1248 35.8514 25.7097 34.8356 26.5864 34.2239L27.7309 35.864C27.358 36.1242 27.1248 36.5435 27.1248 37.0079H25.1248ZM25.1248 42.1268V37.0079H27.1248V42.1268H25.1248ZM29.0182 34.5957C29.1371 34.5958 29.2564 34.4981 29.2564 34.347H27.2564C27.2564 33.3672 28.0592 32.5956 29.0186 32.5957L29.0182 34.5957ZM30.1969 34.5957H29.0184V32.5957H30.1969V34.5957ZM30.0704 35.1715L29.3742 34.1643L31.0195 33.0272L31.7156 34.0343L30.0704 35.1715ZM28.5642 33.6029H30.893V35.6029H28.5642V33.6029ZM28.1324 33.6304C28.2696 33.6133 28.4138 33.6029 28.5642 33.6029V35.6029C28.5059 35.6029 28.445 35.6069 28.3803 35.615L28.1324 33.6304ZM29.2564 34.347V34.6227H27.2564V34.347H29.2564ZM40.1846 21.8275C40.2338 21.8987 40.3099 21.946 40.3879 21.9606L40.7556 19.9947C41.1905 20.076 41.5758 20.323 41.8296 20.6901L40.1846 21.8275ZM49.4079 35.1714L40.1845 21.8274L41.8297 20.6902L51.0531 34.0342L49.4079 35.1714ZM49.3876 33.6028H50.2305V35.6028H49.3876V33.6028ZM43.3116 24.0536L50.2103 34.0342L48.565 35.1714L41.6664 25.1908L43.3116 24.0536ZM41.107 23.086C41.9609 22.9678 42.821 23.3439 43.3116 24.0535L41.6665 25.1909C41.6068 25.1046 41.4902 25.052 41.3811 25.0671L41.107 23.086ZM39.8257 22.853C40.211 23.0627 40.669 23.1464 41.1074 23.0859L41.3808 25.0671C40.5207 25.1858 39.6316 25.0244 38.8695 24.6096L39.8257 22.853ZM37.4402 22.9664C38.153 22.4875 39.0692 22.4411 39.8258 22.853L38.8695 24.6096C38.7723 24.5566 38.6543 24.5602 38.5556 24.6265L37.4402 22.9664ZM31.6476 26.8583L37.4402 22.9664L38.5556 24.6265L32.7629 28.5184L31.6476 26.8583ZM30.6587 29.0344C30.5445 28.173 30.933 27.3384 31.6476 26.8583L32.7629 28.5185C32.6662 28.5834 32.6292 28.6795 32.6414 28.7715L30.6587 29.0344ZM30.4144 30.2729C30.6281 29.8994 30.7148 29.4572 30.6587 29.0345L32.6414 28.7714C32.7553 29.6303 32.5808 30.5138 32.1503 31.2662L30.4144 30.2729ZM30.5196 32.6801C30.0232 31.962 29.9791 31.0337 30.4143 30.273L32.1503 31.2661C32.1007 31.3529 32.1026 31.4529 32.1648 31.5429L30.5196 32.6801ZM32.2416 35.1713L30.5196 32.6801L32.1648 31.5429L33.8868 34.0341L32.2416 35.1713ZM32.2213 33.6027H33.0642V35.6027H32.2213V33.6027ZM29.5316 28.9529L33.0439 34.0341L31.3987 35.1713L27.8864 30.0901L29.5316 28.9529ZM29.4459 29.4199C29.5943 29.3202 29.6404 29.1103 29.5317 28.9529L27.8864 30.09C27.3554 29.3218 27.5622 28.2762 28.3303 27.76L29.4459 29.4199ZM40.62 21.9123L29.4458 29.42L28.3304 27.7599L39.5046 20.2522L40.62 21.9123ZM40.4438 21.9657C40.5073 21.9657 40.5692 21.9464 40.6198 21.9125L39.5048 20.2521C39.7837 20.0648 40.1099 19.9657 40.4438 19.9657V21.9657ZM40.3888 21.9608C40.405 21.9638 40.4234 21.9657 40.4438 21.9657V19.9657C40.5491 19.9657 40.6532 19.9756 40.7546 19.9945L40.3888 21.9608ZM40.7654 29.448C43.6734 29.448 46.0785 31.6847 46.2751 34.5339L44.2798 34.6716C44.1567 32.8863 42.6377 31.448 40.7654 31.448V29.448ZM35.2555 34.5338C35.4522 31.6847 37.8571 29.448 40.7654 29.448V31.448C38.893 31.448 37.374 32.8863 37.2507 34.6716L35.2555 34.5338ZM34.3924 33.6027H36.2531V35.6027H34.3924V33.6027ZM33.0718 30.9334L35.215 34.0341L33.5698 35.1713L31.4266 32.0706L33.0718 30.9334ZM33.1066 31.7974C33.2713 31.5092 33.2383 31.175 33.0725 30.9344L31.4259 32.0696C31.1767 31.7082 31.1351 31.2164 31.3701 30.8052L33.1066 31.7974ZM33.7298 28.6312C33.8744 29.7208 33.6528 30.8429 33.1063 31.7979L31.3704 30.8047C31.7001 30.2285 31.8339 29.5476 31.7472 28.8943L33.7298 28.6312ZM33.3816 29.4125C33.6133 29.2567 33.774 28.9664 33.7299 28.6322L31.7471 28.8934C31.685 28.4221 31.9123 27.9906 32.2652 27.7531L33.3816 29.4125ZM39.1739 25.5209L33.3811 29.4129L32.2657 27.7528L38.0585 23.8608L39.1739 25.5209ZM38.3379 25.5564C38.6237 25.7125 38.9439 25.6752 39.1734 25.5212L38.0589 23.8605C38.41 23.6248 38.8878 23.5779 39.2965 23.8011L38.3379 25.5564ZM41.5331 26.1389C40.4394 26.2898 39.3079 26.0844 38.3391 25.557L39.2953 23.8004C39.8871 24.1226 40.5875 24.2504 41.2599 24.1577L41.5331 26.1389ZM41.4215 26.1466C41.4607 26.1466 41.4965 26.1438 41.5285 26.1396L41.2644 24.1571C41.3132 24.1506 41.3657 24.1466 41.4215 24.1466V26.1466ZM40.7589 25.7995C40.9074 26.0148 41.153 26.1466 41.4215 26.1466V24.1466C41.8154 24.1466 42.1832 24.3419 42.4052 24.6638L40.7589 25.7995ZM47.2368 35.1714L40.7595 25.8003L42.4047 24.6631L48.882 34.0342L47.2368 35.1714ZM45.2775 33.6028H48.0594V35.6028H45.2775V33.6028ZM37.3538 33.6028H44.1769V35.6028H37.3538V33.6028ZM40.7653 32.5303C39.4914 32.5303 38.4592 33.4949 38.3496 34.6938L36.3579 34.5118C36.5627 32.2709 38.4697 30.5302 40.7654 30.5303L40.7653 32.5303ZM43.181 34.6939C43.0714 33.4948 42.0392 32.5303 40.7654 32.5303V30.5303C43.061 30.5303 44.9679 32.2709 45.1727 34.5118L43.181 34.6939ZM58.1072 34.3469C58.1072 34.4981 58.2265 34.5956 58.3452 34.5956V32.5956C59.3044 32.5956 60.1072 33.3671 60.1072 34.3469H58.1072ZM58.1072 34.6028V34.3469H60.1072V34.6028H58.1072ZM57.1488 33.6028H59.1072V35.6028H57.1488V33.6028ZM58.0429 33.4959L58.1438 34.5031L56.1538 34.7024L56.0529 33.6953L58.0429 33.4959ZM58.3452 34.5956H57.0479V32.5956H58.3452V34.5956ZM59.5302 37.0079C59.5302 36.8441 59.3895 36.685 59.1884 36.685V34.685C60.4671 34.685 61.5302 35.7128 61.5302 37.0079H59.5302ZM59.5302 38.5094V37.0079H61.5302V38.5094H59.5302ZM27.2225 37.5094H60.5302V39.5094H27.2225V37.5094ZM28.2225 37.0079V38.5094H26.2225V37.0079H28.2225ZM28.5642 36.685C28.3632 36.685 28.2225 36.844 28.2225 37.0079H26.2225C26.2225 35.7129 27.2854 34.685 28.5642 34.685V36.685ZM59.1884 36.685H28.5642V34.685H59.1884V36.685ZM28.2225 55.454C28.2225 55.6178 28.3632 55.7768 28.5642 55.7768V57.7768C27.2854 57.7768 26.2225 56.749 26.2225 55.454H28.2225ZM28.2225 53.9525V55.454H26.2225V53.9525H28.2225ZM54.0561 54.9525H27.2225V52.9525H54.0561V54.9525ZM55.6049 53.4114C55.6049 54.2758 54.8981 54.9525 54.0561 54.9525V52.9525C53.8204 52.9525 53.6049 53.1446 53.6049 53.4114H55.6049ZM54.0561 51.8703C54.8983 51.8703 55.6049 52.547 55.6049 53.4114H53.6049C53.6049 53.6781 53.8203 53.8703 54.0561 53.8703V51.8703ZM27.2225 51.8703H54.0561V53.8703H27.2225V51.8703ZM28.2225 50.3351V52.8703H26.2225V50.3351H28.2225ZM32.4411 51.3351H27.2225V49.3351H32.4411V51.3351ZM37.6038 46.231C37.6038 49.0596 35.2753 51.3351 32.4411 51.3351V49.3351C34.1975 49.3351 35.6038 47.9284 35.6038 46.231H37.6038ZM37.3704 44.7123C37.5222 45.1931 37.6038 45.7035 37.6038 46.231H35.6038C35.6038 45.9108 35.5544 45.6034 35.4632 45.3144L37.3704 44.7123ZM37.373 44.7208L37.3735 44.7223L35.4601 45.3044L35.4596 45.3029L37.373 44.7208ZM37.1113 44.0578C37.2104 44.2652 37.2979 44.4829 37.3698 44.7104L35.4629 45.3134C35.4209 45.1807 35.3685 45.0493 35.3065 44.9195L37.1113 44.0578ZM37.109 44.0522C37.1111 44.0567 37.1129 44.0608 37.114 44.0633C37.1145 44.0644 37.1152 44.0659 37.1154 44.0665C37.1158 44.0674 37.116 44.0679 37.1162 44.0682C37.117 44.0701 37.1152 44.0659 37.1122 44.0596L35.3057 44.9178C35.2989 44.9035 35.2934 44.8914 35.2907 44.8853C35.2895 44.8827 35.2878 44.8788 35.2876 44.8782C35.2869 44.8768 35.2869 44.8768 35.2872 44.8774L37.109 44.0522ZM37.0902 44.0123C37.0984 44.029 37.1049 44.0431 37.1089 44.0519L35.2873 44.8777C35.2878 44.8787 35.2907 44.8851 35.2951 44.8941L37.0902 44.0123ZM37.0831 43.9988C37.079 43.9903 37.0756 43.9837 37.0735 43.9797C37.0715 43.9759 37.07 43.9732 37.0703 43.9738C37.0704 43.9739 37.0704 43.974 37.0706 43.9743C37.0708 43.9746 37.0711 43.9751 37.0714 43.9757C37.072 43.9768 37.0729 43.9786 37.0741 43.9808C37.0764 43.9851 37.0801 43.9922 37.0845 44.0008L35.3008 44.9056C35.3041 44.9119 35.3066 44.9167 35.3077 44.9187C35.3083 44.92 35.3094 44.922 35.3078 44.919C35.3069 44.9173 35.3042 44.9123 35.3011 44.9063C35.2978 44.9 35.2932 44.8911 35.2879 44.8804L37.0831 43.9988ZM32.441 41.1268C34.4757 41.1268 36.242 42.2968 37.082 43.9965L35.289 44.8826C34.7771 43.8467 33.6947 43.1268 32.441 43.1268V41.1268ZM27.2225 41.1268H32.441V43.1268H27.2225V41.1268ZM28.2225 39.5916V42.1268H26.2225V39.5916H28.2225ZM60.5302 40.5916H27.2225V38.5916H60.5302V40.5916ZM59.5302 52.8703V39.5916H61.5302V52.8703H59.5302ZM57.5705 51.8703H60.5302V53.8703H57.5705V51.8703ZM56.0217 53.4114C56.0217 52.5469 56.7285 51.8703 57.5705 51.8703V53.8703C57.8062 53.8703 58.0217 53.6781 58.0217 53.4114H56.0217ZM57.5705 54.9525C56.7283 54.9525 56.0217 54.2757 56.0217 53.4114H58.0217C58.0217 53.1447 57.8062 52.9525 57.5705 52.9525V54.9525ZM60.5302 54.9525H57.5705V52.9525H60.5302V54.9525ZM59.5302 55.454V53.9525H61.5302V55.454H59.5302ZM59.1884 55.7768C59.3895 55.7768 59.5302 55.6177 59.5302 55.454H61.5302C61.5302 56.749 60.4671 57.7768 59.1884 57.7768V55.7768ZM28.5642 55.7768H59.1884V57.7768H28.5642V55.7768ZM26.4121 49.1186C26.4121 48.6267 26.0117 48.2529 25.5483 48.2529V50.2529C24.9347 50.2529 24.4121 49.7586 24.4121 49.1186H26.4121ZM26.4121 43.3433V49.1186H24.4121V43.3433H26.4121ZM25.5483 44.2091C26.0114 44.2091 26.4121 43.8356 26.4121 43.3433H24.4121C24.4121 42.703 24.9351 42.2091 25.5483 42.2091V44.2091ZM32.4409 44.2091H25.5483V42.2091H32.4409V44.2091ZM34.2599 45.2748C33.9111 44.6424 33.228 44.2091 32.4409 44.2091V42.2091C33.9776 42.2091 35.3207 43.0572 36.0111 44.3087L34.2599 45.2748ZM34.3056 45.3626C34.2907 45.3322 34.2755 45.303 34.26 45.275L36.011 44.3085C36.0428 44.3661 36.0727 44.4238 36.101 44.4813L34.3056 45.3626ZM34.3826 45.5421C34.3596 45.4805 34.3336 45.42 34.3047 45.3608L36.1019 44.4832C36.159 44.6002 36.2108 44.7205 36.2568 44.8439L34.3826 45.5421ZM34.506 46.231C34.506 45.9878 34.4622 45.756 34.3824 45.5416L36.2569 44.8444C36.4181 45.2776 36.506 45.7452 36.506 46.231H34.506ZM34.3825 46.9201C34.4622 46.7059 34.506 46.4743 34.506 46.231H36.506C36.506 46.7166 36.4182 47.1842 36.2569 47.6177L34.3825 46.9201ZM34.3052 47.1002C34.3338 47.0417 34.3596 46.9818 34.3822 46.9207L36.2571 47.6171C36.211 47.7412 36.159 47.8621 36.1014 47.9797L34.3052 47.1002ZM34.26 47.1869C34.2755 47.159 34.2907 47.1297 34.3056 47.0993L36.101 47.9806C36.0727 48.0381 36.0428 48.0958 36.011 48.1534L34.26 47.1869ZM32.4409 48.2529C33.2281 48.2529 33.9111 47.8195 34.2599 47.1871L36.0111 48.1532C35.3207 49.4047 33.9776 50.2529 32.4409 50.2529V48.2529ZM25.5483 48.2529H32.4409V50.2529H25.5483V48.2529ZM32.3122 43.036C34.079 43.036 35.5391 44.4553 35.5391 46.2315H33.5391C33.5391 45.5865 33.0013 45.036 32.3122 45.036V43.036ZM29.0854 46.2315C29.0854 44.4553 30.5454 43.036 32.3122 43.036V45.036C31.6232 45.036 31.0854 45.5865 31.0854 46.2315H29.0854ZM32.3122 49.4269C30.5454 49.4269 29.0854 48.0077 29.0854 46.2315H31.0854C31.0854 46.8764 31.6231 47.4269 32.3122 47.4269V49.4269ZM35.5391 46.2315C35.5391 48.0077 34.079 49.4269 32.3122 49.4269V47.4269C33.0013 47.4269 33.5391 46.8764 33.5391 46.2315H35.5391ZM32.3122 46.3447C32.396 46.3447 32.4414 46.2796 32.4414 46.2315H34.4414C34.4414 47.4109 33.4736 48.3447 32.3122 48.3447V46.3447ZM32.1831 46.2315C32.1831 46.2796 32.2284 46.3447 32.3122 46.3447V48.3447C31.1508 48.3447 30.1831 47.411 30.1831 46.2315H32.1831ZM32.3122 46.1182C32.2285 46.1182 32.1831 46.1833 32.1831 46.2315H30.1831C30.1831 45.052 31.1507 44.1182 32.3122 44.1182V46.1182ZM32.4414 46.2315C32.4414 46.1833 32.3959 46.1182 32.3122 46.1182V44.1182C33.4737 44.1182 34.4414 45.0522 34.4414 46.2315H32.4414Z" fill="white" mask="url(#path-2-inside-1)"/>
</g>
<defs>
<filter id="filter0_d" x="0" y="0" width="87" height="87" filterUnits="userSpaceOnUse" color-interpolation-filters="sRGB">
<feFlood flood-opacity="0" result="BackgroundImageFix"/>
<feColorMatrix in="SourceAlpha" type="matrix" values="0 0 0 0 0 0 0 0 0 0 0 0 0 0 0 0 0 0 127 0"/>
<feOffset dy="4"/>
<feGaussianBlur stdDeviation="2"/>
<feColorMatrix type="matrix" values="0 0 0 0 0 0 0 0 0 0 0 0 0 0 0 0 0 0 0.25 0"/>
<feBlend mode="normal" in2="BackgroundImageFix" result="effect1_dropShadow"/>
<feBlend mode="normal" in="SourceGraphic" in2="effect1_dropShadow" result="shape"/>
</filter>
<filter id="filter1_b" x="-1" y="-5" width="89" height="89" filterUnits="userSpaceOnUse" color-interpolation-filters="sRGB">
<feFlood flood-opacity="0" result="BackgroundImageFix"/>
<feGaussianBlur in="BackgroundImage" stdDeviation="2.5"/>
<feComposite in2="SourceAlpha" operator="in" result="effect1_backgroundBlur"/>
<feBlend mode="normal" in="SourceGraphic" in2="effect1_backgroundBlur" result="shape"/>
</filter>
</defs>
</svg>
