<svg width="79" height="79" viewBox="0 0 79 79" fill="none" xmlns="http://www.w3.org/2000/svg">
<g opacity="0.2" filter="url(#filter0_b)">
<circle r="39.5" transform="matrix(-1 0 0 1 39.5 39.5)" fill="#E6E6E6"/>
</g>
<path fill-rule="evenodd" clip-rule="evenodd" d="M51.3252 21.6128C52.0155 21.6128 52.5752 22.1724 52.5752 22.8628V31.7797C52.5752 32.1939 52.911 32.5297 53.3252 32.5297C53.7394 32.5297 54.0752 32.1939 54.0752 31.7797V22.8628C54.0752 21.344 52.844 20.1128 51.3252 20.1128H26.9539C25.4351 20.1128 24.2039 21.344 24.2039 22.8628V55.1224C24.2039 56.6412 25.4351 57.8724 26.9539 57.8724H51.3252C52.844 57.8724 54.0752 56.6412 54.0752 55.1224V36.4583C54.0752 36.0441 53.7394 35.7083 53.3252 35.7083C52.911 35.7083 52.5752 36.0441 52.5752 36.4583V55.1224C52.5752 55.8128 52.0156 56.3724 51.3252 56.3724H26.9539C26.2635 56.3724 25.7039 55.8128 25.7039 55.1224V22.8628C25.7039 22.1724 26.2635 21.6128 26.9539 21.6128H51.3252ZM48.2691 26.5607H41.5687C41.0977 26.5607 40.7158 26.2128 40.7158 25.7837C40.7158 25.3547 41.0977 25.0067 41.5687 25.0067H48.2691C48.7401 25.0067 49.1221 25.3547 49.1221 25.7837C49.1221 26.2128 48.7401 26.5607 48.2691 26.5607ZM29.904 30.1867H48.3751C48.7876 30.1867 49.1221 29.8391 49.1221 29.4099C49.1221 28.9808 48.7876 28.6327 48.3751 28.6327H29.904C29.4912 28.6327 29.1571 28.9808 29.1571 29.4099C29.1571 29.8391 29.4912 30.1867 29.904 30.1867ZM48.3751 33.8128H29.904C29.4912 33.8128 29.1571 33.4652 29.1571 33.036C29.1571 32.6069 29.4912 32.2588 29.904 32.2588H48.3751C48.7876 32.2588 49.1221 32.6069 49.1221 33.036C49.1221 33.4652 48.7876 33.8128 48.3751 33.8128ZM29.904 37.4385H48.3751C48.7876 37.4385 49.1221 37.0909 49.1221 36.6618C49.1221 36.2326 48.7876 35.8846 48.3751 35.8846H29.904C29.4912 35.8846 29.1571 36.2326 29.1571 36.6618C29.1571 37.0909 29.4912 37.4385 29.904 37.4385ZM48.3751 41.0645H29.904C29.4912 41.0645 29.1571 40.7169 29.1571 40.2877C29.1571 39.8586 29.4912 39.5105 29.904 39.5105H48.3751C48.7876 39.5105 49.1221 39.8586 49.1221 40.2877C49.1221 40.7169 48.7876 41.0645 48.3751 41.0645ZM34.2763 43.6739H31.0328C30.6635 43.6739 30.364 43.9692 30.364 44.3333V51.6764C30.364 52.0406 30.6635 52.3359 31.0328 52.3359H47.2504C47.6197 52.3359 47.9189 52.0406 47.9189 51.6764V49.3669C47.9189 49.0028 47.6197 48.7075 47.2504 48.7075H44.6754V48.005C44.6754 47.6409 44.3763 47.3456 44.0066 47.3456H41.432V46.7021C41.432 46.338 41.1328 46.0427 40.7635 46.0427H38.1885V45.6952C38.1885 45.3311 37.8894 45.0361 37.5197 45.0361H34.9451V44.3333C34.9451 43.9692 34.6456 43.6739 34.2763 43.6739ZM44.6754 50.026H46.5815V51.017H44.6754V50.026ZM43.3381 48.6641V49.3669V51.017H41.432V48.6641H43.3381ZM40.0946 47.3612V48.0047V51.017H38.1885V47.3612H40.0946ZM36.8512 46.3546V46.7021V51.017H34.9451V46.3546H36.8512ZM33.6074 51.017H31.7017V44.9927H33.6074V51.017Z" fill="white"/>
<defs>
<filter id="filter0_b" x="-5" y="-5" width="89" height="89" filterUnits="userSpaceOnUse" color-interpolation-filters="sRGB">
<feFlood flood-opacity="0" result="BackgroundImageFix"/>
<feGaussianBlur in="BackgroundImage" stdDeviation="2.5"/>
<feComposite in2="SourceAlpha" operator="in" result="effect1_backgroundBlur"/>
<feBlend mode="normal" in="SourceGraphic" in2="effect1_backgroundBlur" result="shape"/>
</filter>
</defs>
</svg>
