<svg width="30" height="39" viewBox="0 0 30 39" fill="none" xmlns="http://www.w3.org/2000/svg">
<mask id="path-1-inside-1" fill="white">
<path fill-rule="evenodd" clip-rule="evenodd" d="M2.75 2.11768C2.05965 2.11768 1.5 2.67732 1.5 3.36768V12.2846C1.5 12.6988 1.16421 13.0346 0.75 13.0346C0.335786 13.0346 0 12.6988 0 12.2846V3.36768C0 1.8489 1.23122 0.617676 2.75 0.617676H27.1213C28.6401 0.617676 29.8713 1.84889 29.8713 3.36768V35.6273C29.8713 37.1461 28.6401 38.3773 27.1213 38.3773H2.75C1.23122 38.3773 0 37.1461 0 35.6273V16.9632C0 16.549 0.335786 16.2132 0.75 16.2132C1.16421 16.2132 1.5 16.549 1.5 16.9632V35.6273C1.5 36.3177 2.05964 36.8773 2.75 36.8773H27.1213C27.8117 36.8773 28.3713 36.3177 28.3713 35.6273V3.36768C28.3713 2.67732 27.8117 2.11768 27.1213 2.11768H2.75ZM5.80605 7.06562H12.5065C12.9775 7.06562 13.3594 6.71767 13.3594 6.28862C13.3594 5.85958 12.9775 5.51163 12.5065 5.51163H5.80605C5.33506 5.51163 4.9531 5.85958 4.9531 6.28862C4.9531 6.71767 5.33506 7.06562 5.80605 7.06562ZM24.1712 10.6916H5.70005C5.2876 10.6916 4.9531 10.344 4.9531 9.9148C4.9531 9.48565 5.2876 9.13761 5.70005 9.13761H24.1712C24.584 9.13761 24.9181 9.48565 24.9181 9.9148C24.9181 10.344 24.584 10.6916 24.1712 10.6916ZM5.70005 14.3177H24.1712C24.584 14.3177 24.9181 13.9701 24.9181 13.5409C24.9181 13.1117 24.584 12.7637 24.1712 12.7637H5.70005C5.2876 12.7637 4.9531 13.1117 4.9531 13.5409C4.9531 13.9701 5.2876 14.3177 5.70005 14.3177ZM24.1712 17.9434H5.70005C5.2876 17.9434 4.9531 17.5958 4.9531 17.1666C4.9531 16.7375 5.2876 16.3894 5.70005 16.3894H24.1712C24.584 16.3894 24.9181 16.7375 24.9181 17.1666C24.9181 17.5958 24.584 17.9434 24.1712 17.9434ZM5.70005 21.5694H24.1712C24.584 21.5694 24.9181 21.2218 24.9181 20.7926C24.9181 20.3635 24.584 20.0154 24.1712 20.0154H5.70005C5.2876 20.0154 4.9531 20.3635 4.9531 20.7926C4.9531 21.2218 5.2876 21.5694 5.70005 21.5694ZM19.7989 24.1788H23.0424C23.4117 24.1788 23.7112 24.4741 23.7112 24.8382V32.1813C23.7112 32.5454 23.4117 32.8407 23.0424 32.8407H6.82482C6.4555 32.8407 6.15633 32.5454 6.15633 32.1813V29.8718C6.15633 29.5077 6.4555 29.2124 6.82482 29.2124H9.39977V28.5099C9.39977 28.1458 9.69894 27.8505 10.0686 27.8505H12.6432V27.207C12.6432 26.8429 12.9424 26.5476 13.3117 26.5476H15.8867V26.2001C15.8867 25.836 16.1858 25.541 16.5555 25.541H19.1301V24.8382C19.1301 24.4741 19.4296 24.1788 19.7989 24.1788ZM9.39977 30.5309H7.49366V31.5219H9.39977V30.5309ZM10.7371 29.169V29.8718V31.5219H12.6432V29.169H10.7371ZM13.9805 27.8661V28.5096V31.5219H15.8867V27.8661H13.9805ZM17.224 26.8595V27.207V31.5219H19.1301V26.8595H17.224ZM20.4678 31.5219H22.3735V25.4976H20.4678V31.5219Z"/>
</mask>
<path fill-rule="evenodd" clip-rule="evenodd" d="M2.75 2.11768C2.05965 2.11768 1.5 2.67732 1.5 3.36768V12.2846C1.5 12.6988 1.16421 13.0346 0.75 13.0346C0.335786 13.0346 0 12.6988 0 12.2846V3.36768C0 1.8489 1.23122 0.617676 2.75 0.617676H27.1213C28.6401 0.617676 29.8713 1.84889 29.8713 3.36768V35.6273C29.8713 37.1461 28.6401 38.3773 27.1213 38.3773H2.75C1.23122 38.3773 0 37.1461 0 35.6273V16.9632C0 16.549 0.335786 16.2132 0.75 16.2132C1.16421 16.2132 1.5 16.549 1.5 16.9632V35.6273C1.5 36.3177 2.05964 36.8773 2.75 36.8773H27.1213C27.8117 36.8773 28.3713 36.3177 28.3713 35.6273V3.36768C28.3713 2.67732 27.8117 2.11768 27.1213 2.11768H2.75ZM5.80605 7.06562H12.5065C12.9775 7.06562 13.3594 6.71767 13.3594 6.28862C13.3594 5.85958 12.9775 5.51163 12.5065 5.51163H5.80605C5.33506 5.51163 4.9531 5.85958 4.9531 6.28862C4.9531 6.71767 5.33506 7.06562 5.80605 7.06562ZM24.1712 10.6916H5.70005C5.2876 10.6916 4.9531 10.344 4.9531 9.9148C4.9531 9.48565 5.2876 9.13761 5.70005 9.13761H24.1712C24.584 9.13761 24.9181 9.48565 24.9181 9.9148C24.9181 10.344 24.584 10.6916 24.1712 10.6916ZM5.70005 14.3177H24.1712C24.584 14.3177 24.9181 13.9701 24.9181 13.5409C24.9181 13.1117 24.584 12.7637 24.1712 12.7637H5.70005C5.2876 12.7637 4.9531 13.1117 4.9531 13.5409C4.9531 13.9701 5.2876 14.3177 5.70005 14.3177ZM24.1712 17.9434H5.70005C5.2876 17.9434 4.9531 17.5958 4.9531 17.1666C4.9531 16.7375 5.2876 16.3894 5.70005 16.3894H24.1712C24.584 16.3894 24.9181 16.7375 24.9181 17.1666C24.9181 17.5958 24.584 17.9434 24.1712 17.9434ZM5.70005 21.5694H24.1712C24.584 21.5694 24.9181 21.2218 24.9181 20.7926C24.9181 20.3635 24.584 20.0154 24.1712 20.0154H5.70005C5.2876 20.0154 4.9531 20.3635 4.9531 20.7926C4.9531 21.2218 5.2876 21.5694 5.70005 21.5694ZM19.7989 24.1788H23.0424C23.4117 24.1788 23.7112 24.4741 23.7112 24.8382V32.1813C23.7112 32.5454 23.4117 32.8407 23.0424 32.8407H6.82482C6.4555 32.8407 6.15633 32.5454 6.15633 32.1813V29.8718C6.15633 29.5077 6.4555 29.2124 6.82482 29.2124H9.39977V28.5099C9.39977 28.1458 9.69894 27.8505 10.0686 27.8505H12.6432V27.207C12.6432 26.8429 12.9424 26.5476 13.3117 26.5476H15.8867V26.2001C15.8867 25.836 16.1858 25.541 16.5555 25.541H19.1301V24.8382C19.1301 24.4741 19.4296 24.1788 19.7989 24.1788ZM9.39977 30.5309H7.49366V31.5219H9.39977V30.5309ZM10.7371 29.169V29.8718V31.5219H12.6432V29.169H10.7371ZM13.9805 27.8661V28.5096V31.5219H15.8867V27.8661H13.9805ZM17.224 26.8595V27.207V31.5219H19.1301V26.8595H17.224ZM20.4678 31.5219H22.3735V25.4976H20.4678V31.5219Z" fill="#485055"/>
<path d="M9.39977 29.2124V30.2124H10.3998V29.2124H9.39977ZM12.6432 27.8505V28.8505H13.6432V27.8505H12.6432ZM15.8867 26.5476V27.5476H16.8867V26.5476H15.8867ZM19.1301 25.541V26.541H20.1301V25.541H19.1301ZM7.49366 30.5309V29.5309H6.49366V30.5309H7.49366ZM9.39977 30.5309H10.3998V29.5309H9.39977V30.5309ZM7.49366 31.5219H6.49366V32.5219H7.49366V31.5219ZM9.39977 31.5219V32.5219H10.3998V31.5219H9.39977ZM10.7371 29.169V28.169H9.7371V29.169H10.7371ZM10.7371 31.5219H9.7371V32.5219H10.7371V31.5219ZM12.6432 31.5219V32.5219H13.6432V31.5219H12.6432ZM12.6432 29.169H13.6432V28.169H12.6432V29.169ZM13.9805 27.8661V26.8661H12.9805V27.8661H13.9805ZM13.9805 31.5219H12.9805V32.5219H13.9805V31.5219ZM15.8867 31.5219V32.5219H16.8867V31.5219H15.8867ZM15.8867 27.8661H16.8867V26.8661H15.8867V27.8661ZM17.224 26.8595V25.8595H16.224V26.8595H17.224ZM17.224 31.5219H16.224V32.5219H17.224V31.5219ZM19.1301 31.5219V32.5219H20.1301V31.5219H19.1301ZM19.1301 26.8595H20.1301V25.8595H19.1301V26.8595ZM22.3735 31.5219V32.5219H23.3735V31.5219H22.3735ZM20.4678 31.5219H19.4678V32.5219H20.4678V31.5219ZM22.3735 25.4976H23.3735V24.4976H22.3735V25.4976ZM20.4678 25.4976V24.4976H19.4678V25.4976H20.4678ZM2.5 3.36768C2.5 3.2296 2.61193 3.11768 2.75 3.11768V1.11768C1.50736 1.11768 0.5 2.12504 0.5 3.36768H2.5ZM2.5 12.2846V3.36768H0.5V12.2846H2.5ZM0.75 14.0346C1.7165 14.0346 2.5 13.2511 2.5 12.2846H0.5C0.5 12.1465 0.611928 12.0346 0.75 12.0346V14.0346ZM-1 12.2846C-1 13.2511 -0.216499 14.0346 0.75 14.0346V12.0346C0.888072 12.0346 1 12.1465 1 12.2846H-1ZM-1 3.36768V12.2846H1V3.36768H-1ZM2.75 -0.382324C0.678929 -0.382324 -1 1.29661 -1 3.36768H1C1 2.40118 1.7835 1.61768 2.75 1.61768V-0.382324ZM27.1213 -0.382324H2.75V1.61768H27.1213V-0.382324ZM30.8713 3.36768C30.8713 1.29661 29.1924 -0.382324 27.1213 -0.382324V1.61768C28.0878 1.61768 28.8713 2.40118 28.8713 3.36768H30.8713ZM30.8713 35.6273V3.36768H28.8713V35.6273H30.8713ZM27.1213 39.3773C29.1924 39.3773 30.8713 37.6984 30.8713 35.6273H28.8713C28.8713 36.5938 28.0878 37.3773 27.1213 37.3773V39.3773ZM2.75 39.3773H27.1213V37.3773H2.75V39.3773ZM-1 35.6273C-1 37.6984 0.678933 39.3773 2.75 39.3773V37.3773C1.7835 37.3773 1 36.5938 1 35.6273H-1ZM-1 16.9632V35.6273H1V16.9632H-1ZM0.75 15.2132C-0.216499 15.2132 -1 15.9967 -1 16.9632H1C1 17.1013 0.888072 17.2132 0.75 17.2132V15.2132ZM2.5 16.9632C2.5 15.9967 1.7165 15.2132 0.75 15.2132V17.2132C0.611928 17.2132 0.5 17.1013 0.5 16.9632H2.5ZM2.5 35.6273V16.9632H0.5V35.6273H2.5ZM2.75 35.8773C2.61193 35.8773 2.5 35.7654 2.5 35.6273H0.5C0.5 36.87 1.50736 37.8773 2.75 37.8773V35.8773ZM27.1213 35.8773H2.75V37.8773H27.1213V35.8773ZM27.3713 35.6273C27.3713 35.7654 27.2594 35.8773 27.1213 35.8773V37.8773C28.364 37.8773 29.3713 36.87 29.3713 35.6273H27.3713ZM27.3713 3.36768V35.6273H29.3713V3.36768H27.3713ZM27.1213 3.11768C27.2594 3.11768 27.3713 3.2296 27.3713 3.36768H29.3713C29.3713 2.12504 28.364 1.11768 27.1213 1.11768V3.11768ZM2.75 3.11768H27.1213V1.11768H2.75V3.11768ZM12.5065 6.06562H5.80605V8.06562H12.5065V6.06562ZM12.3594 6.28862C12.3594 6.19496 12.4032 6.1288 12.4361 6.09875C12.4676 6.07009 12.4951 6.06562 12.5065 6.06562V8.06562C13.4399 8.06562 14.3594 7.35569 14.3594 6.28862H12.3594ZM12.5065 6.51163C12.4951 6.51163 12.4676 6.50716 12.4361 6.4785C12.4032 6.44845 12.3594 6.38229 12.3594 6.28862H14.3594C14.3594 5.22156 13.4399 4.51163 12.5065 4.51163V6.51163ZM5.80605 6.51163H12.5065V4.51163H5.80605V6.51163ZM5.9531 6.28862C5.9531 6.38229 5.90936 6.44845 5.87638 6.4785C5.84491 6.50716 5.81741 6.51163 5.80605 6.51163V4.51163C4.87261 4.51163 3.9531 5.22156 3.9531 6.28862H5.9531ZM5.80605 6.06562C5.81741 6.06562 5.84491 6.07009 5.87638 6.09875C5.90936 6.1288 5.9531 6.19496 5.9531 6.28862H3.9531C3.9531 7.35569 4.87261 8.06562 5.80605 8.06562V6.06562ZM5.70005 11.6916H24.1712V9.69159H5.70005V11.6916ZM3.9531 9.9148C3.9531 10.8591 4.69894 11.6916 5.70005 11.6916V9.69159C5.87626 9.69159 5.9531 9.82876 5.9531 9.9148H3.9531ZM5.70005 8.13761C4.69828 8.13761 3.9531 8.97114 3.9531 9.9148H5.9531C5.9531 10.0002 5.87691 10.1376 5.70005 10.1376V8.13761ZM24.1712 8.13761H5.70005V10.1376H24.1712V8.13761ZM25.9181 9.9148C25.9181 8.97147 25.1736 8.13761 24.1712 8.13761V10.1376C23.9944 10.1376 23.9181 9.99982 23.9181 9.9148H25.9181ZM24.1712 11.6916C25.173 11.6916 25.9181 10.8588 25.9181 9.9148H23.9181C23.9181 9.8291 23.995 9.69159 24.1712 9.69159V11.6916ZM24.1712 13.3177H5.70005V15.3177H24.1712V13.3177ZM23.9181 13.5409C23.9181 13.4552 23.995 13.3177 24.1712 13.3177V15.3177C25.173 15.3177 25.9181 14.4849 25.9181 13.5409H23.9181ZM24.1712 13.7637C23.9944 13.7637 23.9181 13.6259 23.9181 13.5409H25.9181C25.9181 12.5976 25.1736 11.7637 24.1712 11.7637V13.7637ZM5.70005 13.7637H24.1712V11.7637H5.70005V13.7637ZM5.9531 13.5409C5.9531 13.6263 5.87691 13.7637 5.70005 13.7637V11.7637C4.69828 11.7637 3.9531 12.5972 3.9531 13.5409H5.9531ZM5.70005 13.3177C5.87626 13.3177 5.9531 13.4549 5.9531 13.5409H3.9531C3.9531 14.4852 4.69894 15.3177 5.70005 15.3177V13.3177ZM5.70005 18.9434H24.1712V16.9434H5.70005V18.9434ZM3.9531 17.1666C3.9531 18.111 4.69894 18.9434 5.70005 18.9434V16.9434C5.87625 16.9434 5.9531 17.0806 5.9531 17.1666H3.9531ZM5.70005 15.3894C4.69828 15.3894 3.9531 16.223 3.9531 17.1666H5.9531C5.9531 17.252 5.87691 17.3894 5.70005 17.3894V15.3894ZM24.1712 15.3894H5.70005V17.3894H24.1712V15.3894ZM25.9181 17.1666C25.9181 16.2233 25.1736 15.3894 24.1712 15.3894V17.3894C23.9944 17.3894 23.9181 17.2517 23.9181 17.1666H25.9181ZM24.1712 18.9434C25.173 18.9434 25.9181 18.1106 25.9181 17.1666H23.9181C23.9181 17.0809 23.995 16.9434 24.1712 16.9434V18.9434ZM24.1712 20.5694H5.70005V22.5694H24.1712V20.5694ZM23.9181 20.7926C23.9181 20.7069 23.995 20.5694 24.1712 20.5694V22.5694C25.173 22.5694 25.9181 21.7366 25.9181 20.7926H23.9181ZM24.1712 21.0154C23.9944 21.0154 23.9181 20.8776 23.9181 20.7926H25.9181C25.9181 19.8493 25.1736 19.0154 24.1712 19.0154V21.0154ZM5.70005 21.0154H24.1712V19.0154H5.70005V21.0154ZM5.9531 20.7926C5.9531 20.878 5.87691 21.0154 5.70005 21.0154V19.0154C4.69828 19.0154 3.9531 19.8489 3.9531 20.7926H5.9531ZM5.70005 20.5694C5.87625 20.5694 5.9531 20.7066 5.9531 20.7926H3.9531C3.9531 21.737 4.69894 22.5694 5.70005 22.5694V20.5694ZM23.0424 23.1788H19.7989V25.1788H23.0424V23.1788ZM24.7112 24.8382C24.7112 23.9085 23.9506 23.1788 23.0424 23.1788V25.1788C22.8728 25.1788 22.7112 25.0397 22.7112 24.8382H24.7112ZM24.7112 32.1813V24.8382H22.7112V32.1813H24.7112ZM23.0424 33.8407C23.9506 33.8407 24.7112 33.111 24.7112 32.1813H22.7112C22.7112 31.9798 22.8728 31.8407 23.0424 31.8407V33.8407ZM6.82482 33.8407H23.0424V31.8407H6.82482V33.8407ZM5.15633 32.1813C5.15633 33.1104 5.91596 33.8407 6.82482 33.8407V31.8407C6.99504 31.8407 7.15633 31.9805 7.15633 32.1813H5.15633ZM5.15633 29.8718V32.1813H7.15633V29.8718H5.15633ZM6.82482 28.2124C5.91596 28.2124 5.15633 28.9428 5.15633 29.8718H7.15633C7.15633 30.0726 6.99504 30.2124 6.82482 30.2124V28.2124ZM9.39977 28.2124H6.82482V30.2124H9.39977V28.2124ZM8.39977 28.5099V29.2124H10.3998V28.5099H8.39977ZM10.0686 26.8505C9.15974 26.8505 8.39977 27.5805 8.39977 28.5099H10.3998C10.3998 28.7111 10.2381 28.8505 10.0686 28.8505V26.8505ZM12.6432 26.8505H10.0686V28.8505H12.6432V26.8505ZM11.6432 27.207V27.8505H13.6432V27.207H11.6432ZM13.3117 25.5476C12.4028 25.5476 11.6432 26.278 11.6432 27.207H13.6432C13.6432 27.4078 13.4819 27.5476 13.3117 27.5476V25.5476ZM15.8867 25.5476H13.3117V27.5476H15.8867V25.5476ZM14.8867 26.2001V26.5476H16.8867V26.2001H14.8867ZM16.5555 24.541C15.6473 24.541 14.8867 25.27 14.8867 26.2001H16.8867C16.8867 26.4019 16.7244 26.541 16.5555 26.541V24.541ZM19.1301 24.541H16.5555V26.541H19.1301V24.541ZM18.1301 24.8382V25.541H20.1301V24.8382H18.1301ZM19.7989 23.1788C18.8907 23.1788 18.1301 23.9085 18.1301 24.8382H20.1301C20.1301 25.0397 19.9685 25.1788 19.7989 25.1788V23.1788ZM7.49366 31.5309H9.39977V29.5309H7.49366V31.5309ZM8.49366 31.5219V30.5309H6.49366V31.5219H8.49366ZM9.39977 30.5219H7.49366V32.5219H9.39977V30.5219ZM8.39977 30.5309V31.5219H10.3998V30.5309H8.39977ZM11.7371 29.8718V29.169H9.7371V29.8718H11.7371ZM11.7371 31.5219V29.8718H9.7371V31.5219H11.7371ZM12.6432 30.5219H10.7371V32.5219H12.6432V30.5219ZM11.6432 29.169V31.5219H13.6432V29.169H11.6432ZM10.7371 30.169H12.6432V28.169H10.7371V30.169ZM14.9805 28.5096V27.8661H12.9805V28.5096H14.9805ZM14.9805 31.5219V28.5096H12.9805V31.5219H14.9805ZM15.8867 30.5219H13.9805V32.5219H15.8867V30.5219ZM14.8867 27.8661V31.5219H16.8867V27.8661H14.8867ZM13.9805 28.8661H15.8867V26.8661H13.9805V28.8661ZM18.224 27.207V26.8595H16.224V27.207H18.224ZM18.224 31.5219V27.207H16.224V31.5219H18.224ZM19.1301 30.5219H17.224V32.5219H19.1301V30.5219ZM18.1301 26.8595V31.5219H20.1301V26.8595H18.1301ZM17.224 27.8595H19.1301V25.8595H17.224V27.8595ZM22.3735 30.5219H20.4678V32.5219H22.3735V30.5219ZM21.3735 25.4976V31.5219H23.3735V25.4976H21.3735ZM20.4678 26.4976H22.3735V24.4976H20.4678V26.4976ZM21.4678 31.5219V25.4976H19.4678V31.5219H21.4678Z" fill="#485055" mask="url(#path-1-inside-1)"/>
</svg>
