<svg width="79" height="79" viewBox="0 0 79 79" fill="none" xmlns="http://www.w3.org/2000/svg">
<g opacity="0.2" filter="url(#filter0_b)">
<circle r="39.5" transform="matrix(-1 0 0 1 39.5 39.5)" fill="#E6E6E6"/>
</g>
<mask id="path-2-inside-1" fill="white">
<path fill-rule="evenodd" clip-rule="evenodd" d="M48.2211 20.3036H30.4505V25.7355C30.4505 26.0954 30.1571 26.3873 29.7952 26.3873H24.3105V51.8081C24.3105 52.4081 24.7994 52.8944 25.4026 52.8944H48.2211C48.8243 52.8944 49.3132 52.4081 49.3132 51.8081V34.2301C49.3132 33.8701 49.6066 33.5783 49.9685 33.5783C50.3304 33.5783 50.6238 33.8701 50.6238 34.2301V51.8081C50.6238 53.128 49.5481 54.1981 48.2211 54.1981H27.374V55.0896C27.374 55.78 27.9337 56.3396 28.624 56.3396L52.4399 56.3396C53.1303 56.3396 53.6899 55.78 53.6899 55.0896L53.6899 26.1936C53.6899 25.5033 53.1303 24.9436 52.4399 24.9436L50.6238 24.9436V29.8566C50.6238 30.2166 50.3304 30.5084 49.9685 30.5084C49.6066 30.5084 49.3132 30.2166 49.3132 29.8566V21.39C49.3132 20.79 48.8243 20.3036 48.2211 20.3036ZM50.6238 23.4436V21.39C50.6238 20.07 49.5481 19 48.2211 19H29.7954H29.795C29.625 19.0001 29.4579 19.066 29.3328 19.19L23.193 25.2737C23.0671 25.3984 23.0002 25.5654 23.0001 25.7354H22.9999V51.8081C22.9999 53.128 24.0756 54.1981 25.4026 54.1981H25.874V55.0896C25.874 56.6084 27.1053 57.8396 28.624 57.8396L52.4399 57.8396C53.9587 57.8396 55.1899 56.6084 55.1899 55.0896L55.1899 26.1936C55.1899 24.6749 53.9587 23.4436 52.4399 23.4436L50.6238 23.4436ZM29.1399 21.2211V25.0836H25.2418L29.1399 21.2211ZM36.4953 26.5101H46.6705C47.0126 26.5101 47.2894 26.2115 47.2894 25.8433C47.2894 25.4751 47.0126 25.1765 46.6705 25.1765H36.4953C36.1535 25.1765 35.8764 25.4751 35.8764 25.8433C35.8764 26.2115 36.1535 26.5101 36.4953 26.5101ZM27.4036 29.7998H46.6181C46.9893 29.7998 47.2896 29.5012 47.2896 29.1329C47.2896 28.7647 46.9893 28.4661 46.6181 28.4661H27.4036C27.0325 28.4661 26.7321 28.7647 26.7321 29.1329C26.7321 29.5012 27.0325 29.7998 27.4036 29.7998ZM46.6181 33.0889H27.4036C27.0325 33.0889 26.7321 32.7904 26.7321 32.4221C26.7321 32.0539 27.0325 31.7553 27.4036 31.7553H46.6181C46.9893 31.7553 47.2896 32.0539 47.2896 32.4221C47.2896 32.7904 46.9893 33.0889 46.6181 33.0889ZM27.4036 36.3787H46.6181C46.9893 36.3787 47.2896 36.0802 47.2896 35.7119C47.2896 35.3437 46.9893 35.0451 46.6181 35.0451H27.4036C27.0325 35.0451 26.7321 35.3437 26.7321 35.7119C26.7321 36.0802 27.0325 36.3787 27.4036 36.3787ZM31.6484 49.5326C29.1803 49.5326 27.1794 47.5424 27.1794 45.0872C27.1794 42.6321 29.1803 40.6418 31.6484 40.6418C34.1166 40.6418 36.1175 42.6321 36.1175 45.0872C36.1175 47.5424 34.1166 49.5326 31.6484 49.5326ZM31.6484 50.8663C28.4398 50.8663 25.8387 48.2789 25.8387 45.0872C25.8387 41.8956 28.4398 39.3082 31.6484 39.3082C34.8571 39.3082 37.4582 41.8956 37.4582 45.0872C37.4582 48.2789 34.8571 50.8663 31.6484 50.8663ZM28.9431 43.2795C28.6797 43.5383 28.6771 43.9605 28.9373 44.2225L31.5856 46.8898C31.711 47.0161 31.8819 47.0874 32.0604 47.088C32.2389 47.0886 32.4102 47.0183 32.5365 46.8928L34.3572 45.0823C34.619 44.8219 34.6191 44.3997 34.3573 44.1393C34.0956 43.8788 33.6711 43.8787 33.4093 44.1391L32.0655 45.4753L29.8912 43.2854C29.631 43.0234 29.2066 43.0207 28.9431 43.2795Z"/>
</mask>
<path d="M30.4505 20.3036H28.9505V18.8036H30.4505V20.3036ZM24.3105 26.3873H22.8105V24.8873H24.3105V26.3873ZM27.374 54.1981H25.874V52.6981H27.374V54.1981ZM28.624 56.3396V57.8396V56.3396ZM52.4399 56.3396L52.4399 54.8396H52.4399V56.3396ZM53.6899 55.0896H55.1899H53.6899ZM53.6899 26.1936H52.1899H53.6899ZM52.4399 24.9436L52.4399 23.4436H52.4399V24.9436ZM50.6238 24.9436H49.1238V23.4436L50.6238 23.4436L50.6238 24.9436ZM50.6238 23.4436L50.6238 24.9436L49.1238 24.9436V23.4436H50.6238ZM29.795 19L29.7941 17.5H29.795V19ZM29.3328 19.19L28.277 18.1245V18.1245L29.3328 19.19ZM23.193 25.2737L24.2488 26.3392L24.2487 26.3392L23.193 25.2737ZM23.0001 25.7354L24.5001 25.7358L24.4998 27.2354H23.0001V25.7354ZM22.9999 25.7354H21.4999V24.2354H22.9999V25.7354ZM25.874 54.1981V52.6981H27.374V54.1981H25.874ZM28.624 57.8396V59.3396V57.8396ZM52.4399 57.8396L52.4399 56.3396H52.4399V57.8396ZM55.1899 55.0896H56.6899H55.1899ZM55.1899 26.1936H53.6899H55.1899ZM52.4399 23.4436L52.4399 21.9436H52.4399V23.4436ZM29.1399 25.0836H30.6399V26.5836H29.1399V25.0836ZM29.1399 21.2211L28.0841 20.1556L30.6399 17.6232V21.2211H29.1399ZM25.2418 25.0836V26.5836H21.5968L24.186 24.0181L25.2418 25.0836ZM28.9373 44.2225L27.8728 45.2794V45.2794L28.9373 44.2225ZM31.5856 46.8898L30.5211 47.9466L30.5211 47.9466L31.5856 46.8898ZM32.0604 47.088L32.0556 48.588L32.0604 47.088ZM32.5365 46.8928L33.5941 47.9564L33.5941 47.9564L32.5365 46.8928ZM34.3572 45.0823L33.2995 44.0186H33.2995L34.3572 45.0823ZM34.3573 44.1393L35.4153 43.076L35.4154 43.076L34.3573 44.1393ZM33.4093 44.1391L34.467 45.2028L33.4093 44.1391ZM32.0655 45.4753L33.1232 46.539L32.0588 47.5974L31.0011 46.5322L32.0655 45.4753ZM29.8912 43.2854L28.8267 44.3423V44.3423L29.8912 43.2854ZM30.4505 18.8036H48.2211V21.8036H30.4505V18.8036ZM28.9505 25.7355V20.3036H31.9505V25.7355H28.9505ZM29.7952 24.8873C29.3362 24.8873 28.9505 25.2595 28.9505 25.7355H31.9505C31.9505 26.9314 30.978 27.8873 29.7952 27.8873V24.8873ZM24.3105 24.8873H29.7952V27.8873H24.3105V24.8873ZM22.8105 51.8081V26.3873H25.8105V51.8081H22.8105ZM25.4026 54.3944C23.9785 54.3944 22.8105 53.244 22.8105 51.8081H25.8105C25.8105 51.5722 25.6204 51.3944 25.4026 51.3944V54.3944ZM48.2211 54.3944H25.4026V51.3944H48.2211V54.3944ZM50.8132 51.8081C50.8132 53.244 49.6452 54.3944 48.2211 54.3944V51.3944C48.0034 51.3944 47.8132 51.5721 47.8132 51.8081H50.8132ZM50.8132 34.2301V51.8081H47.8132V34.2301H50.8132ZM49.9685 35.0783C50.4275 35.0783 50.8132 34.706 50.8132 34.2301H47.8132C47.8132 33.0342 48.7857 32.0783 49.9685 32.0783V35.0783ZM49.1238 34.2301C49.1238 34.706 49.5095 35.0783 49.9685 35.0783V32.0783C51.1513 32.0783 52.1238 33.0342 52.1238 34.2301H49.1238ZM49.1238 51.8081V34.2301H52.1238V51.8081H49.1238ZM48.2211 52.6981C48.7272 52.6981 49.1238 52.2921 49.1238 51.8081H52.1238C52.1238 53.964 50.369 55.6981 48.2211 55.6981V52.6981ZM27.374 52.6981H48.2211V55.6981H27.374V52.6981ZM25.874 55.0896V54.1981H28.874V55.0896H25.874ZM28.624 57.8396C27.1053 57.8396 25.874 56.6084 25.874 55.0896H28.874C28.874 54.9515 28.7621 54.8396 28.624 54.8396V57.8396ZM52.4399 57.8396L28.624 57.8396V54.8396L52.4399 54.8396L52.4399 57.8396ZM55.1899 55.0896C55.1899 56.6084 53.9587 57.8396 52.4399 57.8396V54.8396C52.3019 54.8396 52.1899 54.9515 52.1899 55.0896H55.1899ZM55.1899 26.1936L55.1899 55.0896H52.1899L52.1899 26.1936H55.1899ZM52.4399 23.4436C53.9587 23.4436 55.1899 24.6749 55.1899 26.1936H52.1899C52.1899 26.3317 52.3019 26.4436 52.4399 26.4436V23.4436ZM50.6238 23.4436L52.4399 23.4436L52.4399 26.4436L50.6238 26.4436L50.6238 23.4436ZM49.1238 29.8566V24.9436H52.1238V29.8566H49.1238ZM49.9685 29.0084C49.5095 29.0084 49.1238 29.3807 49.1238 29.8566H52.1238C52.1238 31.0525 51.1513 32.0084 49.9685 32.0084V29.0084ZM50.8132 29.8566C50.8132 29.3807 50.4275 29.0084 49.9685 29.0084V32.0084C48.7857 32.0084 47.8132 31.0525 47.8132 29.8566H50.8132ZM50.8132 21.39V29.8566H47.8132V21.39H50.8132ZM48.2211 18.8036C49.6452 18.8036 50.8132 19.9541 50.8132 21.39H47.8132C47.8132 21.6259 48.0034 21.8036 48.2211 21.8036V18.8036ZM52.1238 21.39V23.4436H49.1238V21.39H52.1238ZM48.2211 17.5C50.369 17.5 52.1238 19.2341 52.1238 21.39H49.1238C49.1238 20.906 48.7272 20.5 48.2211 20.5V17.5ZM29.7954 17.5H48.2211V20.5H29.7954V17.5ZM29.795 17.5H29.7954V20.5H29.795V17.5ZM28.277 18.1245C28.6896 17.7157 29.2386 17.5003 29.7941 17.5L29.7958 20.5C30.0114 20.4999 30.2263 20.4163 30.3885 20.2556L28.277 18.1245ZM22.1372 24.2081L28.277 18.1245L30.3885 20.2556L24.2488 26.3392L22.1372 24.2081ZM21.5001 25.7351C21.5003 25.1723 21.722 24.6196 22.1372 24.2081L24.2487 26.3392C24.4122 26.1772 24.5001 25.9586 24.5001 25.7358L21.5001 25.7351ZM22.9999 24.2354H23.0001V27.2354H22.9999V24.2354ZM21.4999 51.8081V25.7354H24.4999V51.8081H21.4999ZM25.4026 55.6981C23.2547 55.6981 21.4999 53.964 21.4999 51.8081H24.4999C24.4999 52.2921 24.8966 52.6981 25.4026 52.6981V55.6981ZM25.874 55.6981H25.4026V52.6981H25.874V55.6981ZM24.374 55.0896V54.1981H27.374V55.0896H24.374ZM28.624 59.3396C26.2768 59.3396 24.374 57.4368 24.374 55.0896H27.374C27.374 55.78 27.9337 56.3396 28.624 56.3396V59.3396ZM52.4399 59.3396L28.624 59.3396V56.3396L52.4399 56.3396L52.4399 59.3396ZM56.6899 55.0896C56.6899 57.4368 54.7872 59.3396 52.4399 59.3396V56.3396C53.1303 56.3396 53.6899 55.78 53.6899 55.0896H56.6899ZM56.6899 26.1936L56.6899 55.0896H53.6899L53.6899 26.1936H56.6899ZM52.4399 21.9436C54.7871 21.9436 56.6899 23.8464 56.6899 26.1936H53.6899C53.6899 25.5033 53.1303 24.9436 52.4399 24.9436V21.9436ZM50.6238 21.9436L52.4399 21.9436L52.4399 24.9436L50.6238 24.9436L50.6238 21.9436ZM27.6399 25.0836V21.2211H30.6399V25.0836H27.6399ZM25.2418 23.5836H29.1399V26.5836H25.2418V23.5836ZM30.1957 22.2867L26.2976 26.1492L24.186 24.0181L28.0841 20.1556L30.1957 22.2867ZM46.6705 28.0101H36.4953V25.0101H46.6705V28.0101ZM48.7894 25.8433C48.7894 26.9321 47.9449 28.0101 46.6705 28.0101V25.0101C46.0803 25.0101 45.7894 25.4909 45.7894 25.8433H48.7894ZM46.6705 23.6765C47.9449 23.6765 48.7894 24.7545 48.7894 25.8433H45.7894C45.7894 26.1956 46.0803 26.6765 46.6705 26.6765V23.6765ZM36.4953 23.6765H46.6705V26.6765H36.4953V23.6765ZM34.3764 25.8433C34.3764 24.754 35.2217 23.6765 36.4953 23.6765V26.6765C37.0854 26.6765 37.3764 26.1961 37.3764 25.8433H34.3764ZM36.4953 28.0101C35.2217 28.0101 34.3764 26.9326 34.3764 25.8433H37.3764C37.3764 25.4905 37.0854 25.0101 36.4953 25.0101V28.0101ZM46.6181 31.2998H27.4036V28.2998H46.6181V31.2998ZM48.7896 29.1329C48.7896 30.3391 47.8082 31.2998 46.6181 31.2998V28.2998C46.1704 28.2998 45.7896 28.6633 45.7896 29.1329H48.7896ZM46.6181 26.9661C47.8082 26.9661 48.7896 27.9268 48.7896 29.1329H45.7896C45.7896 29.6026 46.1704 29.9661 46.6181 29.9661V26.9661ZM27.4036 26.9661H46.6181V29.9661H27.4036V26.9661ZM25.2321 29.1329C25.2321 27.9268 26.2135 26.9661 27.4036 26.9661V29.9661C27.8514 29.9661 28.2321 29.6026 28.2321 29.1329H25.2321ZM27.4036 31.2998C26.2135 31.2998 25.2321 30.3391 25.2321 29.1329H28.2321C28.2321 28.6633 27.8514 28.2998 27.4036 28.2998V31.2998ZM27.4036 31.5889H46.6181V34.5889H27.4036V31.5889ZM28.2321 32.4221C28.2321 31.9525 27.8514 31.5889 27.4036 31.5889V34.5889C26.2135 34.5889 25.2321 33.6282 25.2321 32.4221H28.2321ZM27.4036 33.2553C27.8514 33.2553 28.2321 32.8918 28.2321 32.4221H25.2321C25.2321 31.216 26.2135 30.2553 27.4036 30.2553V33.2553ZM46.6181 33.2553H27.4036V30.2553H46.6181V33.2553ZM45.7896 32.4221C45.7896 32.8918 46.1704 33.2553 46.6181 33.2553V30.2553C47.8082 30.2553 48.7896 31.216 48.7896 32.4221H45.7896ZM46.6181 31.5889C46.1704 31.5889 45.7896 31.9525 45.7896 32.4221H48.7896C48.7896 33.6282 47.8082 34.5889 46.6181 34.5889V31.5889ZM46.6181 37.8787H27.4036V34.8787H46.6181V37.8787ZM48.7896 35.7119C48.7896 36.918 47.8082 37.8787 46.6181 37.8787V34.8787C46.1704 34.8787 45.7896 35.2423 45.7896 35.7119H48.7896ZM46.6181 33.5451C47.8082 33.5451 48.7896 34.5058 48.7896 35.7119H45.7896C45.7896 36.1816 46.1704 36.5451 46.6181 36.5451V33.5451ZM27.4036 33.5451H46.6181V36.5451H27.4036V33.5451ZM25.2321 35.7119C25.2321 34.5058 26.2135 33.5451 27.4036 33.5451V36.5451C27.8514 36.5451 28.2321 36.1816 28.2321 35.7119H25.2321ZM27.4036 37.8787C26.2135 37.8787 25.2321 36.918 25.2321 35.7119H28.2321C28.2321 35.2423 27.8514 34.8787 27.4036 34.8787V37.8787ZM28.6794 45.0872C28.6794 46.7064 30.0012 48.0326 31.6484 48.0326V51.0326C28.3593 51.0326 25.6794 48.3783 25.6794 45.0872H28.6794ZM31.6484 42.1418C30.0012 42.1418 28.6794 43.468 28.6794 45.0872H25.6794C25.6794 41.7962 28.3593 39.1418 31.6484 39.1418V42.1418ZM34.6175 45.0872C34.6175 43.468 33.2957 42.1418 31.6484 42.1418V39.1418C34.9375 39.1418 37.6175 41.7962 37.6175 45.0872H34.6175ZM31.6484 48.0326C33.2957 48.0326 34.6175 46.7064 34.6175 45.0872H37.6175C37.6175 48.3783 34.9375 51.0326 31.6484 51.0326V48.0326ZM27.3387 45.0872C27.3387 47.443 29.2607 49.3663 31.6484 49.3663V52.3663C27.6189 52.3663 24.3387 49.1148 24.3387 45.0872H27.3387ZM31.6484 40.8082C29.2607 40.8082 27.3387 42.7315 27.3387 45.0872H24.3387C24.3387 41.0597 27.6189 37.8082 31.6484 37.8082V40.8082ZM35.9582 45.0872C35.9582 42.7315 34.0362 40.8082 31.6484 40.8082V37.8082C35.678 37.8082 38.9582 41.0597 38.9582 45.0872H35.9582ZM31.6484 49.3663C34.0362 49.3663 35.9582 47.443 35.9582 45.0872H38.9582C38.9582 49.1148 35.678 52.3663 31.6484 52.3663V49.3663ZM27.8728 45.2794C27.0267 44.4272 27.0354 43.051 27.8919 42.2095L29.9944 44.3495C30.3241 44.0256 30.3275 43.4938 30.0017 43.1656L27.8728 45.2794ZM30.5211 47.9466L27.8728 45.2794L30.0017 43.1656L32.65 45.8329L30.5211 47.9466ZM32.0556 48.588C31.4803 48.5862 30.9279 48.3563 30.5211 47.9466L32.65 45.8329C32.4941 45.6759 32.2835 45.5887 32.0651 45.588L32.0556 48.588ZM33.5941 47.9564C33.1848 48.3634 32.6309 48.5898 32.0556 48.588L32.0651 45.588C31.8468 45.5873 31.6356 45.6732 31.4788 45.8291L33.5941 47.9564ZM35.4148 46.1459L33.5941 47.9564L31.4788 45.8291L33.2995 44.0186L35.4148 46.1459ZM35.4154 43.076C36.2665 43.9229 36.2663 45.2992 35.4148 46.1459L33.2995 44.0186C32.9717 44.3446 32.9716 44.8765 33.2993 45.2026L35.4154 43.076ZM32.3516 43.0755C33.1987 42.2332 34.5686 42.2334 35.4153 43.076L33.2993 45.2026C33.6226 45.5243 34.1436 45.5243 34.467 45.2028L32.3516 43.0755ZM31.0079 44.4117L32.3516 43.0755L34.467 45.2028L33.1232 46.539L31.0079 44.4117ZM30.9556 42.2285L33.13 44.4184L31.0011 46.5322L28.8267 44.3423L30.9556 42.2285ZM27.8919 42.2095C28.744 41.3724 30.1139 41.3808 30.9556 42.2285L28.8267 44.3423C29.1481 44.666 29.6691 44.6691 29.9944 44.3495L27.8919 42.2095Z" fill="white" mask="url(#path-2-inside-1)"/>
<defs>
<filter id="filter0_b" x="-5" y="-5" width="89" height="89" filterUnits="userSpaceOnUse" color-interpolation-filters="sRGB">
<feFlood flood-opacity="0" result="BackgroundImageFix"/>
<feGaussianBlur in="BackgroundImage" stdDeviation="2.5"/>
<feComposite in2="SourceAlpha" operator="in" result="effect1_backgroundBlur"/>
<feBlend mode="normal" in="SourceGraphic" in2="effect1_backgroundBlur" result="shape"/>
</filter>
</defs>
</svg>
