<svg width="32" height="32" viewBox="0 0 32 32" fill="none" xmlns="http://www.w3.org/2000/svg">
<circle cx="16" cy="16" r="16" fill="#009C93"/>
<path fill-rule="evenodd" clip-rule="evenodd" d="M20.4106 20.2627C20.0201 20.6532 19.3869 20.6532 18.9964 20.2627C18.6059 19.8722 18.6059 19.239 18.9964 18.8485L21.8448 16L18.9964 13.1516C18.6059 12.761 18.6059 12.1279 18.9964 11.7374C19.3869 11.3468 20.0201 11.3468 20.4106 11.7374L23.9662 15.2929C24.3567 15.6834 24.3567 16.3166 23.9662 16.7071L20.4106 20.2627ZM11.4905 11.7374C11.8811 11.3469 12.5142 11.3469 12.9048 11.7374C13.2953 12.1279 13.2953 12.7611 12.9048 13.1516L10.0563 16L12.9048 18.8485C13.2953 19.239 13.2953 19.8722 12.9048 20.2627C12.5142 20.6532 11.8811 20.6532 11.4905 20.2627L7.93498 16.7071C7.54446 16.3166 7.54446 15.6835 7.93498 15.2929L11.4905 11.7374Z" fill="white"/>
</svg>
