<svg width="41" height="41" viewBox="0 0 41 41" fill="none" xmlns="http://www.w3.org/2000/svg">
<path fill-rule="evenodd" clip-rule="evenodd" d="M39 20.5C39 30.7173 30.7173 39 20.5 39C10.2827 39 2 30.7173 2 20.5C2 10.2827 10.2827 2 20.5 2C30.7173 2 39 10.2827 39 20.5ZM41 20.5C41 31.8218 31.8218 41 20.5 41C9.17816 41 0 31.8218 0 20.5C0 9.17816 9.17816 0 20.5 0C31.8218 0 41 9.17816 41 20.5ZM21.3786 26.1343C21.7885 26.5044 22.4209 26.4722 22.791 26.0623L27.2624 21.1105C27.6062 20.7299 27.6062 20.1508 27.2624 19.7702L22.791 14.8184C22.4209 14.4085 21.7885 14.3763 21.3786 14.7464C20.9687 15.1166 20.9365 15.7489 21.3066 16.1588L24.27 19.4404H13.6666C13.1143 19.4404 12.6666 19.8881 12.6666 20.4404C12.6666 20.9927 13.1143 21.4404 13.6666 21.4404H24.2698L21.3066 24.7219C20.9365 25.1318 20.9687 25.7641 21.3786 26.1343Z" fill="#009C93"/>
</svg>
