<svg width="41" height="41" viewBox="0 0 41 41" fill="none" xmlns="http://www.w3.org/2000/svg">
<path opacity="0.3" fill-rule="evenodd" clip-rule="evenodd" d="M2 20.5C2 10.2827 10.2827 2 20.5 2C30.7173 2 39 10.2827 39 20.5C39 30.7173 30.7173 39 20.5 39C10.2827 39 2 30.7173 2 20.5ZM1.79217e-06 20.5C2.78195e-06 9.17816 9.17817 -2.78195e-06 20.5 -1.79217e-06C31.8218 -8.0238e-07 41 9.17816 41 20.5C41 31.8218 31.8218 41 20.5 41C9.17816 41 8.0238e-07 31.8218 1.79217e-06 20.5ZM19.6214 14.8657C19.2115 14.4956 18.5792 14.5278 18.209 14.9377L13.7376 19.8895C13.3938 20.2701 13.3938 20.8492 13.7376 21.2298L18.209 26.1816C18.5792 26.5915 19.2115 26.6237 19.6214 26.2536C20.0313 25.8834 20.0635 25.2511 19.6934 24.8412L16.7301 21.5596L27.3333 21.5596C27.8856 21.5596 28.3333 21.1119 28.3333 20.5596C28.3333 20.0073 27.8856 19.5596 27.3333 19.5596L16.7302 19.5596L19.6934 16.2781C20.0635 15.8682 20.0313 15.2359 19.6214 14.8657Z" fill="#485055"/>
</svg>
