<svg width="22" height="22" viewBox="0 0 22 22" fill="none" xmlns="http://www.w3.org/2000/svg">
<path fill-rule="evenodd" clip-rule="evenodd" d="M21.6851 10.5254C21.6851 16.3244 16.984 21.0254 11.1851 21.0254C5.38606 21.0254 0.685059 16.3244 0.685059 10.5254C0.685059 4.72641 5.38606 0.0253906 11.1851 0.0253906C16.984 0.0253906 21.6851 4.72641 21.6851 10.5254ZM5.92074 9.81482L15.197 5.57796C15.2757 5.54196 15.3661 5.54339 15.4432 5.57984L8.45245 11.6936L9.01368 15.2595L9.78648 12.2736L15.4432 5.57984C15.4558 5.5858 15.4682 5.59252 15.4801 5.60042C15.5639 5.65628 15.6115 5.75129 15.6056 5.85049L15.1229 13.9015C15.1046 14.2073 14.7683 14.4078 14.4828 14.2804L10.7966 12.7053L9.06115 15.3666L9.03055 15.425L8.9806 15.4991L8.34393 11.6571L5.93079 10.6259C5.76923 10.5565 5.66072 10.3964 5.65876 10.2232C5.65684 10.0504 5.761 9.88772 5.92074 9.81482Z" fill="#485055"/>
</svg>
